<?xml version="1.0" standalone="no"?>
 <!DOCTYPE svg PUBLIC "-//W3C//DTD SVG 1.1//EN" 
 "http://www.w3.org/Graphics/SVG/1.1/DTD/svg11.dtd"> 
<svg
  xmlns:svg="http://www.w3.org/2000/svg"
  xmlns="http://www.w3.org/2000/svg"
  xmlns:xlink="http://www.w3.org/1999/xlink"
  version="1.1"
  width="87.9348mm" height="54.6862mm" viewBox="0.0000 0.0000 87.9348 54.6862">
<title>SVG Image created as RJ12-I2C-12V-Adapter.kicad_pcb_F.svg date 2024/04/05 21:18:55 </title>
  <desc>Image generated by PCBNEW </desc>
<g style="fill:#000000; fill-opacity:1.0000;stroke:#000000; stroke-opacity:1.0000;
stroke-linecap:round; stroke-linejoin:round;"
 transform="translate(0 0) scale(1 1)">
</g>
<g style="fill:#840084; fill-opacity:1.0000; stroke:none;">
<circle cx="31.6050" cy="13.9950" r="1.6000" /> 
</g>
<g style="fill:#840084; fill-opacity:1.0000; stroke:none;">
<circle cx="66.5300" cy="30.3550" r="1.6250" /> 
</g>
<g style="fill:#840084; fill-opacity:1.0000; stroke:none;">
<circle cx="76.6900" cy="30.3550" r="1.6250" /> 
<path style="fill:#840084; fill-opacity:1.0000; stroke:none;fill-rule:evenodd;"
d="M 67.6800,22.2250
67.6800,20.7050
69.2000,20.7050
69.2000,22.2250
Z" /> 
</g>
<g style="fill:#840084; fill-opacity:1.0000; stroke:none;">
<circle cx="69.7100" cy="24.0050" r="0.7600" /> 
</g>
<g style="fill:#840084; fill-opacity:1.0000; stroke:none;">
<circle cx="70.9800" cy="21.4650" r="0.7600" /> 
</g>
<g style="fill:#840084; fill-opacity:1.0000; stroke:none;">
<circle cx="72.2500" cy="24.0050" r="0.7600" /> 
</g>
<g style="fill:#840084; fill-opacity:1.0000; stroke:none;">
<circle cx="73.5200" cy="21.4650" r="0.7600" /> 
</g>
<g style="fill:#840084; fill-opacity:1.0000; stroke:none;">
<circle cx="74.7900" cy="24.0050" r="0.7600" /> 
</g>
<g style="fill:#840084; fill-opacity:1.0000; stroke:none;">
<circle cx="61.9250" cy="41.3000" r="1.6000" /> 
</g>
<g style="fill:#840084; fill-opacity:1.0000; stroke:none;">
<circle cx="76.6900" cy="8.4300" r="1.6250" /> 
</g>
<g style="fill:#840084; fill-opacity:1.0000; stroke:none;">
<circle cx="66.5300" cy="8.4300" r="1.6250" /> 
<path style="fill:#840084; fill-opacity:1.0000; stroke:none;fill-rule:evenodd;"
d="M 75.5400,16.5600
75.5400,18.0800
74.0200,18.0800
74.0200,16.5600
Z" /> 
</g>
<g style="fill:#840084; fill-opacity:1.0000; stroke:none;">
<circle cx="73.5100" cy="14.7800" r="0.7600" /> 
</g>
<g style="fill:#840084; fill-opacity:1.0000; stroke:none;">
<circle cx="72.2400" cy="17.3200" r="0.7600" /> 
</g>
<g style="fill:#840084; fill-opacity:1.0000; stroke:none;">
<circle cx="70.9700" cy="14.7800" r="0.7600" /> 
</g>
<g style="fill:#840084; fill-opacity:1.0000; stroke:none;">
<circle cx="69.7000" cy="17.3200" r="0.7600" /> 
</g>
<g style="fill:#840084; fill-opacity:1.0000; stroke:none;">
<circle cx="68.4300" cy="14.7800" r="0.7600" /> 
<path style="fill:#840084; fill-opacity:1.0000; stroke:none;fill-rule:evenodd;"
d="M 57.4250,35.1650
57.4250,33.4650
59.1250,33.4650
59.1250,35.1650
Z" /> 
</g>
<g style="fill:#840084; fill-opacity:1.0000; stroke:none;">
<circle cx="55.7350" cy="34.3150" r="0.8500" /> 
<circle cx="58.2750" cy="31.7750" r="0.8500" /> 
<circle cx="55.7350" cy="31.7750" r="0.8500" /> 
<path style="fill:#840084; fill-opacity:1.0000; stroke:none;fill-rule:evenodd;"
d="M 57.4250,26.2850
57.4250,24.5850
59.1250,24.5850
59.1250,26.2850
Z" /> 
<circle cx="55.7350" cy="25.4350" r="0.8500" /> 
<circle cx="58.2750" cy="22.8950" r="0.8500" /> 
<circle cx="55.7350" cy="22.8950" r="0.8500" /> 
<circle cx="58.2750" cy="20.3550" r="0.8500" /> 
<circle cx="55.7350" cy="20.3550" r="0.8500" /> 
<circle cx="58.2750" cy="17.8150" r="0.8500" /> 
<circle cx="55.7350" cy="17.8150" r="0.8500" /> 
</g>
<g style="fill:none; 
stroke:#008484; stroke-width:0.1500; stroke-opacity:1; 
stroke-linecap:round; stroke-linejoin:round;">
<text x="60.1800" y="34.8250"
textLength="3.2976" font-size="1.3333" lengthAdjust="spacingAndGlyphs"
text-anchor="start" opacity="0">GND</text>
<g class="stroked-text"><desc>GND</desc>
<path d="M61.0406 33.8274
L60.9453 33.7798
" />
<path d="M60.9453 33.7798
L60.8025 33.7798
" />
<path d="M60.8025 33.7798
L60.6596 33.8274
" />
<path d="M60.6596 33.8274
L60.5644 33.9227
" />
<path d="M60.5644 33.9227
L60.5168 34.0179
" />
<path d="M60.5168 34.0179
L60.4692 34.2084
" />
<path d="M60.4692 34.2084
L60.4692 34.3512
" />
<path d="M60.4692 34.3512
L60.5168 34.5417
" />
<path d="M60.5168 34.5417
L60.5644 34.6370
" />
<path d="M60.5644 34.6370
L60.6596 34.7322
" />
<path d="M60.6596 34.7322
L60.8025 34.7798
" />
<path d="M60.8025 34.7798
L60.8977 34.7798
" />
<path d="M60.8977 34.7798
L61.0406 34.7322
" />
<path d="M61.0406 34.7322
L61.0882 34.6846
" />
<path d="M61.0882 34.6846
L61.0882 34.3512
" />
<path d="M61.0882 34.3512
L60.8977 34.3512
" />
<path d="M61.5168 34.7798
L61.5168 33.7798
" />
<path d="M61.5168 33.7798
L62.0882 34.7798
" />
<path d="M62.0882 34.7798
L62.0882 33.7798
" />
<path d="M62.5644 34.7798
L62.5644 33.7798
" />
<path d="M62.5644 33.7798
L62.8025 33.7798
" />
<path d="M62.8025 33.7798
L62.9453 33.8274
" />
<path d="M62.9453 33.8274
L63.0406 33.9227
" />
<path d="M63.0406 33.9227
L63.0882 34.0179
" />
<path d="M63.0882 34.0179
L63.1358 34.2084
" />
<path d="M63.1358 34.2084
L63.1358 34.3512
" />
<path d="M63.1358 34.3512
L63.0882 34.5417
" />
<path d="M63.0882 34.5417
L63.0406 34.6370
" />
<path d="M63.0406 34.6370
L62.9453 34.7322
" />
<path d="M62.9453 34.7322
L62.8025 34.7798
" />
<path d="M62.8025 34.7798
L62.5644 34.7798
" />
</g><text x="60.1900" y="25.9350"
textLength="3.2976" font-size="1.3333" lengthAdjust="spacingAndGlyphs"
text-anchor="start" opacity="0">GND</text>
<g class="stroked-text"><desc>GND</desc>
<path d="M61.0506 24.9374
L60.9553 24.8898
" />
<path d="M60.9553 24.8898
L60.8125 24.8898
" />
<path d="M60.8125 24.8898
L60.6696 24.9374
" />
<path d="M60.6696 24.9374
L60.5744 25.0327
" />
<path d="M60.5744 25.0327
L60.5268 25.1279
" />
<path d="M60.5268 25.1279
L60.4792 25.3184
" />
<path d="M60.4792 25.3184
L60.4792 25.4612
" />
<path d="M60.4792 25.4612
L60.5268 25.6517
" />
<path d="M60.5268 25.6517
L60.5744 25.7470
" />
<path d="M60.5744 25.7470
L60.6696 25.8422
" />
<path d="M60.6696 25.8422
L60.8125 25.8898
" />
<path d="M60.8125 25.8898
L60.9077 25.8898
" />
<path d="M60.9077 25.8898
L61.0506 25.8422
" />
<path d="M61.0506 25.8422
L61.0982 25.7946
" />
<path d="M61.0982 25.7946
L61.0982 25.4612
" />
<path d="M61.0982 25.4612
L60.9077 25.4612
" />
<path d="M61.5268 25.8898
L61.5268 24.8898
" />
<path d="M61.5268 24.8898
L62.0982 25.8898
" />
<path d="M62.0982 25.8898
L62.0982 24.8898
" />
<path d="M62.5744 25.8898
L62.5744 24.8898
" />
<path d="M62.5744 24.8898
L62.8125 24.8898
" />
<path d="M62.8125 24.8898
L62.9553 24.9374
" />
<path d="M62.9553 24.9374
L63.0506 25.0327
" />
<path d="M63.0506 25.0327
L63.0982 25.1279
" />
<path d="M63.0982 25.1279
L63.1458 25.3184
" />
<path d="M63.1458 25.3184
L63.1458 25.4612
" />
<path d="M63.1458 25.4612
L63.0982 25.6517
" />
<path d="M63.0982 25.6517
L63.0506 25.7470
" />
<path d="M63.0506 25.7470
L62.9553 25.8422
" />
<path d="M62.9553 25.8422
L62.8125 25.8898
" />
<path d="M62.8125 25.8898
L62.5744 25.8898
" />
</g><text x="60.1900" y="23.3950"
textLength="3.2976" font-size="1.3333" lengthAdjust="spacingAndGlyphs"
text-anchor="start" opacity="0">+5V</text>
<g class="stroked-text"><desc>+5V</desc>
<path d="M60.5268 22.9689
L61.2887 22.9689
" />
<path d="M60.9077 23.3498
L60.9077 22.5879
" />
<path d="M62.2411 22.3498
L61.7649 22.3498
" />
<path d="M61.7649 22.3498
L61.7173 22.8260
" />
<path d="M61.7173 22.8260
L61.7649 22.7784
" />
<path d="M61.7649 22.7784
L61.8601 22.7308
" />
<path d="M61.8601 22.7308
L62.0982 22.7308
" />
<path d="M62.0982 22.7308
L62.1934 22.7784
" />
<path d="M62.1934 22.7784
L62.2411 22.8260
" />
<path d="M62.2411 22.8260
L62.2887 22.9212
" />
<path d="M62.2887 22.9212
L62.2887 23.1593
" />
<path d="M62.2887 23.1593
L62.2411 23.2546
" />
<path d="M62.2411 23.2546
L62.1934 23.3022
" />
<path d="M62.1934 23.3022
L62.0982 23.3498
" />
<path d="M62.0982 23.3498
L61.8601 23.3498
" />
<path d="M61.8601 23.3498
L61.7649 23.3022
" />
<path d="M61.7649 23.3022
L61.7173 23.2546
" />
<path d="M62.5744 22.3498
L62.9077 23.3498
" />
<path d="M62.9077 23.3498
L63.2411 22.3498
" />
</g><text x="60.1900" y="18.3150"
textLength="3.0595" font-size="1.3333" lengthAdjust="spacingAndGlyphs"
text-anchor="start" opacity="0">SDA</text>
<g class="stroked-text"><desc>SDA</desc>
<path d="M60.4792 18.2222
L60.6220 18.2698
" />
<path d="M60.6220 18.2698
L60.8601 18.2698
" />
<path d="M60.8601 18.2698
L60.9553 18.2222
" />
<path d="M60.9553 18.2222
L61.0030 18.1746
" />
<path d="M61.0030 18.1746
L61.0506 18.0793
" />
<path d="M61.0506 18.0793
L61.0506 17.9841
" />
<path d="M61.0506 17.9841
L61.0030 17.8889
" />
<path d="M61.0030 17.8889
L60.9553 17.8412
" />
<path d="M60.9553 17.8412
L60.8601 17.7936
" />
<path d="M60.8601 17.7936
L60.6696 17.7460
" />
<path d="M60.6696 17.7460
L60.5744 17.6984
" />
<path d="M60.5744 17.6984
L60.5268 17.6508
" />
<path d="M60.5268 17.6508
L60.4792 17.5555
" />
<path d="M60.4792 17.5555
L60.4792 17.4603
" />
<path d="M60.4792 17.4603
L60.5268 17.3651
" />
<path d="M60.5268 17.3651
L60.5744 17.3174
" />
<path d="M60.5744 17.3174
L60.6696 17.2698
" />
<path d="M60.6696 17.2698
L60.9077 17.2698
" />
<path d="M60.9077 17.2698
L61.0506 17.3174
" />
<path d="M61.4792 18.2698
L61.4792 17.2698
" />
<path d="M61.4792 17.2698
L61.7173 17.2698
" />
<path d="M61.7173 17.2698
L61.8601 17.3174
" />
<path d="M61.8601 17.3174
L61.9553 17.4127
" />
<path d="M61.9553 17.4127
L62.0030 17.5079
" />
<path d="M62.0030 17.5079
L62.0506 17.6984
" />
<path d="M62.0506 17.6984
L62.0506 17.8412
" />
<path d="M62.0506 17.8412
L62.0030 18.0317
" />
<path d="M62.0030 18.0317
L61.9553 18.1270
" />
<path d="M61.9553 18.1270
L61.8601 18.2222
" />
<path d="M61.8601 18.2222
L61.7173 18.2698
" />
<path d="M61.7173 18.2698
L61.4792 18.2698
" />
<path d="M62.4315 17.9841
L62.9077 17.9841
" />
<path d="M62.3363 18.2698
L62.6696 17.2698
" />
<path d="M62.6696 17.2698
L63.0030 18.2698
" />
</g><text x="60.1900" y="20.8550"
textLength="3.0119" font-size="1.3333" lengthAdjust="spacingAndGlyphs"
text-anchor="start" opacity="0">SCL</text>
<g class="stroked-text"><desc>SCL</desc>
<path d="M60.4792 20.7622
L60.6220 20.8098
" />
<path d="M60.6220 20.8098
L60.8601 20.8098
" />
<path d="M60.8601 20.8098
L60.9553 20.7622
" />
<path d="M60.9553 20.7622
L61.0030 20.7146
" />
<path d="M61.0030 20.7146
L61.0506 20.6193
" />
<path d="M61.0506 20.6193
L61.0506 20.5241
" />
<path d="M61.0506 20.5241
L61.0030 20.4289
" />
<path d="M61.0030 20.4289
L60.9553 20.3812
" />
<path d="M60.9553 20.3812
L60.8601 20.3336
" />
<path d="M60.8601 20.3336
L60.6696 20.2860
" />
<path d="M60.6696 20.2860
L60.5744 20.2384
" />
<path d="M60.5744 20.2384
L60.5268 20.1908
" />
<path d="M60.5268 20.1908
L60.4792 20.0955
" />
<path d="M60.4792 20.0955
L60.4792 20.0003
" />
<path d="M60.4792 20.0003
L60.5268 19.9051
" />
<path d="M60.5268 19.9051
L60.5744 19.8574
" />
<path d="M60.5744 19.8574
L60.6696 19.8098
" />
<path d="M60.6696 19.8098
L60.9077 19.8098
" />
<path d="M60.9077 19.8098
L61.0506 19.8574
" />
<path d="M62.0506 20.7146
L62.0030 20.7622
" />
<path d="M62.0030 20.7622
L61.8601 20.8098
" />
<path d="M61.8601 20.8098
L61.7649 20.8098
" />
<path d="M61.7649 20.8098
L61.6220 20.7622
" />
<path d="M61.6220 20.7622
L61.5268 20.6670
" />
<path d="M61.5268 20.6670
L61.4792 20.5717
" />
<path d="M61.4792 20.5717
L61.4315 20.3812
" />
<path d="M61.4315 20.3812
L61.4315 20.2384
" />
<path d="M61.4315 20.2384
L61.4792 20.0479
" />
<path d="M61.4792 20.0479
L61.5268 19.9527
" />
<path d="M61.5268 19.9527
L61.6220 19.8574
" />
<path d="M61.6220 19.8574
L61.7649 19.8098
" />
<path d="M61.7649 19.8098
L61.8601 19.8098
" />
<path d="M61.8601 19.8098
L62.0030 19.8574
" />
<path d="M62.0030 19.8574
L62.0506 19.9051
" />
<path d="M62.9553 20.8098
L62.4792 20.8098
" />
<path d="M62.4792 20.8098
L62.4792 19.8098
" />
</g><text x="55.1000" y="37.4900"
textLength="4.8214" font-size="1.3333" lengthAdjust="spacingAndGlyphs"
text-anchor="start" opacity="0">Relais</text>
<g class="stroked-text"><desc>Relais</desc>
<path d="M56.0082 37.3598
L55.6749 36.8836
" />
<path d="M55.4368 37.3598
L55.4368 36.3598
" />
<path d="M55.4368 36.3598
L55.8177 36.3598
" />
<path d="M55.8177 36.3598
L55.9130 36.4074
" />
<path d="M55.9130 36.4074
L55.9606 36.4551
" />
<path d="M55.9606 36.4551
L56.0082 36.5503
" />
<path d="M56.0082 36.5503
L56.0082 36.6932
" />
<path d="M56.0082 36.6932
L55.9606 36.7884
" />
<path d="M55.9606 36.7884
L55.9130 36.8360
" />
<path d="M55.9130 36.8360
L55.8177 36.8836
" />
<path d="M55.8177 36.8836
L55.4368 36.8836
" />
<path d="M56.8177 37.3122
L56.7225 37.3598
" />
<path d="M56.7225 37.3598
L56.5320 37.3598
" />
<path d="M56.5320 37.3598
L56.4368 37.3122
" />
<path d="M56.4368 37.3122
L56.3892 37.2170
" />
<path d="M56.3892 37.2170
L56.3892 36.8360
" />
<path d="M56.3892 36.8360
L56.4368 36.7408
" />
<path d="M56.4368 36.7408
L56.5320 36.6932
" />
<path d="M56.5320 36.6932
L56.7225 36.6932
" />
<path d="M56.7225 36.6932
L56.8177 36.7408
" />
<path d="M56.8177 36.7408
L56.8653 36.8360
" />
<path d="M56.8653 36.8360
L56.8653 36.9312
" />
<path d="M56.8653 36.9312
L56.3892 37.0265
" />
<path d="M57.4368 37.3598
L57.3415 37.3122
" />
<path d="M57.3415 37.3122
L57.2939 37.2170
" />
<path d="M57.2939 37.2170
L57.2939 36.3598
" />
<path d="M58.2463 37.3598
L58.2463 36.8360
" />
<path d="M58.2463 36.8360
L58.1987 36.7408
" />
<path d="M58.1987 36.7408
L58.1034 36.6932
" />
<path d="M58.1034 36.6932
L57.9130 36.6932
" />
<path d="M57.9130 36.6932
L57.8177 36.7408
" />
<path d="M58.2463 37.3122
L58.1511 37.3598
" />
<path d="M58.1511 37.3598
L57.9130 37.3598
" />
<path d="M57.9130 37.3598
L57.8177 37.3122
" />
<path d="M57.8177 37.3122
L57.7701 37.2170
" />
<path d="M57.7701 37.2170
L57.7701 37.1217
" />
<path d="M57.7701 37.1217
L57.8177 37.0265
" />
<path d="M57.8177 37.0265
L57.9130 36.9789
" />
<path d="M57.9130 36.9789
L58.1511 36.9789
" />
<path d="M58.1511 36.9789
L58.2463 36.9312
" />
<path d="M58.7225 37.3598
L58.7225 36.6932
" />
<path d="M58.7225 36.3598
L58.6749 36.4074
" />
<path d="M58.6749 36.4074
L58.7225 36.4551
" />
<path d="M58.7225 36.4551
L58.7701 36.4074
" />
<path d="M58.7701 36.4074
L58.7225 36.3598
" />
<path d="M58.7225 36.3598
L58.7225 36.4551
" />
<path d="M59.1511 37.3122
L59.2463 37.3598
" />
<path d="M59.2463 37.3598
L59.4368 37.3598
" />
<path d="M59.4368 37.3598
L59.5320 37.3122
" />
<path d="M59.5320 37.3122
L59.5796 37.2170
" />
<path d="M59.5796 37.2170
L59.5796 37.1693
" />
<path d="M59.5796 37.1693
L59.5320 37.0741
" />
<path d="M59.5320 37.0741
L59.4368 37.0265
" />
<path d="M59.4368 37.0265
L59.2939 37.0265
" />
<path d="M59.2939 37.0265
L59.1987 36.9789
" />
<path d="M59.1987 36.9789
L59.1511 36.8836
" />
<path d="M59.1511 36.8836
L59.1511 36.8360
" />
<path d="M59.1511 36.8360
L59.1987 36.7408
" />
<path d="M59.1987 36.7408
L59.2939 36.6932
" />
<path d="M59.2939 36.6932
L59.4368 36.6932
" />
<path d="M59.4368 36.6932
L59.5320 36.7408
" />
</g></g>
<g style="fill:none; 
stroke:#008484; stroke-width:0.2400; stroke-opacity:1; 
stroke-linecap:round; stroke-linejoin:round;">
<text x="65.8950" y="45.0750"
textLength="21.9657" font-size="1.6000" lengthAdjust="spacingAndGlyphs"
text-anchor="middle" opacity="0">I²C-RJ12-Adapter v1.0</text>
<g class="stroked-text"><desc>I²C-RJ12-Adapter v1.0</desc>
<path d="M55.4379 45.0177
L55.4379 43.8177
" />
<path d="M55.9521 43.5319
L56.0664 43.4748
" />
<path d="M56.0664 43.4748
L56.2379 43.4748
" />
<path d="M56.2379 43.4748
L56.3521 43.5319
" />
<path d="M56.3521 43.5319
L56.4093 43.6462
" />
<path d="M56.4093 43.6462
L56.4093 43.7605
" />
<path d="M56.4093 43.7605
L56.3521 43.8748
" />
<path d="M56.3521 43.8748
L55.9521 44.2748
" />
<path d="M55.9521 44.2748
L56.4093 44.2748
" />
<path d="M57.6093 44.9034
L57.5521 44.9605
" />
<path d="M57.5521 44.9605
L57.3807 45.0177
" />
<path d="M57.3807 45.0177
L57.2664 45.0177
" />
<path d="M57.2664 45.0177
L57.0950 44.9605
" />
<path d="M57.0950 44.9605
L56.9807 44.8462
" />
<path d="M56.9807 44.8462
L56.9236 44.7319
" />
<path d="M56.9236 44.7319
L56.8664 44.5034
" />
<path d="M56.8664 44.5034
L56.8664 44.3319
" />
<path d="M56.8664 44.3319
L56.9236 44.1034
" />
<path d="M56.9236 44.1034
L56.9807 43.9891
" />
<path d="M56.9807 43.9891
L57.0950 43.8748
" />
<path d="M57.0950 43.8748
L57.2664 43.8177
" />
<path d="M57.2664 43.8177
L57.3807 43.8177
" />
<path d="M57.3807 43.8177
L57.5521 43.8748
" />
<path d="M57.5521 43.8748
L57.6093 43.9319
" />
<path d="M58.1236 44.5605
L59.0379 44.5605
" />
<path d="M60.2950 45.0177
L59.8950 44.4462
" />
<path d="M59.6093 45.0177
L59.6093 43.8177
" />
<path d="M59.6093 43.8177
L60.0664 43.8177
" />
<path d="M60.0664 43.8177
L60.1807 43.8748
" />
<path d="M60.1807 43.8748
L60.2379 43.9319
" />
<path d="M60.2379 43.9319
L60.2950 44.0462
" />
<path d="M60.2950 44.0462
L60.2950 44.2177
" />
<path d="M60.2950 44.2177
L60.2379 44.3319
" />
<path d="M60.2379 44.3319
L60.1807 44.3891
" />
<path d="M60.1807 44.3891
L60.0664 44.4462
" />
<path d="M60.0664 44.4462
L59.6093 44.4462
" />
<path d="M61.1521 43.8177
L61.1521 44.6748
" />
<path d="M61.1521 44.6748
L61.0950 44.8462
" />
<path d="M61.0950 44.8462
L60.9807 44.9605
" />
<path d="M60.9807 44.9605
L60.8093 45.0177
" />
<path d="M60.8093 45.0177
L60.6950 45.0177
" />
<path d="M62.3521 45.0177
L61.6664 45.0177
" />
<path d="M62.0093 45.0177
L62.0093 43.8177
" />
<path d="M62.0093 43.8177
L61.8950 43.9891
" />
<path d="M61.8950 43.9891
L61.7807 44.1034
" />
<path d="M61.7807 44.1034
L61.6664 44.1605
" />
<path d="M62.8093 43.9319
L62.8664 43.8748
" />
<path d="M62.8664 43.8748
L62.9807 43.8177
" />
<path d="M62.9807 43.8177
L63.2664 43.8177
" />
<path d="M63.2664 43.8177
L63.3807 43.8748
" />
<path d="M63.3807 43.8748
L63.4379 43.9319
" />
<path d="M63.4379 43.9319
L63.4950 44.0462
" />
<path d="M63.4950 44.0462
L63.4950 44.1605
" />
<path d="M63.4950 44.1605
L63.4379 44.3319
" />
<path d="M63.4379 44.3319
L62.7521 45.0177
" />
<path d="M62.7521 45.0177
L63.4950 45.0177
" />
<path d="M64.0093 44.5605
L64.9236 44.5605
" />
<path d="M65.4379 44.6748
L66.0093 44.6748
" />
<path d="M65.3236 45.0177
L65.7236 43.8177
" />
<path d="M65.7236 43.8177
L66.1236 45.0177
" />
<path d="M67.0379 45.0177
L67.0379 43.8177
" />
<path d="M67.0379 44.9605
L66.9236 45.0177
" />
<path d="M66.9236 45.0177
L66.6950 45.0177
" />
<path d="M66.6950 45.0177
L66.5807 44.9605
" />
<path d="M66.5807 44.9605
L66.5236 44.9034
" />
<path d="M66.5236 44.9034
L66.4664 44.7891
" />
<path d="M66.4664 44.7891
L66.4664 44.4462
" />
<path d="M66.4664 44.4462
L66.5236 44.3319
" />
<path d="M66.5236 44.3319
L66.5807 44.2748
" />
<path d="M66.5807 44.2748
L66.6950 44.2177
" />
<path d="M66.6950 44.2177
L66.9236 44.2177
" />
<path d="M66.9236 44.2177
L67.0379 44.2748
" />
<path d="M68.1236 45.0177
L68.1236 44.3891
" />
<path d="M68.1236 44.3891
L68.0664 44.2748
" />
<path d="M68.0664 44.2748
L67.9521 44.2177
" />
<path d="M67.9521 44.2177
L67.7236 44.2177
" />
<path d="M67.7236 44.2177
L67.6093 44.2748
" />
<path d="M68.1236 44.9605
L68.0093 45.0177
" />
<path d="M68.0093 45.0177
L67.7236 45.0177
" />
<path d="M67.7236 45.0177
L67.6093 44.9605
" />
<path d="M67.6093 44.9605
L67.5521 44.8462
" />
<path d="M67.5521 44.8462
L67.5521 44.7319
" />
<path d="M67.5521 44.7319
L67.6093 44.6177
" />
<path d="M67.6093 44.6177
L67.7236 44.5605
" />
<path d="M67.7236 44.5605
L68.0093 44.5605
" />
<path d="M68.0093 44.5605
L68.1236 44.5034
" />
<path d="M68.6950 44.2177
L68.6950 45.4177
" />
<path d="M68.6950 44.2748
L68.8093 44.2177
" />
<path d="M68.8093 44.2177
L69.0379 44.2177
" />
<path d="M69.0379 44.2177
L69.1521 44.2748
" />
<path d="M69.1521 44.2748
L69.2093 44.3319
" />
<path d="M69.2093 44.3319
L69.2664 44.4462
" />
<path d="M69.2664 44.4462
L69.2664 44.7891
" />
<path d="M69.2664 44.7891
L69.2093 44.9034
" />
<path d="M69.2093 44.9034
L69.1521 44.9605
" />
<path d="M69.1521 44.9605
L69.0379 45.0177
" />
<path d="M69.0379 45.0177
L68.8093 45.0177
" />
<path d="M68.8093 45.0177
L68.6950 44.9605
" />
<path d="M69.6093 44.2177
L70.0664 44.2177
" />
<path d="M69.7807 43.8177
L69.7807 44.8462
" />
<path d="M69.7807 44.8462
L69.8379 44.9605
" />
<path d="M69.8379 44.9605
L69.9521 45.0177
" />
<path d="M69.9521 45.0177
L70.0664 45.0177
" />
<path d="M70.9236 44.9605
L70.8093 45.0177
" />
<path d="M70.8093 45.0177
L70.5807 45.0177
" />
<path d="M70.5807 45.0177
L70.4664 44.9605
" />
<path d="M70.4664 44.9605
L70.4093 44.8462
" />
<path d="M70.4093 44.8462
L70.4093 44.3891
" />
<path d="M70.4093 44.3891
L70.4664 44.2748
" />
<path d="M70.4664 44.2748
L70.5807 44.2177
" />
<path d="M70.5807 44.2177
L70.8093 44.2177
" />
<path d="M70.8093 44.2177
L70.9236 44.2748
" />
<path d="M70.9236 44.2748
L70.9807 44.3891
" />
<path d="M70.9807 44.3891
L70.9807 44.5034
" />
<path d="M70.9807 44.5034
L70.4093 44.6177
" />
<path d="M71.4950 45.0177
L71.4950 44.2177
" />
<path d="M71.4950 44.4462
L71.5521 44.3319
" />
<path d="M71.5521 44.3319
L71.6093 44.2748
" />
<path d="M71.6093 44.2748
L71.7236 44.2177
" />
<path d="M71.7236 44.2177
L71.8379 44.2177
" />
<path d="M73.0379 44.2177
L73.3236 45.0177
" />
<path d="M73.3236 45.0177
L73.6093 44.2177
" />
<path d="M74.6950 45.0177
L74.0093 45.0177
" />
<path d="M74.3521 45.0177
L74.3521 43.8177
" />
<path d="M74.3521 43.8177
L74.2379 43.9891
" />
<path d="M74.2379 43.9891
L74.1236 44.1034
" />
<path d="M74.1236 44.1034
L74.0093 44.1605
" />
<path d="M75.2093 44.9034
L75.2664 44.9605
" />
<path d="M75.2664 44.9605
L75.2093 45.0177
" />
<path d="M75.2093 45.0177
L75.1521 44.9605
" />
<path d="M75.1521 44.9605
L75.2093 44.9034
" />
<path d="M75.2093 44.9034
L75.2093 45.0177
" />
<path d="M76.0093 43.8177
L76.1236 43.8177
" />
<path d="M76.1236 43.8177
L76.2379 43.8748
" />
<path d="M76.2379 43.8748
L76.2950 43.9319
" />
<path d="M76.2950 43.9319
L76.3521 44.0462
" />
<path d="M76.3521 44.0462
L76.4093 44.2748
" />
<path d="M76.4093 44.2748
L76.4093 44.5605
" />
<path d="M76.4093 44.5605
L76.3521 44.7891
" />
<path d="M76.3521 44.7891
L76.2950 44.9034
" />
<path d="M76.2950 44.9034
L76.2379 44.9605
" />
<path d="M76.2379 44.9605
L76.1236 45.0177
" />
<path d="M76.1236 45.0177
L76.0093 45.0177
" />
<path d="M76.0093 45.0177
L75.8950 44.9605
" />
<path d="M75.8950 44.9605
L75.8379 44.9034
" />
<path d="M75.8379 44.9034
L75.7807 44.7891
" />
<path d="M75.7807 44.7891
L75.7236 44.5605
" />
<path d="M75.7236 44.5605
L75.7236 44.2748
" />
<path d="M75.7236 44.2748
L75.7807 44.0462
" />
<path d="M75.7807 44.0462
L75.8379 43.9319
" />
<path d="M75.8379 43.9319
L75.8950 43.8748
" />
<path d="M75.8950 43.8748
L76.0093 43.8177
" />
</g></g>
<g style="fill:none; 
stroke:#008484; stroke-width:0.1500; stroke-opacity:1; 
stroke-linecap:round; stroke-linejoin:round;">
<text x="66.7700" y="19.8050"
textLength="1.9643" font-size="1.3333" lengthAdjust="spacingAndGlyphs"
text-anchor="middle" opacity="0">J2</text>
<g class="stroked-text"><desc>J2</desc>
<path d="M66.4367 18.7598
L66.4367 19.4741
" />
<path d="M66.4367 19.4741
L66.3890 19.6170
" />
<path d="M66.3890 19.6170
L66.2938 19.7122
" />
<path d="M66.2938 19.7122
L66.1510 19.7598
" />
<path d="M66.1510 19.7598
L66.0557 19.7598
" />
<path d="M66.8652 18.8551
L66.9129 18.8074
" />
<path d="M66.9129 18.8074
L67.0081 18.7598
" />
<path d="M67.0081 18.7598
L67.2462 18.7598
" />
<path d="M67.2462 18.7598
L67.3414 18.8074
" />
<path d="M67.3414 18.8074
L67.3890 18.8551
" />
<path d="M67.3890 18.8551
L67.4367 18.9503
" />
<path d="M67.4367 18.9503
L67.4367 19.0455
" />
<path d="M67.4367 19.0455
L67.3890 19.1884
" />
<path d="M67.3890 19.1884
L66.8176 19.7598
" />
<path d="M66.8176 19.7598
L67.4367 19.7598
" />
</g></g>
<g style="fill:none; 
stroke:#008484; stroke-width:0.2400; stroke-opacity:1; 
stroke-linecap:round; stroke-linejoin:round;">
<g transform="rotate(-90.000000 61.4500 8.9150)">
<text x="61.4500" y="9.5150"
textLength="16.7086" font-size="1.6000" lengthAdjust="spacingAndGlyphs"
text-anchor="middle" opacity="0">©H3-H5N6 2024</text>
</g>
<g class="stroked-text"><desc>©H3-H5N6 2024</desc>
<path d="M61.0784 15.7721
L61.0212 15.8864
" />
<path d="M61.0212 15.8864
L61.0212 16.1150
" />
<path d="M61.0212 16.1150
L61.0784 16.2293
" />
<path d="M61.0784 16.2293
L61.1927 16.3436
" />
<path d="M61.1927 16.3436
L61.3069 16.4007
" />
<path d="M61.3069 16.4007
L61.5355 16.4007
" />
<path d="M61.5355 16.4007
L61.6498 16.3436
" />
<path d="M61.6498 16.3436
L61.7641 16.2293
" />
<path d="M61.7641 16.2293
L61.8212 16.1150
" />
<path d="M61.8212 16.1150
L61.8212 15.8864
" />
<path d="M61.8212 15.8864
L61.7641 15.7721
" />
<path d="M60.6212 16.0007
L60.6784 16.2864
" />
<path d="M60.6784 16.2864
L60.8498 16.5721
" />
<path d="M60.8498 16.5721
L61.1355 16.7436
" />
<path d="M61.1355 16.7436
L61.4212 16.8007
" />
<path d="M61.4212 16.8007
L61.7069 16.7436
" />
<path d="M61.7069 16.7436
L61.9927 16.5721
" />
<path d="M61.9927 16.5721
L62.1641 16.2864
" />
<path d="M62.1641 16.2864
L62.2212 16.0007
" />
<path d="M62.2212 16.0007
L62.1641 15.7150
" />
<path d="M62.1641 15.7150
L61.9927 15.4293
" />
<path d="M61.9927 15.4293
L61.7069 15.2579
" />
<path d="M61.7069 15.2579
L61.4212 15.2007
" />
<path d="M61.4212 15.2007
L61.1355 15.2579
" />
<path d="M61.1355 15.2579
L60.8498 15.4293
" />
<path d="M60.8498 15.4293
L60.6784 15.7150
" />
<path d="M60.6784 15.7150
L60.6212 16.0007
" />
<path d="M61.9927 14.6864
L60.7927 14.6864
" />
<path d="M61.3641 14.6864
L61.3641 14.0007
" />
<path d="M61.9927 14.0007
L60.7927 14.0007
" />
<path d="M60.7927 13.5436
L60.7927 12.8007
" />
<path d="M60.7927 12.8007
L61.2498 13.2007
" />
<path d="M61.2498 13.2007
L61.2498 13.0293
" />
<path d="M61.2498 13.0293
L61.3069 12.9150
" />
<path d="M61.3069 12.9150
L61.3641 12.8579
" />
<path d="M61.3641 12.8579
L61.4784 12.8007
" />
<path d="M61.4784 12.8007
L61.7641 12.8007
" />
<path d="M61.7641 12.8007
L61.8784 12.8579
" />
<path d="M61.8784 12.8579
L61.9355 12.9150
" />
<path d="M61.9355 12.9150
L61.9927 13.0293
" />
<path d="M61.9927 13.0293
L61.9927 13.3721
" />
<path d="M61.9927 13.3721
L61.9355 13.4864
" />
<path d="M61.9355 13.4864
L61.8784 13.5436
" />
<path d="M61.5355 12.2864
L61.5355 11.3721
" />
<path d="M61.9927 10.8007
L60.7927 10.8007
" />
<path d="M61.3641 10.8007
L61.3641 10.1150
" />
<path d="M61.9927 10.1150
L60.7927 10.1150
" />
<path d="M60.7927 8.9721
L60.7927 9.5436
" />
<path d="M60.7927 9.5436
L61.3641 9.6007
" />
<path d="M61.3641 9.6007
L61.3069 9.5436
" />
<path d="M61.3069 9.5436
L61.2498 9.4293
" />
<path d="M61.2498 9.4293
L61.2498 9.1436
" />
<path d="M61.2498 9.1436
L61.3069 9.0293
" />
<path d="M61.3069 9.0293
L61.3641 8.9721
" />
<path d="M61.3641 8.9721
L61.4784 8.9150
" />
<path d="M61.4784 8.9150
L61.7641 8.9150
" />
<path d="M61.7641 8.9150
L61.8784 8.9721
" />
<path d="M61.8784 8.9721
L61.9355 9.0293
" />
<path d="M61.9355 9.0293
L61.9927 9.1436
" />
<path d="M61.9927 9.1436
L61.9927 9.4293
" />
<path d="M61.9927 9.4293
L61.9355 9.5436
" />
<path d="M61.9355 9.5436
L61.8784 9.6007
" />
<path d="M61.9927 8.4007
L60.7927 8.4007
" />
<path d="M60.7927 8.4007
L61.9927 7.7150
" />
<path d="M61.9927 7.7150
L60.7927 7.7150
" />
<path d="M60.7927 6.6293
L60.7927 6.8579
" />
<path d="M60.7927 6.8579
L60.8498 6.9721
" />
<path d="M60.8498 6.9721
L60.9069 7.0293
" />
<path d="M60.9069 7.0293
L61.0784 7.1436
" />
<path d="M61.0784 7.1436
L61.3069 7.2007
" />
<path d="M61.3069 7.2007
L61.7641 7.2007
" />
<path d="M61.7641 7.2007
L61.8784 7.1436
" />
<path d="M61.8784 7.1436
L61.9355 7.0864
" />
<path d="M61.9355 7.0864
L61.9927 6.9721
" />
<path d="M61.9927 6.9721
L61.9927 6.7436
" />
<path d="M61.9927 6.7436
L61.9355 6.6293
" />
<path d="M61.9355 6.6293
L61.8784 6.5721
" />
<path d="M61.8784 6.5721
L61.7641 6.5150
" />
<path d="M61.7641 6.5150
L61.4784 6.5150
" />
<path d="M61.4784 6.5150
L61.3641 6.5721
" />
<path d="M61.3641 6.5721
L61.3069 6.6293
" />
<path d="M61.3069 6.6293
L61.2498 6.7436
" />
<path d="M61.2498 6.7436
L61.2498 6.9721
" />
<path d="M61.2498 6.9721
L61.3069 7.0864
" />
<path d="M61.3069 7.0864
L61.3641 7.1436
" />
<path d="M61.3641 7.1436
L61.4784 7.2007
" />
<path d="M60.9069 5.1436
L60.8498 5.0864
" />
<path d="M60.8498 5.0864
L60.7927 4.9721
" />
<path d="M60.7927 4.9721
L60.7927 4.6864
" />
<path d="M60.7927 4.6864
L60.8498 4.5721
" />
<path d="M60.8498 4.5721
L60.9069 4.5150
" />
<path d="M60.9069 4.5150
L61.0212 4.4579
" />
<path d="M61.0212 4.4579
L61.1355 4.4579
" />
<path d="M61.1355 4.4579
L61.3069 4.5150
" />
<path d="M61.3069 4.5150
L61.9927 5.2007
" />
<path d="M61.9927 5.2007
L61.9927 4.4579
" />
<path d="M60.7927 3.7150
L60.7927 3.6007
" />
<path d="M60.7927 3.6007
L60.8498 3.4864
" />
<path d="M60.8498 3.4864
L60.9069 3.4293
" />
<path d="M60.9069 3.4293
L61.0212 3.3721
" />
<path d="M61.0212 3.3721
L61.2498 3.3150
" />
<path d="M61.2498 3.3150
L61.5355 3.3150
" />
<path d="M61.5355 3.3150
L61.7641 3.3721
" />
<path d="M61.7641 3.3721
L61.8784 3.4293
" />
<path d="M61.8784 3.4293
L61.9355 3.4864
" />
<path d="M61.9355 3.4864
L61.9927 3.6007
" />
<path d="M61.9927 3.6007
L61.9927 3.7150
" />
<path d="M61.9927 3.7150
L61.9355 3.8293
" />
<path d="M61.9355 3.8293
L61.8784 3.8864
" />
<path d="M61.8784 3.8864
L61.7641 3.9436
" />
<path d="M61.7641 3.9436
L61.5355 4.0007
" />
<path d="M61.5355 4.0007
L61.2498 4.0007
" />
<path d="M61.2498 4.0007
L61.0212 3.9436
" />
<path d="M61.0212 3.9436
L60.9069 3.8864
" />
<path d="M60.9069 3.8864
L60.8498 3.8293
" />
<path d="M60.8498 3.8293
L60.7927 3.7150
" />
<path d="M60.9069 2.8579
L60.8498 2.8007
" />
<path d="M60.8498 2.8007
L60.7927 2.6864
" />
<path d="M60.7927 2.6864
L60.7927 2.4007
" />
<path d="M60.7927 2.4007
L60.8498 2.2864
" />
<path d="M60.8498 2.2864
L60.9069 2.2293
" />
<path d="M60.9069 2.2293
L61.0212 2.1721
" />
<path d="M61.0212 2.1721
L61.1355 2.1721
" />
<path d="M61.1355 2.1721
L61.3069 2.2293
" />
<path d="M61.3069 2.2293
L61.9927 2.9150
" />
<path d="M61.9927 2.9150
L61.9927 2.1721
" />
<path d="M61.1927 1.1436
L61.9927 1.1436
" />
<path d="M60.7355 1.4293
L61.5927 1.7150
" />
<path d="M61.5927 1.7150
L61.5927 0.9721
" />
</g></g>
<g style="fill:none; 
stroke:#008484; stroke-width:0.1200; stroke-opacity:1; 
stroke-linecap:round; stroke-linejoin:round;">
<path d="M64.5400 22.2350
L64.5400 20.7050
" />
<path d="M65.0100 20.2350
L78.2100 20.2350
" />
</g>
<g style="fill:none; 
stroke:#008484; stroke-width:0.1000; stroke-opacity:1; 
stroke-linecap:round; stroke-linejoin:round;">
<path d="M65.0100 29.1850
L65.0100 29.2550
" />
</g>
<g style="fill:none; 
stroke:#008484; stroke-width:0.1200; stroke-opacity:1; 
stroke-linecap:round; stroke-linejoin:round;">
<path d="M65.0100 29.2550
L65.0100 20.2350
" />
<path d="M65.0100 38.2350
L65.0100 34.1650
" />
<path d="M67.1700 38.2350
L65.0100 38.2350
" />
<path d="M78.2100 20.2350
L78.2100 29.2550
" />
</g>
<g style="fill:none; 
stroke:#008484; stroke-width:0.1000; stroke-opacity:1; 
stroke-linecap:round; stroke-linejoin:round;">
<path d="M78.2100 38.1150
L78.2100 38.2350
" />
<path d="M78.2100 38.2250
L78.2100 38.2350
" />
</g>
<g style="fill:none; 
stroke:#008484; stroke-width:0.1200; stroke-opacity:1; 
stroke-linecap:round; stroke-linejoin:round;">
<path d="M78.2100 38.2350
L76.0600 38.2350
" />
<path d="M78.2100 38.2350
L78.2100 34.1650
" />
<path d="M65.0100 0.5500
L65.0100 4.6200
" />
<path d="M65.0100 0.5500
L67.1600 0.5500
" />
</g>
<g style="fill:none; 
stroke:#008484; stroke-width:0.1000; stroke-opacity:1; 
stroke-linecap:round; stroke-linejoin:round;">
<path d="M65.0100 0.5600
L65.0100 0.5500
" />
<path d="M65.0100 0.6700
L65.0100 0.5500
" />
</g>
<g style="fill:none; 
stroke:#008484; stroke-width:0.1200; stroke-opacity:1; 
stroke-linecap:round; stroke-linejoin:round;">
<path d="M65.0100 18.5500
L65.0100 9.5300
" />
<path d="M76.0500 0.5500
L78.2100 0.5500
" />
<path d="M78.2100 0.5500
L78.2100 4.6200
" />
<path d="M78.2100 9.5300
L78.2100 18.5500
" />
</g>
<g style="fill:none; 
stroke:#008484; stroke-width:0.1000; stroke-opacity:1; 
stroke-linecap:round; stroke-linejoin:round;">
<path d="M78.2100 9.6000
L78.2100 9.5300
" />
</g>
<g style="fill:none; 
stroke:#008484; stroke-width:0.1200; stroke-opacity:1; 
stroke-linecap:round; stroke-linejoin:round;">
<path d="M78.2100 18.5500
L65.0100 18.5500
" />
<path d="M78.6800 16.5500
L78.6800 18.0800
" />
</g>
<g style="fill:none; 
stroke:#C2C2C2; stroke-width:0.1500; stroke-opacity:1; 
stroke-linecap:round; stroke-linejoin:round;">
<text x="68.7525" y="52.0800"
textLength="7.0119" font-size="1.3333" lengthAdjust="spacingAndGlyphs"
text-anchor="middle" opacity="0">29.8 mm</text>
<g class="stroked-text"><desc>29.8 mm</desc>
<path d="M65.5620 51.1301
L65.6096 51.0824
" />
<path d="M65.6096 51.0824
L65.7049 51.0348
" />
<path d="M65.7049 51.0348
L65.9430 51.0348
" />
<path d="M65.9430 51.0348
L66.0382 51.0824
" />
<path d="M66.0382 51.0824
L66.0858 51.1301
" />
<path d="M66.0858 51.1301
L66.1335 51.2253
" />
<path d="M66.1335 51.2253
L66.1335 51.3205
" />
<path d="M66.1335 51.3205
L66.0858 51.4634
" />
<path d="M66.0858 51.4634
L65.5144 52.0348
" />
<path d="M65.5144 52.0348
L66.1335 52.0348
" />
<path d="M66.6096 52.0348
L66.8001 52.0348
" />
<path d="M66.8001 52.0348
L66.8954 51.9872
" />
<path d="M66.8954 51.9872
L66.9430 51.9396
" />
<path d="M66.9430 51.9396
L67.0382 51.7967
" />
<path d="M67.0382 51.7967
L67.0858 51.6062
" />
<path d="M67.0858 51.6062
L67.0858 51.2253
" />
<path d="M67.0858 51.2253
L67.0382 51.1301
" />
<path d="M67.0382 51.1301
L66.9906 51.0824
" />
<path d="M66.9906 51.0824
L66.8954 51.0348
" />
<path d="M66.8954 51.0348
L66.7049 51.0348
" />
<path d="M66.7049 51.0348
L66.6096 51.0824
" />
<path d="M66.6096 51.0824
L66.5620 51.1301
" />
<path d="M66.5620 51.1301
L66.5144 51.2253
" />
<path d="M66.5144 51.2253
L66.5144 51.4634
" />
<path d="M66.5144 51.4634
L66.5620 51.5586
" />
<path d="M66.5620 51.5586
L66.6096 51.6062
" />
<path d="M66.6096 51.6062
L66.7049 51.6539
" />
<path d="M66.7049 51.6539
L66.8954 51.6539
" />
<path d="M66.8954 51.6539
L66.9906 51.6062
" />
<path d="M66.9906 51.6062
L67.0382 51.5586
" />
<path d="M67.0382 51.5586
L67.0858 51.4634
" />
<path d="M67.5144 51.9396
L67.5620 51.9872
" />
<path d="M67.5620 51.9872
L67.5144 52.0348
" />
<path d="M67.5144 52.0348
L67.4668 51.9872
" />
<path d="M67.4668 51.9872
L67.5144 51.9396
" />
<path d="M67.5144 51.9396
L67.5144 52.0348
" />
<path d="M68.1335 51.4634
L68.0382 51.4158
" />
<path d="M68.0382 51.4158
L67.9906 51.3682
" />
<path d="M67.9906 51.3682
L67.9430 51.2729
" />
<path d="M67.9430 51.2729
L67.9430 51.2253
" />
<path d="M67.9430 51.2253
L67.9906 51.1301
" />
<path d="M67.9906 51.1301
L68.0382 51.0824
" />
<path d="M68.0382 51.0824
L68.1335 51.0348
" />
<path d="M68.1335 51.0348
L68.3239 51.0348
" />
<path d="M68.3239 51.0348
L68.4192 51.0824
" />
<path d="M68.4192 51.0824
L68.4668 51.1301
" />
<path d="M68.4668 51.1301
L68.5144 51.2253
" />
<path d="M68.5144 51.2253
L68.5144 51.2729
" />
<path d="M68.5144 51.2729
L68.4668 51.3682
" />
<path d="M68.4668 51.3682
L68.4192 51.4158
" />
<path d="M68.4192 51.4158
L68.3239 51.4634
" />
<path d="M68.3239 51.4634
L68.1335 51.4634
" />
<path d="M68.1335 51.4634
L68.0382 51.5110
" />
<path d="M68.0382 51.5110
L67.9906 51.5586
" />
<path d="M67.9906 51.5586
L67.9430 51.6539
" />
<path d="M67.9430 51.6539
L67.9430 51.8443
" />
<path d="M67.9430 51.8443
L67.9906 51.9396
" />
<path d="M67.9906 51.9396
L68.0382 51.9872
" />
<path d="M68.0382 51.9872
L68.1335 52.0348
" />
<path d="M68.1335 52.0348
L68.3239 52.0348
" />
<path d="M68.3239 52.0348
L68.4192 51.9872
" />
<path d="M68.4192 51.9872
L68.4668 51.9396
" />
<path d="M68.4668 51.9396
L68.5144 51.8443
" />
<path d="M68.5144 51.8443
L68.5144 51.6539
" />
<path d="M68.5144 51.6539
L68.4668 51.5586
" />
<path d="M68.4668 51.5586
L68.4192 51.5110
" />
<path d="M68.4192 51.5110
L68.3239 51.4634
" />
<path d="M69.7049 52.0348
L69.7049 51.3682
" />
<path d="M69.7049 51.4634
L69.7525 51.4158
" />
<path d="M69.7525 51.4158
L69.8477 51.3682
" />
<path d="M69.8477 51.3682
L69.9906 51.3682
" />
<path d="M69.9906 51.3682
L70.0858 51.4158
" />
<path d="M70.0858 51.4158
L70.1335 51.5110
" />
<path d="M70.1335 51.5110
L70.1335 52.0348
" />
<path d="M70.1335 51.5110
L70.1811 51.4158
" />
<path d="M70.1811 51.4158
L70.2763 51.3682
" />
<path d="M70.2763 51.3682
L70.4192 51.3682
" />
<path d="M70.4192 51.3682
L70.5144 51.4158
" />
<path d="M70.5144 51.4158
L70.5620 51.5110
" />
<path d="M70.5620 51.5110
L70.5620 52.0348
" />
<path d="M71.0382 52.0348
L71.0382 51.3682
" />
<path d="M71.0382 51.4634
L71.0858 51.4158
" />
<path d="M71.0858 51.4158
L71.1811 51.3682
" />
<path d="M71.1811 51.3682
L71.3239 51.3682
" />
<path d="M71.3239 51.3682
L71.4192 51.4158
" />
<path d="M71.4192 51.4158
L71.4668 51.5110
" />
<path d="M71.4668 51.5110
L71.4668 52.0348
" />
<path d="M71.4668 51.5110
L71.5144 51.4158
" />
<path d="M71.5144 51.4158
L71.6096 51.3682
" />
<path d="M71.6096 51.3682
L71.7525 51.3682
" />
<path d="M71.7525 51.3682
L71.8477 51.4158
" />
<path d="M71.8477 51.4158
L71.8954 51.5110
" />
<path d="M71.8954 51.5110
L71.8954 52.0348
" />
</g></g>
<g style="fill:none; 
stroke:#C2C2C2; stroke-width:0.0500; stroke-opacity:1; 
stroke-linecap:round; stroke-linejoin:round;">
<path d="M53.8300 46.2450
L53.8300 53.3164
" />
<path d="M83.6750 46.2450
L83.6750 53.3164
" />
<path d="M53.8300 52.7300
L83.6750 52.7300
" />
<path d="M53.8300 52.7300
L83.6750 52.7300
" />
<path d="M53.8300 52.7300
L54.9565 52.1436
" />
<path d="M53.8300 52.7300
L54.9565 53.3164
" />
<path d="M83.6750 52.7300
L82.5485 53.3164
" />
<path d="M83.6750 52.7300
L82.5485 52.1436
" />
</g>
<g style="fill:none; 
stroke:#C2C2C2; stroke-width:0.1500; stroke-opacity:1; 
stroke-linecap:round; stroke-linejoin:round;">
<g transform="rotate(-90.000000 48.2350 8.9150)">
<text x="48.2350" y="9.4150"
textLength="9.8690" font-size="1.3333" lengthAdjust="spacingAndGlyphs"
text-anchor="middle" opacity="0">17.7800 mm</text>
</g>
<g class="stroked-text"><desc>17.7800 mm</desc>
<path d="M48.6898 12.9626
L48.6898 13.5340
" />
<path d="M48.6898 13.2483
L47.6898 13.2483
" />
<path d="M47.6898 13.2483
L47.8327 13.3436
" />
<path d="M47.8327 13.3436
L47.9279 13.4388
" />
<path d="M47.9279 13.4388
L47.9755 13.5340
" />
<path d="M47.6898 12.6293
L47.6898 11.9626
" />
<path d="M47.6898 11.9626
L48.6898 12.3912
" />
<path d="M48.5946 11.5817
L48.6422 11.5340
" />
<path d="M48.6422 11.5340
L48.6898 11.5817
" />
<path d="M48.6898 11.5817
L48.6422 11.6293
" />
<path d="M48.6422 11.6293
L48.5946 11.5817
" />
<path d="M48.5946 11.5817
L48.6898 11.5817
" />
<path d="M47.6898 11.2007
L47.6898 10.5340
" />
<path d="M47.6898 10.5340
L48.6898 10.9626
" />
<path d="M48.1184 10.0102
L48.0708 10.1055
" />
<path d="M48.0708 10.1055
L48.0232 10.1531
" />
<path d="M48.0232 10.1531
L47.9279 10.2007
" />
<path d="M47.9279 10.2007
L47.8803 10.2007
" />
<path d="M47.8803 10.2007
L47.7851 10.1531
" />
<path d="M47.7851 10.1531
L47.7374 10.1055
" />
<path d="M47.7374 10.1055
L47.6898 10.0102
" />
<path d="M47.6898 10.0102
L47.6898 9.8198
" />
<path d="M47.6898 9.8198
L47.7374 9.7245
" />
<path d="M47.7374 9.7245
L47.7851 9.6769
" />
<path d="M47.7851 9.6769
L47.8803 9.6293
" />
<path d="M47.8803 9.6293
L47.9279 9.6293
" />
<path d="M47.9279 9.6293
L48.0232 9.6769
" />
<path d="M48.0232 9.6769
L48.0708 9.7245
" />
<path d="M48.0708 9.7245
L48.1184 9.8198
" />
<path d="M48.1184 9.8198
L48.1184 10.0102
" />
<path d="M48.1184 10.0102
L48.1660 10.1055
" />
<path d="M48.1660 10.1055
L48.2136 10.1531
" />
<path d="M48.2136 10.1531
L48.3089 10.2007
" />
<path d="M48.3089 10.2007
L48.4993 10.2007
" />
<path d="M48.4993 10.2007
L48.5946 10.1531
" />
<path d="M48.5946 10.1531
L48.6422 10.1055
" />
<path d="M48.6422 10.1055
L48.6898 10.0102
" />
<path d="M48.6898 10.0102
L48.6898 9.8198
" />
<path d="M48.6898 9.8198
L48.6422 9.7245
" />
<path d="M48.6422 9.7245
L48.5946 9.6769
" />
<path d="M48.5946 9.6769
L48.4993 9.6293
" />
<path d="M48.4993 9.6293
L48.3089 9.6293
" />
<path d="M48.3089 9.6293
L48.2136 9.6769
" />
<path d="M48.2136 9.6769
L48.1660 9.7245
" />
<path d="M48.1660 9.7245
L48.1184 9.8198
" />
<path d="M47.6898 9.0102
L47.6898 8.9150
" />
<path d="M47.6898 8.9150
L47.7374 8.8198
" />
<path d="M47.7374 8.8198
L47.7851 8.7721
" />
<path d="M47.7851 8.7721
L47.8803 8.7245
" />
<path d="M47.8803 8.7245
L48.0708 8.6769
" />
<path d="M48.0708 8.6769
L48.3089 8.6769
" />
<path d="M48.3089 8.6769
L48.4993 8.7245
" />
<path d="M48.4993 8.7245
L48.5946 8.7721
" />
<path d="M48.5946 8.7721
L48.6422 8.8198
" />
<path d="M48.6422 8.8198
L48.6898 8.9150
" />
<path d="M48.6898 8.9150
L48.6898 9.0102
" />
<path d="M48.6898 9.0102
L48.6422 9.1055
" />
<path d="M48.6422 9.1055
L48.5946 9.1531
" />
<path d="M48.5946 9.1531
L48.4993 9.2007
" />
<path d="M48.4993 9.2007
L48.3089 9.2483
" />
<path d="M48.3089 9.2483
L48.0708 9.2483
" />
<path d="M48.0708 9.2483
L47.8803 9.2007
" />
<path d="M47.8803 9.2007
L47.7851 9.1531
" />
<path d="M47.7851 9.1531
L47.7374 9.1055
" />
<path d="M47.7374 9.1055
L47.6898 9.0102
" />
<path d="M47.6898 8.0579
L47.6898 7.9626
" />
<path d="M47.6898 7.9626
L47.7374 7.8674
" />
<path d="M47.7374 7.8674
L47.7851 7.8198
" />
<path d="M47.7851 7.8198
L47.8803 7.7721
" />
<path d="M47.8803 7.7721
L48.0708 7.7245
" />
<path d="M48.0708 7.7245
L48.3089 7.7245
" />
<path d="M48.3089 7.7245
L48.4993 7.7721
" />
<path d="M48.4993 7.7721
L48.5946 7.8198
" />
<path d="M48.5946 7.8198
L48.6422 7.8674
" />
<path d="M48.6422 7.8674
L48.6898 7.9626
" />
<path d="M48.6898 7.9626
L48.6898 8.0579
" />
<path d="M48.6898 8.0579
L48.6422 8.1531
" />
<path d="M48.6422 8.1531
L48.5946 8.2007
" />
<path d="M48.5946 8.2007
L48.4993 8.2483
" />
<path d="M48.4993 8.2483
L48.3089 8.2960
" />
<path d="M48.3089 8.2960
L48.0708 8.2960
" />
<path d="M48.0708 8.2960
L47.8803 8.2483
" />
<path d="M47.8803 8.2483
L47.7851 8.2007
" />
<path d="M47.7851 8.2007
L47.7374 8.1531
" />
<path d="M47.7374 8.1531
L47.6898 8.0579
" />
<path d="M48.6898 6.5340
L48.0232 6.5340
" />
<path d="M48.1184 6.5340
L48.0708 6.4864
" />
<path d="M48.0708 6.4864
L48.0232 6.3912
" />
<path d="M48.0232 6.3912
L48.0232 6.2483
" />
<path d="M48.0232 6.2483
L48.0708 6.1531
" />
<path d="M48.0708 6.1531
L48.1660 6.1055
" />
<path d="M48.1660 6.1055
L48.6898 6.1055
" />
<path d="M48.1660 6.1055
L48.0708 6.0579
" />
<path d="M48.0708 6.0579
L48.0232 5.9626
" />
<path d="M48.0232 5.9626
L48.0232 5.8198
" />
<path d="M48.0232 5.8198
L48.0708 5.7245
" />
<path d="M48.0708 5.7245
L48.1660 5.6769
" />
<path d="M48.1660 5.6769
L48.6898 5.6769
" />
<path d="M48.6898 5.2007
L48.0232 5.2007
" />
<path d="M48.1184 5.2007
L48.0708 5.1531
" />
<path d="M48.0708 5.1531
L48.0232 5.0579
" />
<path d="M48.0232 5.0579
L48.0232 4.9150
" />
<path d="M48.0232 4.9150
L48.0708 4.8198
" />
<path d="M48.0708 4.8198
L48.1660 4.7721
" />
<path d="M48.1660 4.7721
L48.6898 4.7721
" />
<path d="M48.1660 4.7721
L48.0708 4.7245
" />
<path d="M48.0708 4.7245
L48.0232 4.6293
" />
<path d="M48.0232 4.6293
L48.0232 4.4864
" />
<path d="M48.0232 4.4864
L48.0708 4.3912
" />
<path d="M48.0708 4.3912
L48.1660 4.3436
" />
<path d="M48.1660 4.3436
L48.6898 4.3436
" />
</g></g>
<g style="fill:none; 
stroke:#C2C2C2; stroke-width:0.0500; stroke-opacity:1; 
stroke-linecap:round; stroke-linejoin:round;">
<path d="M55.2350 17.8050
L48.7986 17.8050
" />
<path d="M55.2350 0.0250
L48.7986 0.0250
" />
<path d="M49.3850 17.8050
L49.3850 0.0250
" />
<path d="M49.3850 17.8050
L49.3850 0.0250
" />
<path d="M49.3850 17.8050
L48.7986 16.6785
" />
<path d="M49.3850 17.8050
L49.9714 16.6785
" />
<path d="M49.3850 0.0250
L49.9714 1.1515
" />
<path d="M49.3850 0.0250
L48.7986 1.1515
" />
</g>
<g style="fill:none; 
stroke:#C2C2C2; stroke-width:0.1500; stroke-opacity:1; 
stroke-linecap:round; stroke-linejoin:round;">
<g transform="rotate(-90.000000 84.4300 22.8850)">
<text x="84.4300" y="23.3850"
textLength="7.0119" font-size="1.3333" lengthAdjust="spacingAndGlyphs"
text-anchor="middle" opacity="0">45.7 mm</text>
</g>
<g class="stroked-text"><desc>45.7 mm</desc>
<path d="M84.2182 25.5993
L84.8848 25.5993
" />
<path d="M83.8372 25.8374
L84.5515 26.0755
" />
<path d="M84.5515 26.0755
L84.5515 25.4564
" />
<path d="M83.8848 24.5993
L83.8848 25.0755
" />
<path d="M83.8848 25.0755
L84.3610 25.1231
" />
<path d="M84.3610 25.1231
L84.3134 25.0755
" />
<path d="M84.3134 25.0755
L84.2658 24.9802
" />
<path d="M84.2658 24.9802
L84.2658 24.7421
" />
<path d="M84.2658 24.7421
L84.3134 24.6469
" />
<path d="M84.3134 24.6469
L84.3610 24.5993
" />
<path d="M84.3610 24.5993
L84.4562 24.5517
" />
<path d="M84.4562 24.5517
L84.6943 24.5517
" />
<path d="M84.6943 24.5517
L84.7896 24.5993
" />
<path d="M84.7896 24.5993
L84.8372 24.6469
" />
<path d="M84.8372 24.6469
L84.8848 24.7421
" />
<path d="M84.8848 24.7421
L84.8848 24.9802
" />
<path d="M84.8848 24.9802
L84.8372 25.0755
" />
<path d="M84.8372 25.0755
L84.7896 25.1231
" />
<path d="M84.7896 24.1231
L84.8372 24.0755
" />
<path d="M84.8372 24.0755
L84.8848 24.1231
" />
<path d="M84.8848 24.1231
L84.8372 24.1707
" />
<path d="M84.8372 24.1707
L84.7896 24.1231
" />
<path d="M84.7896 24.1231
L84.8848 24.1231
" />
<path d="M83.8848 23.7421
L83.8848 23.0755
" />
<path d="M83.8848 23.0755
L84.8848 23.5040
" />
<path d="M84.8848 21.9326
L84.2182 21.9326
" />
<path d="M84.3134 21.9326
L84.2658 21.8850
" />
<path d="M84.2658 21.8850
L84.2182 21.7898
" />
<path d="M84.2182 21.7898
L84.2182 21.6469
" />
<path d="M84.2182 21.6469
L84.2658 21.5517
" />
<path d="M84.2658 21.5517
L84.3610 21.5040
" />
<path d="M84.3610 21.5040
L84.8848 21.5040
" />
<path d="M84.3610 21.5040
L84.2658 21.4564
" />
<path d="M84.2658 21.4564
L84.2182 21.3612
" />
<path d="M84.2182 21.3612
L84.2182 21.2183
" />
<path d="M84.2182 21.2183
L84.2658 21.1231
" />
<path d="M84.2658 21.1231
L84.3610 21.0755
" />
<path d="M84.3610 21.0755
L84.8848 21.0755
" />
<path d="M84.8848 20.5993
L84.2182 20.5993
" />
<path d="M84.3134 20.5993
L84.2658 20.5517
" />
<path d="M84.2658 20.5517
L84.2182 20.4564
" />
<path d="M84.2182 20.4564
L84.2182 20.3136
" />
<path d="M84.2182 20.3136
L84.2658 20.2183
" />
<path d="M84.2658 20.2183
L84.3610 20.1707
" />
<path d="M84.3610 20.1707
L84.8848 20.1707
" />
<path d="M84.3610 20.1707
L84.2658 20.1231
" />
<path d="M84.2658 20.1231
L84.2182 20.0279
" />
<path d="M84.2182 20.0279
L84.2182 19.8850
" />
<path d="M84.2182 19.8850
L84.2658 19.7898
" />
<path d="M84.2658 19.7898
L84.3610 19.7421
" />
<path d="M84.3610 19.7421
L84.8848 19.7421
" />
</g></g>
<g style="fill:none; 
stroke:#C2C2C2; stroke-width:0.0500; stroke-opacity:1; 
stroke-linecap:round; stroke-linejoin:round;">
<path d="M79.7300 45.7450
L86.1664 45.7450
" />
<path d="M79.7300 0.0250
L86.1664 0.0250
" />
<path d="M85.5800 45.7450
L85.5800 0.0250
" />
<path d="M85.5800 45.7450
L85.5800 0.0250
" />
<path d="M85.5800 45.7450
L84.9936 44.6185
" />
<path d="M85.5800 45.7450
L86.1664 44.6185
" />
<path d="M85.5800 0.0250
L86.1664 1.1515
" />
<path d="M85.5800 0.0250
L84.9936 1.1515
" />
</g>
<g style="fill:none; 
stroke:#C2C2C2; stroke-width:0.1500; stroke-opacity:1; 
stroke-linecap:round; stroke-linejoin:round;">
<text x="54.7825" y="28.4650"
textLength="6.0595" font-size="1.3333" lengthAdjust="spacingAndGlyphs"
text-anchor="middle" opacity="0">1.9 mm</text>
<g class="stroked-text"><desc>1.9 mm</desc>
<path d="M52.6396 28.4198
L52.0682 28.4198
" />
<path d="M52.3539 28.4198
L52.3539 27.4198
" />
<path d="M52.3539 27.4198
L52.2587 27.5627
" />
<path d="M52.2587 27.5627
L52.1635 27.6579
" />
<path d="M52.1635 27.6579
L52.0682 27.7055
" />
<path d="M53.0682 28.3246
L53.1158 28.3722
" />
<path d="M53.1158 28.3722
L53.0682 28.4198
" />
<path d="M53.0682 28.4198
L53.0206 28.3722
" />
<path d="M53.0206 28.3722
L53.0682 28.3246
" />
<path d="M53.0682 28.3246
L53.0682 28.4198
" />
<path d="M53.5920 28.4198
L53.7825 28.4198
" />
<path d="M53.7825 28.4198
L53.8777 28.3722
" />
<path d="M53.8777 28.3722
L53.9254 28.3246
" />
<path d="M53.9254 28.3246
L54.0206 28.1817
" />
<path d="M54.0206 28.1817
L54.0682 27.9912
" />
<path d="M54.0682 27.9912
L54.0682 27.6103
" />
<path d="M54.0682 27.6103
L54.0206 27.5151
" />
<path d="M54.0206 27.5151
L53.9730 27.4674
" />
<path d="M53.9730 27.4674
L53.8777 27.4198
" />
<path d="M53.8777 27.4198
L53.6873 27.4198
" />
<path d="M53.6873 27.4198
L53.5920 27.4674
" />
<path d="M53.5920 27.4674
L53.5444 27.5151
" />
<path d="M53.5444 27.5151
L53.4968 27.6103
" />
<path d="M53.4968 27.6103
L53.4968 27.8484
" />
<path d="M53.4968 27.8484
L53.5444 27.9436
" />
<path d="M53.5444 27.9436
L53.5920 27.9912
" />
<path d="M53.5920 27.9912
L53.6873 28.0389
" />
<path d="M53.6873 28.0389
L53.8777 28.0389
" />
<path d="M53.8777 28.0389
L53.9730 27.9912
" />
<path d="M53.9730 27.9912
L54.0206 27.9436
" />
<path d="M54.0206 27.9436
L54.0682 27.8484
" />
<path d="M55.2587 28.4198
L55.2587 27.7532
" />
<path d="M55.2587 27.8484
L55.3063 27.8008
" />
<path d="M55.3063 27.8008
L55.4015 27.7532
" />
<path d="M55.4015 27.7532
L55.5444 27.7532
" />
<path d="M55.5444 27.7532
L55.6396 27.8008
" />
<path d="M55.6396 27.8008
L55.6873 27.8960
" />
<path d="M55.6873 27.8960
L55.6873 28.4198
" />
<path d="M55.6873 27.8960
L55.7349 27.8008
" />
<path d="M55.7349 27.8008
L55.8301 27.7532
" />
<path d="M55.8301 27.7532
L55.9730 27.7532
" />
<path d="M55.9730 27.7532
L56.0682 27.8008
" />
<path d="M56.0682 27.8008
L56.1158 27.8960
" />
<path d="M56.1158 27.8960
L56.1158 28.4198
" />
<path d="M56.5920 28.4198
L56.5920 27.7532
" />
<path d="M56.5920 27.8484
L56.6396 27.8008
" />
<path d="M56.6396 27.8008
L56.7349 27.7532
" />
<path d="M56.7349 27.7532
L56.8777 27.7532
" />
<path d="M56.8777 27.7532
L56.9730 27.8008
" />
<path d="M56.9730 27.8008
L57.0206 27.8960
" />
<path d="M57.0206 27.8960
L57.0206 28.4198
" />
<path d="M57.0206 27.8960
L57.0682 27.8008
" />
<path d="M57.0682 27.8008
L57.1635 27.7532
" />
<path d="M57.1635 27.7532
L57.3063 27.7532
" />
<path d="M57.3063 27.7532
L57.4015 27.8008
" />
<path d="M57.4015 27.8008
L57.4492 27.8960
" />
<path d="M57.4492 27.8960
L57.4492 28.4198
" />
</g></g>
<g style="fill:none; 
stroke:#C2C2C2; stroke-width:0.0500; stroke-opacity:1; 
stroke-linecap:round; stroke-linejoin:round;">
<path d="M55.7350 25.9250
L55.7350 28.5514
" />
<path d="M53.8300 25.9250
L53.8300 28.5514
" />
<path d="M55.7350 27.9650
L54.6085 28.5514
" />
<path d="M55.7350 27.9650
L54.6085 27.3786
" />
<path d="M53.8300 27.9650
L54.9565 27.3786
" />
<path d="M53.8300 27.9650
L54.9565 28.5514
" />
</g>
<g style="fill:none; 
stroke:#C2C2C2; stroke-width:0.1200; stroke-opacity:1; 
stroke-linecap:round; stroke-linejoin:round;">
<path d="M61.1960 51.8410
L75.1660 51.8410
" />
<path d="M61.1960 54.6350
L61.1960 51.8410
" />
<path d="M75.1660 54.6350
L61.1960 54.6350
" />
<path d="M75.1660 54.6350
L75.1660 51.8410
" />
</g>
<g style="fill:none; 
stroke:#C2C2C2; stroke-width:0.0500; stroke-opacity:1; 
stroke-linecap:round; stroke-linejoin:round;">
<circle cx="31.6050" cy="13.9950" r="3.4500" /> 
<path d="M64.4000 19.7350
L78.8200 19.7350
" />
<path d="M64.4000 38.7350
L64.4000 19.7350
" />
<path d="M78.8200 19.7350
L78.8200 38.7350
" />
<path d="M78.8200 38.7350
L64.4000 38.7350
" />
<circle cx="61.9250" cy="41.3000" r="3.4500" /> 
</g>
<g style="fill:none; 
stroke:#C2C2C2; stroke-width:0.1200; stroke-opacity:1; 
stroke-linecap:round; stroke-linejoin:round;">
<path d="M62.2120 29.1080
L62.2120 15.1380
" />
<path d="M65.0060 15.1380
L62.2120 15.1380
" />
<path d="M65.0060 15.1380
L65.0060 29.1080
" />
<path d="M65.0060 29.1080
L62.2120 29.1080
" />
</g>
<g style="fill:none; 
stroke:#C2C2C2; stroke-width:0.0500; stroke-opacity:1; 
stroke-linecap:round; stroke-linejoin:round;">
<path d="M64.4000 0.0500
L78.8200 0.0500
" />
<path d="M64.4000 19.0500
L64.4000 0.0500
" />
<path d="M78.8200 0.0500
L78.8200 19.0500
" />
<path d="M78.8200 19.0500
L64.4000 19.0500
" />
</g>
<g style="fill:none; 
stroke:#C2C200; stroke-width:0.0500; stroke-opacity:1; 
stroke-linecap:round; stroke-linejoin:round;">
<path d="M53.8300 10.8200
L57.0050 10.8200
" />
<path d="M57.0050 45.7450
L69.7050 45.7450
" />
<path d="M53.8300 45.7450
L57.0050 45.7450
" />
<path d="M79.2300 0.0250
L79.2300 45.7450
" />
<path d="M57.0050 0.0250
L64.6250 0.0250
" />
<path d="M57.0050 10.8200
L57.0050 0.0250
" />
<path d="M64.6250 0.0250
L79.2300 0.0250
" />
<path d="M53.8300 45.7450
L53.8300 10.8200
" />
<path d="M79.2300 45.7450
L69.7050 45.7450
" />
</g> 
</svg>
