<?xml version="1.0" standalone="no"?>
 <!DOCTYPE svg PUBLIC "-//W3C//DTD SVG 1.1//EN" 
 "http://www.w3.org/Graphics/SVG/1.1/DTD/svg11.dtd"> 
<svg
  xmlns:svg="http://www.w3.org/2000/svg"
  xmlns="http://www.w3.org/2000/svg"
  xmlns:xlink="http://www.w3.org/1999/xlink"
  version="1.1"
  width="297.0022mm" height="210.0072mm" viewBox="0.0000 0.0000 297.0022 210.0072">
<title>SVG Image created as RJ12-I2C-12V-Adapter.svg date 2024/04/05 21:55:10 </title>
  <desc>Image generated by Eeschema-SVG </desc>
<g style="fill:#000000; fill-opacity:1.0000;stroke:#000000; stroke-opacity:1.0000;
stroke-linecap:round; stroke-linejoin:round;"
 transform="translate(0 0) scale(1 1)">
</g>
<g style="fill:none; 
stroke:#000000; stroke-width:0.1524; stroke-opacity:1; 
stroke-linecap:round; stroke-linejoin:round;">
<rect x="77.470000" y="68.453000" width="1.270000" height="0.254000" rx="0.000000" />
<rect x="77.470000" y="70.993000" width="1.270000" height="0.254000" rx="0.000000" />
<rect x="77.470000" y="73.533000" width="1.270000" height="0.254000" rx="0.000000" />
<rect x="77.470000" y="76.073000" width="1.270000" height="0.254000" rx="0.000000" />
<rect x="77.470000" y="78.613000" width="1.270000" height="0.254000" rx="0.000000" />
<rect x="77.470000" y="81.153000" width="1.270000" height="0.254000" rx="0.000000" />
<rect x="77.470000" y="83.693000" width="1.270000" height="0.254000" rx="0.000000" />
<rect x="77.470000" y="86.233000" width="1.270000" height="0.254000" rx="0.000000" />
</g>
<g style="fill:none; 
stroke:#000000; stroke-width:0.2540; stroke-opacity:1; 
stroke-linecap:round; stroke-linejoin:round;">
<rect x="76.200000" y="67.310000" width="2.540000" height="20.320000" rx="0.000000" />
</g>
<g style="fill:none; 
stroke:#000000; stroke-width:0.1524; stroke-opacity:1; 
stroke-linecap:round; stroke-linejoin:round;">
<path d="M78.7400 86.3600
L82.5500 86.3600
" />
<text x="80.6450" y="86.1060"
textLength="1.4127" font-size="1.6933" lengthAdjust="spacingAndGlyphs"
text-anchor="middle" opacity="0">1</text>
<g class="stroked-text"><desc>1</desc>
<path d="M81.0079 85.9425
L80.2822 85.9425
" />
<path d="M80.6450 85.9425
L80.6450 84.6725
" />
<path d="M80.6450 84.6725
L80.5241 84.8540
" />
<path d="M80.5241 84.8540
L80.4031 84.9749
" />
<path d="M80.4031 84.9749
L80.2822 85.0354
" />
</g><path d="M78.7400 83.8200
L82.5500 83.8200
" />
<text x="80.6450" y="83.5660"
textLength="1.4127" font-size="1.6933" lengthAdjust="spacingAndGlyphs"
text-anchor="middle" opacity="0">2</text>
<g class="stroked-text"><desc>2</desc>
<path d="M80.2822 82.2535
L80.3426 82.1930
" />
<path d="M80.3426 82.1930
L80.4636 82.1325
" />
<path d="M80.4636 82.1325
L80.7660 82.1325
" />
<path d="M80.7660 82.1325
L80.8869 82.1930
" />
<path d="M80.8869 82.1930
L80.9474 82.2535
" />
<path d="M80.9474 82.2535
L81.0079 82.3744
" />
<path d="M81.0079 82.3744
L81.0079 82.4954
" />
<path d="M81.0079 82.4954
L80.9474 82.6768
" />
<path d="M80.9474 82.6768
L80.2217 83.4025
" />
<path d="M80.2217 83.4025
L81.0079 83.4025
" />
</g><path d="M78.7400 81.2800
L82.5500 81.2800
" />
<text x="80.6450" y="81.0260"
textLength="1.4127" font-size="1.6933" lengthAdjust="spacingAndGlyphs"
text-anchor="middle" opacity="0">3</text>
<g class="stroked-text"><desc>3</desc>
<path d="M80.2217 79.5925
L81.0079 79.5925
" />
<path d="M81.0079 79.5925
L80.5845 80.0763
" />
<path d="M80.5845 80.0763
L80.7660 80.0763
" />
<path d="M80.7660 80.0763
L80.8869 80.1368
" />
<path d="M80.8869 80.1368
L80.9474 80.1973
" />
<path d="M80.9474 80.1973
L81.0079 80.3182
" />
<path d="M81.0079 80.3182
L81.0079 80.6206
" />
<path d="M81.0079 80.6206
L80.9474 80.7416
" />
<path d="M80.9474 80.7416
L80.8869 80.8021
" />
<path d="M80.8869 80.8021
L80.7660 80.8625
" />
<path d="M80.7660 80.8625
L80.4031 80.8625
" />
<path d="M80.4031 80.8625
L80.2822 80.8021
" />
<path d="M80.2822 80.8021
L80.2217 80.7416
" />
</g><path d="M78.7400 78.7400
L82.5500 78.7400
" />
<text x="80.6450" y="78.4860"
textLength="1.4127" font-size="1.6933" lengthAdjust="spacingAndGlyphs"
text-anchor="middle" opacity="0">4</text>
<g class="stroked-text"><desc>4</desc>
<path d="M80.8869 77.4759
L80.8869 78.3225
" />
<path d="M80.5845 76.9921
L80.2822 77.8992
" />
<path d="M80.2822 77.8992
L81.0683 77.8992
" />
</g><path d="M78.7400 76.2000
L82.5500 76.2000
" />
<text x="80.6450" y="75.9460"
textLength="1.4127" font-size="1.6933" lengthAdjust="spacingAndGlyphs"
text-anchor="middle" opacity="0">5</text>
<g class="stroked-text"><desc>5</desc>
<path d="M80.9474 74.5125
L80.3426 74.5125
" />
<path d="M80.3426 74.5125
L80.2822 75.1173
" />
<path d="M80.2822 75.1173
L80.3426 75.0568
" />
<path d="M80.3426 75.0568
L80.4636 74.9963
" />
<path d="M80.4636 74.9963
L80.7660 74.9963
" />
<path d="M80.7660 74.9963
L80.8869 75.0568
" />
<path d="M80.8869 75.0568
L80.9474 75.1173
" />
<path d="M80.9474 75.1173
L81.0079 75.2382
" />
<path d="M81.0079 75.2382
L81.0079 75.5406
" />
<path d="M81.0079 75.5406
L80.9474 75.6616
" />
<path d="M80.9474 75.6616
L80.8869 75.7221
" />
<path d="M80.8869 75.7221
L80.7660 75.7825
" />
<path d="M80.7660 75.7825
L80.4636 75.7825
" />
<path d="M80.4636 75.7825
L80.3426 75.7221
" />
<path d="M80.3426 75.7221
L80.2822 75.6616
" />
</g><path d="M78.7400 73.6600
L82.5500 73.6600
" />
<text x="80.6450" y="73.4060"
textLength="1.4127" font-size="1.6933" lengthAdjust="spacingAndGlyphs"
text-anchor="middle" opacity="0">6</text>
<g class="stroked-text"><desc>6</desc>
<path d="M80.8869 71.9725
L80.6450 71.9725
" />
<path d="M80.6450 71.9725
L80.5241 72.0330
" />
<path d="M80.5241 72.0330
L80.4636 72.0935
" />
<path d="M80.4636 72.0935
L80.3426 72.2749
" />
<path d="M80.3426 72.2749
L80.2822 72.5168
" />
<path d="M80.2822 72.5168
L80.2822 73.0006
" />
<path d="M80.2822 73.0006
L80.3426 73.1216
" />
<path d="M80.3426 73.1216
L80.4031 73.1821
" />
<path d="M80.4031 73.1821
L80.5241 73.2425
" />
<path d="M80.5241 73.2425
L80.7660 73.2425
" />
<path d="M80.7660 73.2425
L80.8869 73.1821
" />
<path d="M80.8869 73.1821
L80.9474 73.1216
" />
<path d="M80.9474 73.1216
L81.0079 73.0006
" />
<path d="M81.0079 73.0006
L81.0079 72.6982
" />
<path d="M81.0079 72.6982
L80.9474 72.5773
" />
<path d="M80.9474 72.5773
L80.8869 72.5168
" />
<path d="M80.8869 72.5168
L80.7660 72.4563
" />
<path d="M80.7660 72.4563
L80.5241 72.4563
" />
<path d="M80.5241 72.4563
L80.4031 72.5168
" />
<path d="M80.4031 72.5168
L80.3426 72.5773
" />
<path d="M80.3426 72.5773
L80.2822 72.6982
" />
</g><path d="M78.7400 71.1200
L82.5500 71.1200
" />
<text x="80.6450" y="70.8660"
textLength="1.4127" font-size="1.6933" lengthAdjust="spacingAndGlyphs"
text-anchor="middle" opacity="0">7</text>
<g class="stroked-text"><desc>7</desc>
<path d="M80.2217 69.4325
L81.0683 69.4325
" />
<path d="M81.0683 69.4325
L80.5241 70.7025
" />
</g><path d="M78.7400 68.5800
L82.5500 68.5800
" />
<text x="80.6450" y="68.3260"
textLength="1.4127" font-size="1.6933" lengthAdjust="spacingAndGlyphs"
text-anchor="middle" opacity="0">8</text>
<g class="stroked-text"><desc>8</desc>
<path d="M80.5241 67.4368
L80.4031 67.3763
" />
<path d="M80.4031 67.3763
L80.3426 67.3159
" />
<path d="M80.3426 67.3159
L80.2822 67.1949
" />
<path d="M80.2822 67.1949
L80.2822 67.1344
" />
<path d="M80.2822 67.1344
L80.3426 67.0135
" />
<path d="M80.3426 67.0135
L80.4031 66.9530
" />
<path d="M80.4031 66.9530
L80.5241 66.8925
" />
<path d="M80.5241 66.8925
L80.7660 66.8925
" />
<path d="M80.7660 66.8925
L80.8869 66.9530
" />
<path d="M80.8869 66.9530
L80.9474 67.0135
" />
<path d="M80.9474 67.0135
L81.0079 67.1344
" />
<path d="M81.0079 67.1344
L81.0079 67.1949
" />
<path d="M81.0079 67.1949
L80.9474 67.3159
" />
<path d="M80.9474 67.3159
L80.8869 67.3763
" />
<path d="M80.8869 67.3763
L80.7660 67.4368
" />
<path d="M80.7660 67.4368
L80.5241 67.4368
" />
<path d="M80.5241 67.4368
L80.4031 67.4973
" />
<path d="M80.4031 67.4973
L80.3426 67.5578
" />
<path d="M80.3426 67.5578
L80.2822 67.6787
" />
<path d="M80.2822 67.6787
L80.2822 67.9206
" />
<path d="M80.2822 67.9206
L80.3426 68.0416
" />
<path d="M80.3426 68.0416
L80.4031 68.1021
" />
<path d="M80.4031 68.1021
L80.5241 68.1625
" />
<path d="M80.5241 68.1625
L80.7660 68.1625
" />
<path d="M80.7660 68.1625
L80.8869 68.1021
" />
<path d="M80.8869 68.1021
L80.9474 68.0416
" />
<path d="M80.9474 68.0416
L81.0079 67.9206
" />
<path d="M81.0079 67.9206
L81.0079 67.6787
" />
<path d="M81.0079 67.6787
L80.9474 67.5578
" />
<path d="M80.9474 67.5578
L80.8869 67.4973
" />
<path d="M80.8869 67.4973
L80.7660 67.4368
" />
</g><text x="77.4700" y="66.6749"
textLength="3.5898" font-size="1.6933" lengthAdjust="spacingAndGlyphs"
text-anchor="middle" opacity="0">J10</text>
<g class="stroked-text"><desc>J10</desc>
<path d="M76.4419 65.3494
L76.4419 66.2566
" />
<path d="M76.4419 66.2566
L76.3814 66.4380
" />
<path d="M76.3814 66.4380
L76.2605 66.5590
" />
<path d="M76.2605 66.5590
L76.0790 66.6194
" />
<path d="M76.0790 66.6194
L75.9581 66.6194
" />
<path d="M77.7119 66.6194
L76.9862 66.6194
" />
<path d="M77.3490 66.6194
L77.3490 65.3494
" />
<path d="M77.3490 65.3494
L77.2281 65.5309
" />
<path d="M77.2281 65.5309
L77.1071 65.6518
" />
<path d="M77.1071 65.6518
L76.9862 65.7123
" />
<path d="M78.4980 65.3494
L78.6190 65.3494
" />
<path d="M78.6190 65.3494
L78.7399 65.4099
" />
<path d="M78.7399 65.4099
L78.8004 65.4704
" />
<path d="M78.8004 65.4704
L78.8609 65.5913
" />
<path d="M78.8609 65.5913
L78.9214 65.8332
" />
<path d="M78.9214 65.8332
L78.9214 66.1356
" />
<path d="M78.9214 66.1356
L78.8609 66.3775
" />
<path d="M78.8609 66.3775
L78.8004 66.4985
" />
<path d="M78.8004 66.4985
L78.7399 66.5590
" />
<path d="M78.7399 66.5590
L78.6190 66.6194
" />
<path d="M78.6190 66.6194
L78.4980 66.6194
" />
<path d="M78.4980 66.6194
L78.3771 66.5590
" />
<path d="M78.3771 66.5590
L78.3166 66.4985
" />
<path d="M78.3166 66.4985
L78.2561 66.3775
" />
<path d="M78.2561 66.3775
L78.1957 66.1356
" />
<path d="M78.1957 66.1356
L78.1957 65.8332
" />
<path d="M78.1957 65.8332
L78.2561 65.5913
" />
<path d="M78.2561 65.5913
L78.3166 65.4704
" />
<path d="M78.3166 65.4704
L78.3771 65.4099
" />
<path d="M78.3771 65.4099
L78.4980 65.3494
" />
</g><text x="77.4700" y="89.5349"
textLength="3.0456" font-size="1.6933" lengthAdjust="spacingAndGlyphs"
text-anchor="middle" opacity="0">I²C</text>
<g class="stroked-text"><desc>I²C</desc>
<path d="M76.3511 89.4794
L76.3511 88.2094
" />
<path d="M76.8955 87.9070
L77.0164 87.8466
" />
<path d="M77.0164 87.8466
L77.1978 87.8466
" />
<path d="M77.1978 87.8466
L77.3188 87.9070
" />
<path d="M77.3188 87.9070
L77.3793 88.0280
" />
<path d="M77.3793 88.0280
L77.3793 88.1490
" />
<path d="M77.3793 88.1490
L77.3188 88.2699
" />
<path d="M77.3188 88.2699
L76.8955 88.6932
" />
<path d="M76.8955 88.6932
L77.3793 88.6932
" />
<path d="M78.6492 89.3585
L78.5888 89.4190
" />
<path d="M78.5888 89.4190
L78.4073 89.4794
" />
<path d="M78.4073 89.4794
L78.2864 89.4794
" />
<path d="M78.2864 89.4794
L78.1050 89.4190
" />
<path d="M78.1050 89.4190
L77.9840 89.2980
" />
<path d="M77.9840 89.2980
L77.9235 89.1770
" />
<path d="M77.9235 89.1770
L77.8631 88.9351
" />
<path d="M77.8631 88.9351
L77.8631 88.7537
" />
<path d="M77.8631 88.7537
L77.9235 88.5118
" />
<path d="M77.9235 88.5118
L77.9840 88.3909
" />
<path d="M77.9840 88.3909
L78.1050 88.2699
" />
<path d="M78.1050 88.2699
L78.2864 88.2094
" />
<path d="M78.2864 88.2094
L78.4073 88.2094
" />
<path d="M78.4073 88.2094
L78.5888 88.2699
" />
<path d="M78.5888 88.2699
L78.6492 88.3304
" />
</g><path style="fill:none; 
stroke:#000000; stroke-width:0.1524; stroke-opacity:1; 
stroke-linecap:round; stroke-linejoin:round;fill:none"
d="M 92.7100,87.6300
92.7100,88.9000
93.9800,88.9000
92.7100,90.1700
91.4400,88.9000
92.7100,88.9000
" /> 
<text x="92.7100" y="92.3981"
textLength="4.0737" font-size="1.6933" lengthAdjust="spacingAndGlyphs"
text-anchor="middle" opacity="0">GND</text>
<g class="stroked-text"><desc>GND</desc>
<path d="M91.7424 91.1331
L91.6214 91.0726
" />
<path d="M91.6214 91.0726
L91.4400 91.0726
" />
<path d="M91.4400 91.0726
L91.2586 91.1331
" />
<path d="M91.2586 91.1331
L91.1376 91.2541
" />
<path d="M91.1376 91.2541
L91.0771 91.3750
" />
<path d="M91.0771 91.3750
L91.0167 91.6169
" />
<path d="M91.0167 91.6169
L91.0167 91.7983
" />
<path d="M91.0167 91.7983
L91.0771 92.0402
" />
<path d="M91.0771 92.0402
L91.1376 92.1612
" />
<path d="M91.1376 92.1612
L91.2586 92.2822
" />
<path d="M91.2586 92.2822
L91.4400 92.3426
" />
<path d="M91.4400 92.3426
L91.5609 92.3426
" />
<path d="M91.5609 92.3426
L91.7424 92.2822
" />
<path d="M91.7424 92.2822
L91.8028 92.2217
" />
<path d="M91.8028 92.2217
L91.8028 91.7983
" />
<path d="M91.8028 91.7983
L91.5609 91.7983
" />
<path d="M92.3471 92.3426
L92.3471 91.0726
" />
<path d="M92.3471 91.0726
L93.0728 92.3426
" />
<path d="M93.0728 92.3426
L93.0728 91.0726
" />
<path d="M93.6776 92.3426
L93.6776 91.0726
" />
<path d="M93.6776 91.0726
L93.9800 91.0726
" />
<path d="M93.9800 91.0726
L94.1614 91.1331
" />
<path d="M94.1614 91.1331
L94.2824 91.2541
" />
<path d="M94.2824 91.2541
L94.3429 91.3750
" />
<path d="M94.3429 91.3750
L94.4033 91.6169
" />
<path d="M94.4033 91.6169
L94.4033 91.7983
" />
<path d="M94.4033 91.7983
L94.3429 92.0402
" />
<path d="M94.3429 92.0402
L94.2824 92.1612
" />
<path d="M94.2824 92.1612
L94.1614 92.2822
" />
<path d="M94.1614 92.2822
L93.9800 92.3426
" />
<path d="M93.9800 92.3426
L93.6776 92.3426
" />
</g><text x="124.0026" y="117.7290"
textLength="22.9421" font-size="1.6933" lengthAdjust="spacingAndGlyphs"
text-anchor="middle" opacity="0">I²C-RJ12-Adapter v1.0</text>
<g class="stroked-text"><desc>I²C-RJ12-Adapter v1.0</desc>
<path d="M112.9355 117.6735
L112.9355 116.4035
" />
<path d="M113.4799 116.1011
L113.6008 116.0407
" />
<path d="M113.6008 116.0407
L113.7822 116.0407
" />
<path d="M113.7822 116.0407
L113.9032 116.1011
" />
<path d="M113.9032 116.1011
L113.9637 116.2221
" />
<path d="M113.9637 116.2221
L113.9637 116.3431
" />
<path d="M113.9637 116.3431
L113.9032 116.4640
" />
<path d="M113.9032 116.4640
L113.4799 116.8873
" />
<path d="M113.4799 116.8873
L113.9637 116.8873
" />
<path d="M115.2336 117.5526
L115.1732 117.6131
" />
<path d="M115.1732 117.6131
L114.9917 117.6735
" />
<path d="M114.9917 117.6735
L114.8708 117.6735
" />
<path d="M114.8708 117.6735
L114.6894 117.6131
" />
<path d="M114.6894 117.6131
L114.5684 117.4921
" />
<path d="M114.5684 117.4921
L114.5079 117.3711
" />
<path d="M114.5079 117.3711
L114.4475 117.1292
" />
<path d="M114.4475 117.1292
L114.4475 116.9478
" />
<path d="M114.4475 116.9478
L114.5079 116.7059
" />
<path d="M114.5079 116.7059
L114.5684 116.5850
" />
<path d="M114.5684 116.5850
L114.6894 116.4640
" />
<path d="M114.6894 116.4640
L114.8708 116.4035
" />
<path d="M114.8708 116.4035
L114.9917 116.4035
" />
<path d="M114.9917 116.4035
L115.1732 116.4640
" />
<path d="M115.1732 116.4640
L115.2336 116.5245
" />
<path d="M115.7779 117.1897
L116.7456 117.1897
" />
<path d="M118.0760 117.6735
L117.6527 117.0688
" />
<path d="M117.3503 117.6735
L117.3503 116.4035
" />
<path d="M117.3503 116.4035
L117.8341 116.4035
" />
<path d="M117.8341 116.4035
L117.9551 116.4640
" />
<path d="M117.9551 116.4640
L118.0156 116.5245
" />
<path d="M118.0156 116.5245
L118.0760 116.6454
" />
<path d="M118.0760 116.6454
L118.0760 116.8269
" />
<path d="M118.0760 116.8269
L118.0156 116.9478
" />
<path d="M118.0156 116.9478
L117.9551 117.0083
" />
<path d="M117.9551 117.0083
L117.8341 117.0688
" />
<path d="M117.8341 117.0688
L117.3503 117.0688
" />
<path d="M118.9832 116.4035
L118.9832 117.3107
" />
<path d="M118.9832 117.3107
L118.9227 117.4921
" />
<path d="M118.9227 117.4921
L118.8018 117.6131
" />
<path d="M118.8018 117.6131
L118.6203 117.6735
" />
<path d="M118.6203 117.6735
L118.4994 117.6735
" />
<path d="M120.2532 117.6735
L119.5275 117.6735
" />
<path d="M119.8903 117.6735
L119.8903 116.4035
" />
<path d="M119.8903 116.4035
L119.7694 116.5850
" />
<path d="M119.7694 116.5850
L119.6484 116.7059
" />
<path d="M119.6484 116.7059
L119.5275 116.7664
" />
<path d="M120.7370 116.5245
L120.7974 116.4640
" />
<path d="M120.7974 116.4640
L120.9184 116.4035
" />
<path d="M120.9184 116.4035
L121.2208 116.4035
" />
<path d="M121.2208 116.4035
L121.3417 116.4640
" />
<path d="M121.3417 116.4640
L121.4022 116.5245
" />
<path d="M121.4022 116.5245
L121.4627 116.6454
" />
<path d="M121.4627 116.6454
L121.4627 116.7664
" />
<path d="M121.4627 116.7664
L121.4022 116.9478
" />
<path d="M121.4022 116.9478
L120.6765 117.6735
" />
<path d="M120.6765 117.6735
L121.4627 117.6735
" />
<path d="M122.0069 117.1897
L122.9746 117.1897
" />
<path d="M123.5189 117.3107
L124.1236 117.3107
" />
<path d="M123.3979 117.6735
L123.8212 116.4035
" />
<path d="M123.8212 116.4035
L124.2446 117.6735
" />
<path d="M125.2122 117.6735
L125.2122 116.4035
" />
<path d="M125.2122 117.6131
L125.0913 117.6735
" />
<path d="M125.0913 117.6735
L124.8494 117.6735
" />
<path d="M124.8494 117.6735
L124.7284 117.6131
" />
<path d="M124.7284 117.6131
L124.6679 117.5526
" />
<path d="M124.6679 117.5526
L124.6075 117.4316
" />
<path d="M124.6075 117.4316
L124.6075 117.0688
" />
<path d="M124.6075 117.0688
L124.6679 116.9478
" />
<path d="M124.6679 116.9478
L124.7284 116.8873
" />
<path d="M124.7284 116.8873
L124.8494 116.8269
" />
<path d="M124.8494 116.8269
L125.0913 116.8269
" />
<path d="M125.0913 116.8269
L125.2122 116.8873
" />
<path d="M126.3612 117.6735
L126.3612 117.0083
" />
<path d="M126.3612 117.0083
L126.3007 116.8873
" />
<path d="M126.3007 116.8873
L126.1798 116.8269
" />
<path d="M126.1798 116.8269
L125.9379 116.8269
" />
<path d="M125.9379 116.8269
L125.8169 116.8873
" />
<path d="M126.3612 117.6131
L126.2403 117.6735
" />
<path d="M126.2403 117.6735
L125.9379 117.6735
" />
<path d="M125.9379 117.6735
L125.8169 117.6131
" />
<path d="M125.8169 117.6131
L125.7565 117.4921
" />
<path d="M125.7565 117.4921
L125.7565 117.3711
" />
<path d="M125.7565 117.3711
L125.8169 117.2502
" />
<path d="M125.8169 117.2502
L125.9379 117.1897
" />
<path d="M125.9379 117.1897
L126.2403 117.1897
" />
<path d="M126.2403 117.1897
L126.3612 117.1292
" />
<path d="M126.9659 116.8269
L126.9659 118.0969
" />
<path d="M126.9659 116.8873
L127.0869 116.8269
" />
<path d="M127.0869 116.8269
L127.3288 116.8269
" />
<path d="M127.3288 116.8269
L127.4497 116.8873
" />
<path d="M127.4497 116.8873
L127.5102 116.9478
" />
<path d="M127.5102 116.9478
L127.5707 117.0688
" />
<path d="M127.5707 117.0688
L127.5707 117.4316
" />
<path d="M127.5707 117.4316
L127.5102 117.5526
" />
<path d="M127.5102 117.5526
L127.4497 117.6131
" />
<path d="M127.4497 117.6131
L127.3288 117.6735
" />
<path d="M127.3288 117.6735
L127.0869 117.6735
" />
<path d="M127.0869 117.6735
L126.9659 117.6131
" />
<path d="M127.9335 116.8269
L128.4173 116.8269
" />
<path d="M128.1149 116.4035
L128.1149 117.4921
" />
<path d="M128.1149 117.4921
L128.1754 117.6131
" />
<path d="M128.1754 117.6131
L128.2964 117.6735
" />
<path d="M128.2964 117.6735
L128.4173 117.6735
" />
<path d="M129.3244 117.6131
L129.2035 117.6735
" />
<path d="M129.2035 117.6735
L128.9616 117.6735
" />
<path d="M128.9616 117.6735
L128.8406 117.6131
" />
<path d="M128.8406 117.6131
L128.7802 117.4921
" />
<path d="M128.7802 117.4921
L128.7802 117.0083
" />
<path d="M128.7802 117.0083
L128.8406 116.8873
" />
<path d="M128.8406 116.8873
L128.9616 116.8269
" />
<path d="M128.9616 116.8269
L129.2035 116.8269
" />
<path d="M129.2035 116.8269
L129.3244 116.8873
" />
<path d="M129.3244 116.8873
L129.3849 117.0083
" />
<path d="M129.3849 117.0083
L129.3849 117.1292
" />
<path d="M129.3849 117.1292
L128.7802 117.2502
" />
<path d="M129.9292 117.6735
L129.9292 116.8269
" />
<path d="M129.9292 117.0688
L129.9897 116.9478
" />
<path d="M129.9897 116.9478
L130.0502 116.8873
" />
<path d="M130.0502 116.8873
L130.1711 116.8269
" />
<path d="M130.1711 116.8269
L130.2921 116.8269
" />
<path d="M131.5621 116.8269
L131.8645 117.6735
" />
<path d="M131.8645 117.6735
L132.1668 116.8269
" />
<path d="M133.3159 117.6735
L132.5902 117.6735
" />
<path d="M132.9530 117.6735
L132.9530 116.4035
" />
<path d="M132.9530 116.4035
L132.8321 116.5850
" />
<path d="M132.8321 116.5850
L132.7111 116.7059
" />
<path d="M132.7111 116.7059
L132.5902 116.7664
" />
<path d="M133.8601 117.5526
L133.9206 117.6131
" />
<path d="M133.9206 117.6131
L133.8601 117.6735
" />
<path d="M133.8601 117.6735
L133.7997 117.6131
" />
<path d="M133.7997 117.6131
L133.8601 117.5526
" />
<path d="M133.8601 117.5526
L133.8601 117.6735
" />
<path d="M134.7068 116.4035
L134.8278 116.4035
" />
<path d="M134.8278 116.4035
L134.9487 116.4640
" />
<path d="M134.9487 116.4640
L135.0092 116.5245
" />
<path d="M135.0092 116.5245
L135.0697 116.6454
" />
<path d="M135.0697 116.6454
L135.1302 116.8873
" />
<path d="M135.1302 116.8873
L135.1302 117.1897
" />
<path d="M135.1302 117.1897
L135.0697 117.4316
" />
<path d="M135.0697 117.4316
L135.0092 117.5526
" />
<path d="M135.0092 117.5526
L134.9487 117.6131
" />
<path d="M134.9487 117.6131
L134.8278 117.6735
" />
<path d="M134.8278 117.6735
L134.7068 117.6735
" />
<path d="M134.7068 117.6735
L134.5859 117.6131
" />
<path d="M134.5859 117.6131
L134.5254 117.5526
" />
<path d="M134.5254 117.5526
L134.4649 117.4316
" />
<path d="M134.4649 117.4316
L134.4045 117.1897
" />
<path d="M134.4045 117.1897
L134.4045 116.8873
" />
<path d="M134.4045 116.8873
L134.4649 116.6454
" />
<path d="M134.4649 116.6454
L134.5254 116.5245
" />
<path d="M134.5254 116.5245
L134.5859 116.4640
" />
<path d="M134.5859 116.4640
L134.7068 116.4035
" />
</g><rect x="77.470000" y="100.203000" width="1.270000" height="0.254000" rx="0.000000" />
<rect x="77.470000" y="102.743000" width="1.270000" height="0.254000" rx="0.000000" />
<rect x="77.470000" y="105.283000" width="1.270000" height="0.254000" rx="0.000000" />
<rect x="77.470000" y="107.823000" width="1.270000" height="0.254000" rx="0.000000" />
</g>
<g style="fill:none; 
stroke:#000000; stroke-width:0.2540; stroke-opacity:1; 
stroke-linecap:round; stroke-linejoin:round;">
<rect x="76.200000" y="99.060000" width="2.540000" height="10.160000" rx="0.000000" />
</g>
<g style="fill:none; 
stroke:#000000; stroke-width:0.1524; stroke-opacity:1; 
stroke-linecap:round; stroke-linejoin:round;">
<path d="M78.7400 107.9500
L82.5500 107.9500
" />
<text x="80.6450" y="107.6960"
textLength="1.4127" font-size="1.6933" lengthAdjust="spacingAndGlyphs"
text-anchor="middle" opacity="0">1</text>
<g class="stroked-text"><desc>1</desc>
<path d="M81.0079 107.5325
L80.2822 107.5325
" />
<path d="M80.6450 107.5325
L80.6450 106.2625
" />
<path d="M80.6450 106.2625
L80.5241 106.4440
" />
<path d="M80.5241 106.4440
L80.4031 106.5649
" />
<path d="M80.4031 106.5649
L80.2822 106.6254
" />
</g><path d="M78.7400 105.4100
L82.5500 105.4100
" />
<text x="80.6450" y="105.1560"
textLength="1.4127" font-size="1.6933" lengthAdjust="spacingAndGlyphs"
text-anchor="middle" opacity="0">2</text>
<g class="stroked-text"><desc>2</desc>
<path d="M80.2822 103.8435
L80.3426 103.7830
" />
<path d="M80.3426 103.7830
L80.4636 103.7225
" />
<path d="M80.4636 103.7225
L80.7660 103.7225
" />
<path d="M80.7660 103.7225
L80.8869 103.7830
" />
<path d="M80.8869 103.7830
L80.9474 103.8435
" />
<path d="M80.9474 103.8435
L81.0079 103.9644
" />
<path d="M81.0079 103.9644
L81.0079 104.0854
" />
<path d="M81.0079 104.0854
L80.9474 104.2668
" />
<path d="M80.9474 104.2668
L80.2217 104.9925
" />
<path d="M80.2217 104.9925
L81.0079 104.9925
" />
</g><path d="M78.7400 102.8700
L82.5500 102.8700
" />
<text x="80.6450" y="102.6160"
textLength="1.4127" font-size="1.6933" lengthAdjust="spacingAndGlyphs"
text-anchor="middle" opacity="0">3</text>
<g class="stroked-text"><desc>3</desc>
<path d="M80.2217 101.1825
L81.0079 101.1825
" />
<path d="M81.0079 101.1825
L80.5845 101.6663
" />
<path d="M80.5845 101.6663
L80.7660 101.6663
" />
<path d="M80.7660 101.6663
L80.8869 101.7268
" />
<path d="M80.8869 101.7268
L80.9474 101.7873
" />
<path d="M80.9474 101.7873
L81.0079 101.9082
" />
<path d="M81.0079 101.9082
L81.0079 102.2106
" />
<path d="M81.0079 102.2106
L80.9474 102.3316
" />
<path d="M80.9474 102.3316
L80.8869 102.3921
" />
<path d="M80.8869 102.3921
L80.7660 102.4525
" />
<path d="M80.7660 102.4525
L80.4031 102.4525
" />
<path d="M80.4031 102.4525
L80.2822 102.3921
" />
<path d="M80.2822 102.3921
L80.2217 102.3316
" />
</g><path d="M78.7400 100.3300
L82.5500 100.3300
" />
<text x="80.6450" y="100.0760"
textLength="1.4127" font-size="1.6933" lengthAdjust="spacingAndGlyphs"
text-anchor="middle" opacity="0">4</text>
<g class="stroked-text"><desc>4</desc>
<path d="M80.8869 99.0659
L80.8869 99.9125
" />
<path d="M80.5845 98.5821
L80.2822 99.4892
" />
<path d="M80.2822 99.4892
L81.0683 99.4892
" />
</g><text x="77.4700" y="97.7899"
textLength="3.5898" font-size="1.6933" lengthAdjust="spacingAndGlyphs"
text-anchor="middle" opacity="0">J11</text>
<g class="stroked-text"><desc>J11</desc>
<path d="M76.4419 96.4644
L76.4419 97.3716
" />
<path d="M76.4419 97.3716
L76.3814 97.5530
" />
<path d="M76.3814 97.5530
L76.2605 97.6740
" />
<path d="M76.2605 97.6740
L76.0790 97.7344
" />
<path d="M76.0790 97.7344
L75.9581 97.7344
" />
<path d="M77.7119 97.7344
L76.9862 97.7344
" />
<path d="M77.3490 97.7344
L77.3490 96.4644
" />
<path d="M77.3490 96.4644
L77.2281 96.6459
" />
<path d="M77.2281 96.6459
L77.1071 96.7668
" />
<path d="M77.1071 96.7668
L76.9862 96.8273
" />
<path d="M78.9214 97.7344
L78.1957 97.7344
" />
<path d="M78.5585 97.7344
L78.5585 96.4644
" />
<path d="M78.5585 96.4644
L78.4376 96.6459
" />
<path d="M78.4376 96.6459
L78.3166 96.7668
" />
<path d="M78.3166 96.7668
L78.1957 96.8273
" />
</g><text x="77.4700" y="112.3949"
textLength="13.2056" font-size="1.6933" lengthAdjust="spacingAndGlyphs"
text-anchor="middle" opacity="0">Relais-Power</text>
<g class="stroked-text"><desc>Relais-Power</desc>
<path d="M71.9968 112.3394
L71.5735 111.7347
" />
<path d="M71.2711 112.3394
L71.2711 111.0694
" />
<path d="M71.2711 111.0694
L71.7549 111.0694
" />
<path d="M71.7549 111.0694
L71.8759 111.1299
" />
<path d="M71.8759 111.1299
L71.9364 111.1904
" />
<path d="M71.9364 111.1904
L71.9968 111.3113
" />
<path d="M71.9968 111.3113
L71.9968 111.4928
" />
<path d="M71.9968 111.4928
L71.9364 111.6137
" />
<path d="M71.9364 111.6137
L71.8759 111.6742
" />
<path d="M71.8759 111.6742
L71.7549 111.7347
" />
<path d="M71.7549 111.7347
L71.2711 111.7347
" />
<path d="M73.0249 112.2790
L72.9040 112.3394
" />
<path d="M72.9040 112.3394
L72.6621 112.3394
" />
<path d="M72.6621 112.3394
L72.5411 112.2790
" />
<path d="M72.5411 112.2790
L72.4807 112.1580
" />
<path d="M72.4807 112.1580
L72.4807 111.6742
" />
<path d="M72.4807 111.6742
L72.5411 111.5532
" />
<path d="M72.5411 111.5532
L72.6621 111.4928
" />
<path d="M72.6621 111.4928
L72.9040 111.4928
" />
<path d="M72.9040 111.4928
L73.0249 111.5532
" />
<path d="M73.0249 111.5532
L73.0854 111.6742
" />
<path d="M73.0854 111.6742
L73.0854 111.7951
" />
<path d="M73.0854 111.7951
L72.4807 111.9161
" />
<path d="M73.8112 112.3394
L73.6902 112.2790
" />
<path d="M73.6902 112.2790
L73.6297 112.1580
" />
<path d="M73.6297 112.1580
L73.6297 111.0694
" />
<path d="M74.8392 112.3394
L74.8392 111.6742
" />
<path d="M74.8392 111.6742
L74.7787 111.5532
" />
<path d="M74.7787 111.5532
L74.6578 111.4928
" />
<path d="M74.6578 111.4928
L74.4159 111.4928
" />
<path d="M74.4159 111.4928
L74.2949 111.5532
" />
<path d="M74.8392 112.2790
L74.7183 112.3394
" />
<path d="M74.7183 112.3394
L74.4159 112.3394
" />
<path d="M74.4159 112.3394
L74.2949 112.2790
" />
<path d="M74.2949 112.2790
L74.2345 112.1580
" />
<path d="M74.2345 112.1580
L74.2345 112.0370
" />
<path d="M74.2345 112.0370
L74.2949 111.9161
" />
<path d="M74.2949 111.9161
L74.4159 111.8556
" />
<path d="M74.4159 111.8556
L74.7183 111.8556
" />
<path d="M74.7183 111.8556
L74.8392 111.7951
" />
<path d="M75.4439 112.3394
L75.4439 111.4928
" />
<path d="M75.4439 111.0694
L75.3835 111.1299
" />
<path d="M75.3835 111.1299
L75.4439 111.1904
" />
<path d="M75.4439 111.1904
L75.5044 111.1299
" />
<path d="M75.5044 111.1299
L75.4439 111.0694
" />
<path d="M75.4439 111.0694
L75.4439 111.1904
" />
<path d="M75.9883 112.2790
L76.1092 112.3394
" />
<path d="M76.1092 112.3394
L76.3511 112.3394
" />
<path d="M76.3511 112.3394
L76.4721 112.2790
" />
<path d="M76.4721 112.2790
L76.5325 112.1580
" />
<path d="M76.5325 112.1580
L76.5325 112.0975
" />
<path d="M76.5325 112.0975
L76.4721 111.9766
" />
<path d="M76.4721 111.9766
L76.3511 111.9161
" />
<path d="M76.3511 111.9161
L76.1697 111.9161
" />
<path d="M76.1697 111.9161
L76.0487 111.8556
" />
<path d="M76.0487 111.8556
L75.9883 111.7347
" />
<path d="M75.9883 111.7347
L75.9883 111.6742
" />
<path d="M75.9883 111.6742
L76.0487 111.5532
" />
<path d="M76.0487 111.5532
L76.1697 111.4928
" />
<path d="M76.1697 111.4928
L76.3511 111.4928
" />
<path d="M76.3511 111.4928
L76.4721 111.5532
" />
<path d="M77.0768 111.8556
L78.0445 111.8556
" />
<path d="M78.6492 112.3394
L78.6492 111.0694
" />
<path d="M78.6492 111.0694
L79.1330 111.0694
" />
<path d="M79.1330 111.0694
L79.2540 111.1299
" />
<path d="M79.2540 111.1299
L79.3145 111.1904
" />
<path d="M79.3145 111.1904
L79.3749 111.3113
" />
<path d="M79.3749 111.3113
L79.3749 111.4928
" />
<path d="M79.3749 111.4928
L79.3145 111.6137
" />
<path d="M79.3145 111.6137
L79.2540 111.6742
" />
<path d="M79.2540 111.6742
L79.1330 111.7347
" />
<path d="M79.1330 111.7347
L78.6492 111.7347
" />
<path d="M80.1007 112.3394
L79.9797 112.2790
" />
<path d="M79.9797 112.2790
L79.9192 112.2185
" />
<path d="M79.9192 112.2185
L79.8588 112.0975
" />
<path d="M79.8588 112.0975
L79.8588 111.7347
" />
<path d="M79.8588 111.7347
L79.9192 111.6137
" />
<path d="M79.9192 111.6137
L79.9797 111.5532
" />
<path d="M79.9797 111.5532
L80.1007 111.4928
" />
<path d="M80.1007 111.4928
L80.2821 111.4928
" />
<path d="M80.2821 111.4928
L80.4030 111.5532
" />
<path d="M80.4030 111.5532
L80.4635 111.6137
" />
<path d="M80.4635 111.6137
L80.5240 111.7347
" />
<path d="M80.5240 111.7347
L80.5240 112.0975
" />
<path d="M80.5240 112.0975
L80.4635 112.2185
" />
<path d="M80.4635 112.2185
L80.4030 112.2790
" />
<path d="M80.4030 112.2790
L80.2821 112.3394
" />
<path d="M80.2821 112.3394
L80.1007 112.3394
" />
<path d="M80.9473 111.4928
L81.1892 112.3394
" />
<path d="M81.1892 112.3394
L81.4311 111.7347
" />
<path d="M81.4311 111.7347
L81.6730 112.3394
" />
<path d="M81.6730 112.3394
L81.9149 111.4928
" />
<path d="M82.8825 112.2790
L82.7616 112.3394
" />
<path d="M82.7616 112.3394
L82.5197 112.3394
" />
<path d="M82.5197 112.3394
L82.3987 112.2790
" />
<path d="M82.3987 112.2790
L82.3383 112.1580
" />
<path d="M82.3383 112.1580
L82.3383 111.6742
" />
<path d="M82.3383 111.6742
L82.3987 111.5532
" />
<path d="M82.3987 111.5532
L82.5197 111.4928
" />
<path d="M82.5197 111.4928
L82.7616 111.4928
" />
<path d="M82.7616 111.4928
L82.8825 111.5532
" />
<path d="M82.8825 111.5532
L82.9430 111.6742
" />
<path d="M82.9430 111.6742
L82.9430 111.7951
" />
<path d="M82.9430 111.7951
L82.3383 111.9161
" />
<path d="M83.4873 112.3394
L83.4873 111.4928
" />
<path d="M83.4873 111.7347
L83.5478 111.6137
" />
<path d="M83.5478 111.6137
L83.6083 111.5532
" />
<path d="M83.6083 111.5532
L83.7292 111.4928
" />
<path d="M83.7292 111.4928
L83.8502 111.4928
" />
</g><path style="fill:none; 
stroke:#000000; stroke-width:0.1524; stroke-opacity:1; 
stroke-linecap:round; stroke-linejoin:round;fill:none"
d="M 91.9480,99.0600
92.7100,97.7900
" /> 
<path style="fill:none; 
stroke:#000000; stroke-width:0.1524; stroke-opacity:1; 
stroke-linecap:round; stroke-linejoin:round;fill:none"
d="M 92.7100,100.3300
92.7100,97.7900
" /> 
<path style="fill:none; 
stroke:#000000; stroke-width:0.1524; stroke-opacity:1; 
stroke-linecap:round; stroke-linejoin:round;fill:none"
d="M 92.7100,97.7900
93.4720,99.0600
" /> 
<text x="92.7100" y="96.8319"
textLength="5.2832" font-size="1.6933" lengthAdjust="spacingAndGlyphs"
text-anchor="middle" opacity="0">+12V</text>
<g class="stroked-text"><desc>+12V</desc>
<path d="M90.4723 96.2926
L91.4400 96.2926
" />
<path d="M90.9561 96.7764
L90.9561 95.8088
" />
<path d="M92.7100 96.7764
L91.9843 96.7764
" />
<path d="M92.3471 96.7764
L92.3471 95.5064
" />
<path d="M92.3471 95.5064
L92.2262 95.6879
" />
<path d="M92.2262 95.6879
L92.1052 95.8088
" />
<path d="M92.1052 95.8088
L91.9843 95.8693
" />
<path d="M93.1938 95.6274
L93.2542 95.5669
" />
<path d="M93.2542 95.5669
L93.3752 95.5064
" />
<path d="M93.3752 95.5064
L93.6776 95.5064
" />
<path d="M93.6776 95.5064
L93.7985 95.5669
" />
<path d="M93.7985 95.5669
L93.8590 95.6274
" />
<path d="M93.8590 95.6274
L93.9195 95.7483
" />
<path d="M93.9195 95.7483
L93.9195 95.8693
" />
<path d="M93.9195 95.8693
L93.8590 96.0507
" />
<path d="M93.8590 96.0507
L93.1333 96.7764
" />
<path d="M93.1333 96.7764
L93.9195 96.7764
" />
<path d="M94.2823 95.5064
L94.7056 96.7764
" />
<path d="M94.7056 96.7764
L95.1290 95.5064
" />
</g><text x="121.2207" y="120.5230"
textLength="17.3783" font-size="1.6933" lengthAdjust="spacingAndGlyphs"
text-anchor="middle" opacity="0">©H3-H5N6 2024</text>
<g class="stroked-text"><desc>©H3-H5N6 2024</desc>
<path d="M113.9636 119.4999
L113.8427 119.4394
" />
<path d="M113.8427 119.4394
L113.6008 119.4394
" />
<path d="M113.6008 119.4394
L113.4798 119.4999
" />
<path d="M113.4798 119.4999
L113.3589 119.6209
" />
<path d="M113.3589 119.6209
L113.2984 119.7418
" />
<path d="M113.2984 119.7418
L113.2984 119.9837
" />
<path d="M113.2984 119.9837
L113.3589 120.1047
" />
<path d="M113.3589 120.1047
L113.4798 120.2256
" />
<path d="M113.4798 120.2256
L113.6008 120.2861
" />
<path d="M113.6008 120.2861
L113.8427 120.2861
" />
<path d="M113.8427 120.2861
L113.9636 120.2256
" />
<path d="M113.7217 119.0161
L113.4193 119.0766
" />
<path d="M113.4193 119.0766
L113.1170 119.2580
" />
<path d="M113.1170 119.2580
L112.9355 119.5604
" />
<path d="M112.9355 119.5604
L112.8751 119.8628
" />
<path d="M112.8751 119.8628
L112.9355 120.1651
" />
<path d="M112.9355 120.1651
L113.1170 120.4675
" />
<path d="M113.1170 120.4675
L113.4193 120.6490
" />
<path d="M113.4193 120.6490
L113.7217 120.7094
" />
<path d="M113.7217 120.7094
L114.0241 120.6490
" />
<path d="M114.0241 120.6490
L114.3265 120.4675
" />
<path d="M114.3265 120.4675
L114.5079 120.1651
" />
<path d="M114.5079 120.1651
L114.5684 119.8628
" />
<path d="M114.5684 119.8628
L114.5079 119.5604
" />
<path d="M114.5079 119.5604
L114.3265 119.2580
" />
<path d="M114.3265 119.2580
L114.0241 119.0766
" />
<path d="M114.0241 119.0766
L113.7217 119.0161
" />
<path d="M115.1126 120.4675
L115.1126 119.1975
" />
<path d="M115.1126 119.8023
L115.8383 119.8023
" />
<path d="M115.8383 120.4675
L115.8383 119.1975
" />
<path d="M116.3222 119.1975
L117.1084 119.1975
" />
<path d="M117.1084 119.1975
L116.6850 119.6813
" />
<path d="M116.6850 119.6813
L116.8665 119.6813
" />
<path d="M116.8665 119.6813
L116.9874 119.7418
" />
<path d="M116.9874 119.7418
L117.0479 119.8023
" />
<path d="M117.0479 119.8023
L117.1084 119.9232
" />
<path d="M117.1084 119.9232
L117.1084 120.2256
" />
<path d="M117.1084 120.2256
L117.0479 120.3466
" />
<path d="M117.0479 120.3466
L116.9874 120.4071
" />
<path d="M116.9874 120.4071
L116.8665 120.4675
" />
<path d="M116.8665 120.4675
L116.5036 120.4675
" />
<path d="M116.5036 120.4675
L116.3827 120.4071
" />
<path d="M116.3827 120.4071
L116.3222 120.3466
" />
<path d="M117.6526 119.9837
L118.6203 119.9837
" />
<path d="M119.2250 120.4675
L119.2250 119.1975
" />
<path d="M119.2250 119.8023
L119.9507 119.8023
" />
<path d="M119.9507 120.4675
L119.9507 119.1975
" />
<path d="M121.1603 119.1975
L120.5555 119.1975
" />
<path d="M120.5555 119.1975
L120.4951 119.8023
" />
<path d="M120.4951 119.8023
L120.5555 119.7418
" />
<path d="M120.5555 119.7418
L120.6765 119.6813
" />
<path d="M120.6765 119.6813
L120.9789 119.6813
" />
<path d="M120.9789 119.6813
L121.0998 119.7418
" />
<path d="M121.0998 119.7418
L121.1603 119.8023
" />
<path d="M121.1603 119.8023
L121.2208 119.9232
" />
<path d="M121.2208 119.9232
L121.2208 120.2256
" />
<path d="M121.2208 120.2256
L121.1603 120.3466
" />
<path d="M121.1603 120.3466
L121.0998 120.4071
" />
<path d="M121.0998 120.4071
L120.9789 120.4675
" />
<path d="M120.9789 120.4675
L120.6765 120.4675
" />
<path d="M120.6765 120.4675
L120.5555 120.4071
" />
<path d="M120.5555 120.4071
L120.4951 120.3466
" />
<path d="M121.7650 120.4675
L121.7650 119.1975
" />
<path d="M121.7650 119.1975
L122.4907 120.4675
" />
<path d="M122.4907 120.4675
L122.4907 119.1975
" />
<path d="M123.6398 119.1975
L123.3979 119.1975
" />
<path d="M123.3979 119.1975
L123.2770 119.2580
" />
<path d="M123.2770 119.2580
L123.2165 119.3185
" />
<path d="M123.2165 119.3185
L123.0955 119.4999
" />
<path d="M123.0955 119.4999
L123.0351 119.7418
" />
<path d="M123.0351 119.7418
L123.0351 120.2256
" />
<path d="M123.0351 120.2256
L123.0955 120.3466
" />
<path d="M123.0955 120.3466
L123.1560 120.4071
" />
<path d="M123.1560 120.4071
L123.2770 120.4675
" />
<path d="M123.2770 120.4675
L123.5189 120.4675
" />
<path d="M123.5189 120.4675
L123.6398 120.4071
" />
<path d="M123.6398 120.4071
L123.7003 120.3466
" />
<path d="M123.7003 120.3466
L123.7608 120.2256
" />
<path d="M123.7608 120.2256
L123.7608 119.9232
" />
<path d="M123.7608 119.9232
L123.7003 119.8023
" />
<path d="M123.7003 119.8023
L123.6398 119.7418
" />
<path d="M123.6398 119.7418
L123.5189 119.6813
" />
<path d="M123.5189 119.6813
L123.2770 119.6813
" />
<path d="M123.2770 119.6813
L123.1560 119.7418
" />
<path d="M123.1560 119.7418
L123.0955 119.8023
" />
<path d="M123.0955 119.8023
L123.0351 119.9232
" />
<path d="M125.2122 119.3185
L125.2726 119.2580
" />
<path d="M125.2726 119.2580
L125.3936 119.1975
" />
<path d="M125.3936 119.1975
L125.6960 119.1975
" />
<path d="M125.6960 119.1975
L125.8169 119.2580
" />
<path d="M125.8169 119.2580
L125.8774 119.3185
" />
<path d="M125.8774 119.3185
L125.9379 119.4394
" />
<path d="M125.9379 119.4394
L125.9379 119.5604
" />
<path d="M125.9379 119.5604
L125.8774 119.7418
" />
<path d="M125.8774 119.7418
L125.1517 120.4675
" />
<path d="M125.1517 120.4675
L125.9379 120.4675
" />
<path d="M126.7240 119.1975
L126.8450 119.1975
" />
<path d="M126.8450 119.1975
L126.9659 119.2580
" />
<path d="M126.9659 119.2580
L127.0264 119.3185
" />
<path d="M127.0264 119.3185
L127.0869 119.4394
" />
<path d="M127.0869 119.4394
L127.1474 119.6813
" />
<path d="M127.1474 119.6813
L127.1474 119.9837
" />
<path d="M127.1474 119.9837
L127.0869 120.2256
" />
<path d="M127.0869 120.2256
L127.0264 120.3466
" />
<path d="M127.0264 120.3466
L126.9659 120.4071
" />
<path d="M126.9659 120.4071
L126.8450 120.4675
" />
<path d="M126.8450 120.4675
L126.7240 120.4675
" />
<path d="M126.7240 120.4675
L126.6031 120.4071
" />
<path d="M126.6031 120.4071
L126.5426 120.3466
" />
<path d="M126.5426 120.3466
L126.4821 120.2256
" />
<path d="M126.4821 120.2256
L126.4217 119.9837
" />
<path d="M126.4217 119.9837
L126.4217 119.6813
" />
<path d="M126.4217 119.6813
L126.4821 119.4394
" />
<path d="M126.4821 119.4394
L126.5426 119.3185
" />
<path d="M126.5426 119.3185
L126.6031 119.2580
" />
<path d="M126.6031 119.2580
L126.7240 119.1975
" />
<path d="M127.6312 119.3185
L127.6916 119.2580
" />
<path d="M127.6916 119.2580
L127.8126 119.1975
" />
<path d="M127.8126 119.1975
L128.1150 119.1975
" />
<path d="M128.1150 119.1975
L128.2359 119.2580
" />
<path d="M128.2359 119.2580
L128.2964 119.3185
" />
<path d="M128.2964 119.3185
L128.3569 119.4394
" />
<path d="M128.3569 119.4394
L128.3569 119.5604
" />
<path d="M128.3569 119.5604
L128.2964 119.7418
" />
<path d="M128.2964 119.7418
L127.5707 120.4675
" />
<path d="M127.5707 120.4675
L128.3569 120.4675
" />
<path d="M129.4454 119.6209
L129.4454 120.4675
" />
<path d="M129.1430 119.1371
L128.8407 120.0442
" />
<path d="M128.8407 120.0442
L129.6268 120.0442
" />
</g><path style="fill:none; 
stroke:#000000; stroke-width:0.1524; stroke-opacity:1; 
stroke-linecap:round; stroke-linejoin:round;fill:none"
d="M 92.7100,109.2200
92.7100,110.4900
93.9800,110.4900
92.7100,111.7600
91.4400,110.4900
92.7100,110.4900
" /> 
<text x="92.7100" y="113.9881"
textLength="4.0737" font-size="1.6933" lengthAdjust="spacingAndGlyphs"
text-anchor="middle" opacity="0">GND</text>
<g class="stroked-text"><desc>GND</desc>
<path d="M91.7424 112.7231
L91.6214 112.6626
" />
<path d="M91.6214 112.6626
L91.4400 112.6626
" />
<path d="M91.4400 112.6626
L91.2586 112.7231
" />
<path d="M91.2586 112.7231
L91.1376 112.8441
" />
<path d="M91.1376 112.8441
L91.0771 112.9650
" />
<path d="M91.0771 112.9650
L91.0167 113.2069
" />
<path d="M91.0167 113.2069
L91.0167 113.3883
" />
<path d="M91.0167 113.3883
L91.0771 113.6302
" />
<path d="M91.0771 113.6302
L91.1376 113.7512
" />
<path d="M91.1376 113.7512
L91.2586 113.8722
" />
<path d="M91.2586 113.8722
L91.4400 113.9326
" />
<path d="M91.4400 113.9326
L91.5609 113.9326
" />
<path d="M91.5609 113.9326
L91.7424 113.8722
" />
<path d="M91.7424 113.8722
L91.8028 113.8117
" />
<path d="M91.8028 113.8117
L91.8028 113.3883
" />
<path d="M91.8028 113.3883
L91.5609 113.3883
" />
<path d="M92.3471 113.9326
L92.3471 112.6626
" />
<path d="M92.3471 112.6626
L93.0728 113.9326
" />
<path d="M93.0728 113.9326
L93.0728 112.6626
" />
<path d="M93.6776 113.9326
L93.6776 112.6626
" />
<path d="M93.6776 112.6626
L93.9800 112.6626
" />
<path d="M93.9800 112.6626
L94.1614 112.7231
" />
<path d="M94.1614 112.7231
L94.2824 112.8441
" />
<path d="M94.2824 112.8441
L94.3429 112.9650
" />
<path d="M94.3429 112.9650
L94.4033 113.2069
" />
<path d="M94.4033 113.2069
L94.4033 113.3883
" />
<path d="M94.4033 113.3883
L94.3429 113.6302
" />
<path d="M94.3429 113.6302
L94.2824 113.7512
" />
<path d="M94.2824 113.7512
L94.1614 113.8722
" />
<path d="M94.1614 113.8722
L93.9800 113.9326
" />
<path d="M93.9800 113.9326
L93.6776 113.9326
" />
</g><path style="fill:none; 
stroke:#000000; stroke-width:0.1524; stroke-opacity:1; 
stroke-linecap:round; stroke-linejoin:round;fill:none"
d="M 163.8300,57.7850
162.5600,57.7850
162.5600,57.7850
" /> 
<path style="fill:none; 
stroke:#000000; stroke-width:0.1524; stroke-opacity:1; 
stroke-linecap:round; stroke-linejoin:round;fill:none"
d="M 163.8300,56.5150
162.5600,56.5150
162.5600,56.5150
" /> 
<path style="fill:none; 
stroke:#000000; stroke-width:0.1524; stroke-opacity:1; 
stroke-linecap:round; stroke-linejoin:round;fill:none"
d="M 163.8300,55.2450
162.5600,55.2450
162.5600,55.2450
" /> 
<path style="fill:none; 
stroke:#000000; stroke-width:0.1524; stroke-opacity:1; 
stroke-linecap:round; stroke-linejoin:round;fill:none"
d="M 163.8300,53.9750
162.5600,53.9750
162.5600,53.9750
" /> 
<path style="fill:none; 
stroke:#000000; stroke-width:0.1524; stroke-opacity:1; 
stroke-linecap:round; stroke-linejoin:round;fill:none"
d="M 163.8300,52.7050
162.5600,52.7050
162.5600,52.7050
" /> 
<path style="fill:none; 
stroke:#000000; stroke-width:0.1524; stroke-opacity:1; 
stroke-linecap:round; stroke-linejoin:round;fill:none"
d="M 162.5600,51.4350
163.8300,51.4350
163.8300,51.4350
" /> 
<path style="fill:none; 
stroke:#000000; stroke-width:0.1524; stroke-opacity:1; 
stroke-linecap:round; stroke-linejoin:round;fill:none"
d="M 163.8300,60.3250
163.8300,48.8950
153.6700,48.8950
153.6700,51.4350
152.4000,51.4350
152.4000,52.7050
151.1300,52.7050
151.1300,56.5150
152.4000,56.5150
152.4000,57.7850
153.6700,57.7850
153.6700,60.3250
163.8300,60.3250
Z" /> 
</g>
<g style="fill:none; 
stroke:#000000; stroke-width:0.2540; stroke-opacity:1; 
stroke-linecap:round; stroke-linejoin:round;">
<rect x="149.860000" y="45.720000" width="15.240000" height="17.780000" rx="0.000000" />
</g>
<g style="fill:none; 
stroke:#000000; stroke-width:0.1524; stroke-opacity:1; 
stroke-linecap:round; stroke-linejoin:round;">
<path d="M149.8600 60.9600
L147.3200 60.9600
" />
<text x="148.5900" y="60.7060"
textLength="1.4127" font-size="1.6933" lengthAdjust="spacingAndGlyphs"
text-anchor="middle" opacity="0">1</text>
<g class="stroked-text"><desc>1</desc>
<path d="M148.9529 60.5425
L148.2272 60.5425
" />
<path d="M148.5900 60.5425
L148.5900 59.2725
" />
<path d="M148.5900 59.2725
L148.4691 59.4540
" />
<path d="M148.4691 59.4540
L148.3481 59.5749
" />
<path d="M148.3481 59.5749
L148.2272 59.6354
" />
</g><path d="M149.8600 58.4200
L147.3200 58.4200
" />
<text x="148.5900" y="58.1660"
textLength="1.4127" font-size="1.6933" lengthAdjust="spacingAndGlyphs"
text-anchor="middle" opacity="0">2</text>
<g class="stroked-text"><desc>2</desc>
<path d="M148.2272 56.8535
L148.2876 56.7930
" />
<path d="M148.2876 56.7930
L148.4086 56.7325
" />
<path d="M148.4086 56.7325
L148.7110 56.7325
" />
<path d="M148.7110 56.7325
L148.8319 56.7930
" />
<path d="M148.8319 56.7930
L148.8924 56.8535
" />
<path d="M148.8924 56.8535
L148.9529 56.9744
" />
<path d="M148.9529 56.9744
L148.9529 57.0954
" />
<path d="M148.9529 57.0954
L148.8924 57.2768
" />
<path d="M148.8924 57.2768
L148.1667 58.0025
" />
<path d="M148.1667 58.0025
L148.9529 58.0025
" />
</g><path d="M149.8600 55.8800
L147.3200 55.8800
" />
<text x="148.5900" y="55.6260"
textLength="1.4127" font-size="1.6933" lengthAdjust="spacingAndGlyphs"
text-anchor="middle" opacity="0">3</text>
<g class="stroked-text"><desc>3</desc>
<path d="M148.1667 54.1925
L148.9529 54.1925
" />
<path d="M148.9529 54.1925
L148.5295 54.6763
" />
<path d="M148.5295 54.6763
L148.7110 54.6763
" />
<path d="M148.7110 54.6763
L148.8319 54.7368
" />
<path d="M148.8319 54.7368
L148.8924 54.7973
" />
<path d="M148.8924 54.7973
L148.9529 54.9182
" />
<path d="M148.9529 54.9182
L148.9529 55.2206
" />
<path d="M148.9529 55.2206
L148.8924 55.3416
" />
<path d="M148.8924 55.3416
L148.8319 55.4021
" />
<path d="M148.8319 55.4021
L148.7110 55.4625
" />
<path d="M148.7110 55.4625
L148.3481 55.4625
" />
<path d="M148.3481 55.4625
L148.2272 55.4021
" />
<path d="M148.2272 55.4021
L148.1667 55.3416
" />
</g><path d="M149.8600 53.3400
L147.3200 53.3400
" />
<text x="148.5900" y="53.0860"
textLength="1.4127" font-size="1.6933" lengthAdjust="spacingAndGlyphs"
text-anchor="middle" opacity="0">4</text>
<g class="stroked-text"><desc>4</desc>
<path d="M148.8319 52.0759
L148.8319 52.9225
" />
<path d="M148.5295 51.5921
L148.2272 52.4992
" />
<path d="M148.2272 52.4992
L149.0133 52.4992
" />
</g><path d="M149.8600 50.8000
L147.3200 50.8000
" />
<text x="148.5900" y="50.5460"
textLength="1.4127" font-size="1.6933" lengthAdjust="spacingAndGlyphs"
text-anchor="middle" opacity="0">5</text>
<g class="stroked-text"><desc>5</desc>
<path d="M148.8924 49.1125
L148.2876 49.1125
" />
<path d="M148.2876 49.1125
L148.2272 49.7173
" />
<path d="M148.2272 49.7173
L148.2876 49.6568
" />
<path d="M148.2876 49.6568
L148.4086 49.5963
" />
<path d="M148.4086 49.5963
L148.7110 49.5963
" />
<path d="M148.7110 49.5963
L148.8319 49.6568
" />
<path d="M148.8319 49.6568
L148.8924 49.7173
" />
<path d="M148.8924 49.7173
L148.9529 49.8382
" />
<path d="M148.9529 49.8382
L148.9529 50.1406
" />
<path d="M148.9529 50.1406
L148.8924 50.2616
" />
<path d="M148.8924 50.2616
L148.8319 50.3221
" />
<path d="M148.8319 50.3221
L148.7110 50.3825
" />
<path d="M148.7110 50.3825
L148.4086 50.3825
" />
<path d="M148.4086 50.3825
L148.2876 50.3221
" />
<path d="M148.2876 50.3221
L148.2272 50.2616
" />
</g><path d="M149.8600 48.2600
L147.3200 48.2600
" />
<text x="148.5900" y="48.0060"
textLength="1.4127" font-size="1.6933" lengthAdjust="spacingAndGlyphs"
text-anchor="middle" opacity="0">6</text>
<g class="stroked-text"><desc>6</desc>
<path d="M148.8319 46.5725
L148.5900 46.5725
" />
<path d="M148.5900 46.5725
L148.4691 46.6330
" />
<path d="M148.4691 46.6330
L148.4086 46.6935
" />
<path d="M148.4086 46.6935
L148.2876 46.8749
" />
<path d="M148.2876 46.8749
L148.2272 47.1168
" />
<path d="M148.2272 47.1168
L148.2272 47.6006
" />
<path d="M148.2272 47.6006
L148.2876 47.7216
" />
<path d="M148.2876 47.7216
L148.3481 47.7821
" />
<path d="M148.3481 47.7821
L148.4691 47.8425
" />
<path d="M148.4691 47.8425
L148.7110 47.8425
" />
<path d="M148.7110 47.8425
L148.8319 47.7821
" />
<path d="M148.8319 47.7821
L148.8924 47.7216
" />
<path d="M148.8924 47.7216
L148.9529 47.6006
" />
<path d="M148.9529 47.6006
L148.9529 47.2982
" />
<path d="M148.9529 47.2982
L148.8924 47.1773
" />
<path d="M148.8924 47.1773
L148.8319 47.1168
" />
<path d="M148.8319 47.1168
L148.7110 47.0563
" />
<path d="M148.7110 47.0563
L148.4691 47.0563
" />
<path d="M148.4691 47.0563
L148.3481 47.1168
" />
<path d="M148.3481 47.1168
L148.2876 47.1773
" />
<path d="M148.2876 47.1773
L148.2272 47.2982
" />
</g><text x="167.0617" y="56.4572"
textLength="2.3803" font-size="1.6933" lengthAdjust="spacingAndGlyphs"
text-anchor="middle" opacity="0">J2</text>
<g class="stroked-text"><desc>J2</desc>
<path d="M166.6384 55.1317
L166.6384 56.0389
" />
<path d="M166.6384 56.0389
L166.5779 56.2203
" />
<path d="M166.5779 56.2203
L166.4570 56.3413
" />
<path d="M166.4570 56.3413
L166.2755 56.4017
" />
<path d="M166.2755 56.4017
L166.1546 56.4017
" />
<path d="M167.1827 55.2527
L167.2431 55.1922
" />
<path d="M167.2431 55.1922
L167.3641 55.1317
" />
<path d="M167.3641 55.1317
L167.6665 55.1317
" />
<path d="M167.6665 55.1317
L167.7874 55.1922
" />
<path d="M167.7874 55.1922
L167.8479 55.2527
" />
<path d="M167.8479 55.2527
L167.9084 55.3736
" />
<path d="M167.9084 55.3736
L167.9084 55.4946
" />
<path d="M167.9084 55.4946
L167.8479 55.6760
" />
<path d="M167.8479 55.6760
L167.1222 56.4017
" />
<path d="M167.1222 56.4017
L167.9084 56.4017
" />
</g><text x="168.4527" y="54.0329"
textLength="5.1622" font-size="1.6933" lengthAdjust="spacingAndGlyphs"
text-anchor="middle" opacity="0">6P6C</text>
<g class="stroked-text"><desc>6P6C</desc>
<path d="M166.8198 52.7074
L166.5779 52.7074
" />
<path d="M166.5779 52.7074
L166.4570 52.7679
" />
<path d="M166.4570 52.7679
L166.3965 52.8284
" />
<path d="M166.3965 52.8284
L166.2755 53.0098
" />
<path d="M166.2755 53.0098
L166.2151 53.2517
" />
<path d="M166.2151 53.2517
L166.2151 53.7355
" />
<path d="M166.2151 53.7355
L166.2755 53.8565
" />
<path d="M166.2755 53.8565
L166.3360 53.9170
" />
<path d="M166.3360 53.9170
L166.4570 53.9774
" />
<path d="M166.4570 53.9774
L166.6989 53.9774
" />
<path d="M166.6989 53.9774
L166.8198 53.9170
" />
<path d="M166.8198 53.9170
L166.8803 53.8565
" />
<path d="M166.8803 53.8565
L166.9408 53.7355
" />
<path d="M166.9408 53.7355
L166.9408 53.4331
" />
<path d="M166.9408 53.4331
L166.8803 53.3122
" />
<path d="M166.8803 53.3122
L166.8198 53.2517
" />
<path d="M166.8198 53.2517
L166.6989 53.1912
" />
<path d="M166.6989 53.1912
L166.4570 53.1912
" />
<path d="M166.4570 53.1912
L166.3360 53.2517
" />
<path d="M166.3360 53.2517
L166.2755 53.3122
" />
<path d="M166.2755 53.3122
L166.2151 53.4331
" />
<path d="M167.4850 53.9774
L167.4850 52.7074
" />
<path d="M167.4850 52.7074
L167.9688 52.7074
" />
<path d="M167.9688 52.7074
L168.0898 52.7679
" />
<path d="M168.0898 52.7679
L168.1503 52.8284
" />
<path d="M168.1503 52.8284
L168.2107 52.9493
" />
<path d="M168.2107 52.9493
L168.2107 53.1308
" />
<path d="M168.2107 53.1308
L168.1503 53.2517
" />
<path d="M168.1503 53.2517
L168.0898 53.3122
" />
<path d="M168.0898 53.3122
L167.9688 53.3727
" />
<path d="M167.9688 53.3727
L167.4850 53.3727
" />
<path d="M169.2993 52.7074
L169.0574 52.7074
" />
<path d="M169.0574 52.7074
L168.9365 52.7679
" />
<path d="M168.9365 52.7679
L168.8760 52.8284
" />
<path d="M168.8760 52.8284
L168.7550 53.0098
" />
<path d="M168.7550 53.0098
L168.6946 53.2517
" />
<path d="M168.6946 53.2517
L168.6946 53.7355
" />
<path d="M168.6946 53.7355
L168.7550 53.8565
" />
<path d="M168.7550 53.8565
L168.8155 53.9170
" />
<path d="M168.8155 53.9170
L168.9365 53.9774
" />
<path d="M168.9365 53.9774
L169.1784 53.9774
" />
<path d="M169.1784 53.9774
L169.2993 53.9170
" />
<path d="M169.2993 53.9170
L169.3598 53.8565
" />
<path d="M169.3598 53.8565
L169.4203 53.7355
" />
<path d="M169.4203 53.7355
L169.4203 53.4331
" />
<path d="M169.4203 53.4331
L169.3598 53.3122
" />
<path d="M169.3598 53.3122
L169.2993 53.2517
" />
<path d="M169.2993 53.2517
L169.1784 53.1912
" />
<path d="M169.1784 53.1912
L168.9365 53.1912
" />
<path d="M168.9365 53.1912
L168.8155 53.2517
" />
<path d="M168.8155 53.2517
L168.7550 53.3122
" />
<path d="M168.7550 53.3122
L168.6946 53.4331
" />
<path d="M170.6902 53.8565
L170.6298 53.9170
" />
<path d="M170.6298 53.9170
L170.4483 53.9774
" />
<path d="M170.4483 53.9774
L170.3274 53.9774
" />
<path d="M170.3274 53.9774
L170.1460 53.9170
" />
<path d="M170.1460 53.9170
L170.0250 53.7960
" />
<path d="M170.0250 53.7960
L169.9645 53.6750
" />
<path d="M169.9645 53.6750
L169.9041 53.4331
" />
<path d="M169.9041 53.4331
L169.9041 53.2517
" />
<path d="M169.9041 53.2517
L169.9645 53.0098
" />
<path d="M169.9645 53.0098
L170.0250 52.8889
" />
<path d="M170.0250 52.8889
L170.1460 52.7679
" />
<path d="M170.1460 52.7679
L170.3274 52.7074
" />
<path d="M170.3274 52.7074
L170.4483 52.7074
" />
<path d="M170.4483 52.7074
L170.6298 52.7679
" />
<path d="M170.6298 52.7679
L170.6902 52.8284
" />
</g></g>
<g style="fill:none; 
stroke:#000000; stroke-width:1.2700; stroke-opacity:1; 
stroke-linecap:round; stroke-linejoin:round;">
<circle cx="125.7300" cy="111.7600" r="1.2700" /> 
</g>
<g style="fill:none; 
stroke:#000000; stroke-width:0.1524; stroke-opacity:1; 
stroke-linecap:round; stroke-linejoin:round;">
<text x="125.8412" y="109.2200"
textLength="2.7432" font-size="1.6933" lengthAdjust="spacingAndGlyphs"
text-anchor="middle" opacity="0">H2</text>
<g class="stroked-text"><desc>H2</desc>
<path d="M124.8735 109.1645
L124.8735 107.8945
" />
<path d="M124.8735 108.4993
L125.5992 108.4993
" />
<path d="M125.5992 109.1645
L125.5992 107.8945
" />
<path d="M126.1436 108.0155
L126.2040 107.9550
" />
<path d="M126.2040 107.9550
L126.3250 107.8945
" />
<path d="M126.3250 107.8945
L126.6274 107.8945
" />
<path d="M126.6274 107.8945
L126.7483 107.9550
" />
<path d="M126.7483 107.9550
L126.8088 108.0155
" />
<path d="M126.8088 108.0155
L126.8693 108.1364
" />
<path d="M126.8693 108.1364
L126.8693 108.2574
" />
<path d="M126.8693 108.2574
L126.8088 108.4388
" />
<path d="M126.8088 108.4388
L126.0831 109.1645
" />
<path d="M126.0831 109.1645
L126.8693 109.1645
" />
</g></g>
<g style="fill:none; 
stroke:#000000; stroke-width:1.2700; stroke-opacity:1; 
stroke-linecap:round; stroke-linejoin:round;">
<circle cx="114.3000" cy="111.7600" r="1.2700" /> 
</g>
<g style="fill:none; 
stroke:#000000; stroke-width:0.1524; stroke-opacity:1; 
stroke-linecap:round; stroke-linejoin:round;">
<text x="114.4112" y="109.2200"
textLength="2.7432" font-size="1.6933" lengthAdjust="spacingAndGlyphs"
text-anchor="middle" opacity="0">H1</text>
<g class="stroked-text"><desc>H1</desc>
<path d="M113.4435 109.1645
L113.4435 107.8945
" />
<path d="M113.4435 108.4993
L114.1692 108.4993
" />
<path d="M114.1692 109.1645
L114.1692 107.8945
" />
<path d="M115.4393 109.1645
L114.7136 109.1645
" />
<path d="M115.0764 109.1645
L115.0764 107.8945
" />
<path d="M115.0764 107.8945
L114.9555 108.0760
" />
<path d="M114.9555 108.0760
L114.8345 108.1969
" />
<path d="M114.8345 108.1969
L114.7136 108.2574
" />
</g><path style="fill:none; 
stroke:#000000; stroke-width:0.1524; stroke-opacity:1; 
stroke-linecap:round; stroke-linejoin:round;fill:none"
d="M 91.9480,59.6900
92.7100,58.4200
" /> 
<path style="fill:none; 
stroke:#000000; stroke-width:0.1524; stroke-opacity:1; 
stroke-linecap:round; stroke-linejoin:round;fill:none"
d="M 92.7100,60.9600
92.7100,58.4200
" /> 
<path style="fill:none; 
stroke:#000000; stroke-width:0.1524; stroke-opacity:1; 
stroke-linecap:round; stroke-linejoin:round;fill:none"
d="M 92.7100,58.4200
93.4720,59.6900
" /> 
<text x="92.7100" y="57.4619"
textLength="4.0737" font-size="1.6933" lengthAdjust="spacingAndGlyphs"
text-anchor="middle" opacity="0">+5V</text>
<g class="stroked-text"><desc>+5V</desc>
<path d="M91.0771 56.9226
L92.0448 56.9226
" />
<path d="M91.5609 57.4064
L91.5609 56.4388
" />
<path d="M93.2543 56.1364
L92.6495 56.1364
" />
<path d="M92.6495 56.1364
L92.5891 56.7412
" />
<path d="M92.5891 56.7412
L92.6495 56.6807
" />
<path d="M92.6495 56.6807
L92.7705 56.6202
" />
<path d="M92.7705 56.6202
L93.0729 56.6202
" />
<path d="M93.0729 56.6202
L93.1938 56.6807
" />
<path d="M93.1938 56.6807
L93.2543 56.7412
" />
<path d="M93.2543 56.7412
L93.3148 56.8621
" />
<path d="M93.3148 56.8621
L93.3148 57.1645
" />
<path d="M93.3148 57.1645
L93.2543 57.2855
" />
<path d="M93.2543 57.2855
L93.1938 57.3460
" />
<path d="M93.1938 57.3460
L93.0729 57.4064
" />
<path d="M93.0729 57.4064
L92.7705 57.4064
" />
<path d="M92.7705 57.4064
L92.6495 57.3460
" />
<path d="M92.6495 57.3460
L92.5891 57.2855
" />
<path d="M93.6776 56.1364
L94.1009 57.4064
" />
<path d="M94.1009 57.4064
L94.5243 56.1364
" />
</g><path style="fill:none; 
stroke:#000000; stroke-width:0.1524; stroke-opacity:1; 
stroke-linecap:round; stroke-linejoin:round;fill:none"
d="M 101.6000,57.7850
102.8700,57.7850
102.8700,57.7850
" /> 
<path style="fill:none; 
stroke:#000000; stroke-width:0.1524; stroke-opacity:1; 
stroke-linecap:round; stroke-linejoin:round;fill:none"
d="M 101.6000,56.5150
102.8700,56.5150
102.8700,56.5150
" /> 
<path style="fill:none; 
stroke:#000000; stroke-width:0.1524; stroke-opacity:1; 
stroke-linecap:round; stroke-linejoin:round;fill:none"
d="M 101.6000,55.2450
102.8700,55.2450
102.8700,55.2450
" /> 
<path style="fill:none; 
stroke:#000000; stroke-width:0.1524; stroke-opacity:1; 
stroke-linecap:round; stroke-linejoin:round;fill:none"
d="M 101.6000,53.9750
102.8700,53.9750
102.8700,53.9750
" /> 
<path style="fill:none; 
stroke:#000000; stroke-width:0.1524; stroke-opacity:1; 
stroke-linecap:round; stroke-linejoin:round;fill:none"
d="M 101.6000,52.7050
102.8700,52.7050
102.8700,52.7050
" /> 
<path style="fill:none; 
stroke:#000000; stroke-width:0.1524; stroke-opacity:1; 
stroke-linecap:round; stroke-linejoin:round;fill:none"
d="M 102.8700,51.4350
101.6000,51.4350
101.6000,51.4350
" /> 
<path style="fill:none; 
stroke:#000000; stroke-width:0.1524; stroke-opacity:1; 
stroke-linecap:round; stroke-linejoin:round;fill:none"
d="M 101.6000,60.3250
101.6000,48.8950
111.7600,48.8950
111.7600,51.4350
113.0300,51.4350
113.0300,52.7050
114.3000,52.7050
114.3000,56.5150
113.0300,56.5150
113.0300,57.7850
111.7600,57.7850
111.7600,60.3250
101.6000,60.3250
Z" /> 
</g>
<g style="fill:none; 
stroke:#000000; stroke-width:0.2540; stroke-opacity:1; 
stroke-linecap:round; stroke-linejoin:round;">
<rect x="100.330000" y="45.720000" width="15.240000" height="17.780000" rx="0.000000" />
</g>
<g style="fill:none; 
stroke:#000000; stroke-width:0.1524; stroke-opacity:1; 
stroke-linecap:round; stroke-linejoin:round;">
<path d="M115.5700 60.9600
L118.1100 60.9600
" />
<text x="116.8400" y="60.7060"
textLength="1.4127" font-size="1.6933" lengthAdjust="spacingAndGlyphs"
text-anchor="middle" opacity="0">1</text>
<g class="stroked-text"><desc>1</desc>
<path d="M117.2029 60.5425
L116.4772 60.5425
" />
<path d="M116.8400 60.5425
L116.8400 59.2725
" />
<path d="M116.8400 59.2725
L116.7191 59.4540
" />
<path d="M116.7191 59.4540
L116.5981 59.5749
" />
<path d="M116.5981 59.5749
L116.4772 59.6354
" />
</g><path d="M115.5700 58.4200
L118.1100 58.4200
" />
<text x="116.8400" y="58.1660"
textLength="1.4127" font-size="1.6933" lengthAdjust="spacingAndGlyphs"
text-anchor="middle" opacity="0">2</text>
<g class="stroked-text"><desc>2</desc>
<path d="M116.4772 56.8535
L116.5376 56.7930
" />
<path d="M116.5376 56.7930
L116.6586 56.7325
" />
<path d="M116.6586 56.7325
L116.9610 56.7325
" />
<path d="M116.9610 56.7325
L117.0819 56.7930
" />
<path d="M117.0819 56.7930
L117.1424 56.8535
" />
<path d="M117.1424 56.8535
L117.2029 56.9744
" />
<path d="M117.2029 56.9744
L117.2029 57.0954
" />
<path d="M117.2029 57.0954
L117.1424 57.2768
" />
<path d="M117.1424 57.2768
L116.4167 58.0025
" />
<path d="M116.4167 58.0025
L117.2029 58.0025
" />
</g><path d="M115.5700 55.8800
L118.1100 55.8800
" />
<text x="116.8400" y="55.6260"
textLength="1.4127" font-size="1.6933" lengthAdjust="spacingAndGlyphs"
text-anchor="middle" opacity="0">3</text>
<g class="stroked-text"><desc>3</desc>
<path d="M116.4167 54.1925
L117.2029 54.1925
" />
<path d="M117.2029 54.1925
L116.7795 54.6763
" />
<path d="M116.7795 54.6763
L116.9610 54.6763
" />
<path d="M116.9610 54.6763
L117.0819 54.7368
" />
<path d="M117.0819 54.7368
L117.1424 54.7973
" />
<path d="M117.1424 54.7973
L117.2029 54.9182
" />
<path d="M117.2029 54.9182
L117.2029 55.2206
" />
<path d="M117.2029 55.2206
L117.1424 55.3416
" />
<path d="M117.1424 55.3416
L117.0819 55.4021
" />
<path d="M117.0819 55.4021
L116.9610 55.4625
" />
<path d="M116.9610 55.4625
L116.5981 55.4625
" />
<path d="M116.5981 55.4625
L116.4772 55.4021
" />
<path d="M116.4772 55.4021
L116.4167 55.3416
" />
</g><path d="M115.5700 53.3400
L118.1100 53.3400
" />
<text x="116.8400" y="53.0860"
textLength="1.4127" font-size="1.6933" lengthAdjust="spacingAndGlyphs"
text-anchor="middle" opacity="0">4</text>
<g class="stroked-text"><desc>4</desc>
<path d="M117.0819 52.0759
L117.0819 52.9225
" />
<path d="M116.7795 51.5921
L116.4772 52.4992
" />
<path d="M116.4772 52.4992
L117.2633 52.4992
" />
</g><path d="M115.5700 50.8000
L118.1100 50.8000
" />
<text x="116.8400" y="50.5460"
textLength="1.4127" font-size="1.6933" lengthAdjust="spacingAndGlyphs"
text-anchor="middle" opacity="0">5</text>
<g class="stroked-text"><desc>5</desc>
<path d="M117.1424 49.1125
L116.5376 49.1125
" />
<path d="M116.5376 49.1125
L116.4772 49.7173
" />
<path d="M116.4772 49.7173
L116.5376 49.6568
" />
<path d="M116.5376 49.6568
L116.6586 49.5963
" />
<path d="M116.6586 49.5963
L116.9610 49.5963
" />
<path d="M116.9610 49.5963
L117.0819 49.6568
" />
<path d="M117.0819 49.6568
L117.1424 49.7173
" />
<path d="M117.1424 49.7173
L117.2029 49.8382
" />
<path d="M117.2029 49.8382
L117.2029 50.1406
" />
<path d="M117.2029 50.1406
L117.1424 50.2616
" />
<path d="M117.1424 50.2616
L117.0819 50.3221
" />
<path d="M117.0819 50.3221
L116.9610 50.3825
" />
<path d="M116.9610 50.3825
L116.6586 50.3825
" />
<path d="M116.6586 50.3825
L116.5376 50.3221
" />
<path d="M116.5376 50.3221
L116.4772 50.2616
" />
</g><path d="M115.5700 48.2600
L118.1100 48.2600
" />
<text x="116.8400" y="48.0060"
textLength="1.4127" font-size="1.6933" lengthAdjust="spacingAndGlyphs"
text-anchor="middle" opacity="0">6</text>
<g class="stroked-text"><desc>6</desc>
<path d="M117.0819 46.5725
L116.8400 46.5725
" />
<path d="M116.8400 46.5725
L116.7191 46.6330
" />
<path d="M116.7191 46.6330
L116.6586 46.6935
" />
<path d="M116.6586 46.6935
L116.5376 46.8749
" />
<path d="M116.5376 46.8749
L116.4772 47.1168
" />
<path d="M116.4772 47.1168
L116.4772 47.6006
" />
<path d="M116.4772 47.6006
L116.5376 47.7216
" />
<path d="M116.5376 47.7216
L116.5981 47.7821
" />
<path d="M116.5981 47.7821
L116.7191 47.8425
" />
<path d="M116.7191 47.8425
L116.9610 47.8425
" />
<path d="M116.9610 47.8425
L117.0819 47.7821
" />
<path d="M117.0819 47.7821
L117.1424 47.7216
" />
<path d="M117.1424 47.7216
L117.2029 47.6006
" />
<path d="M117.2029 47.6006
L117.2029 47.2982
" />
<path d="M117.2029 47.2982
L117.1424 47.1773
" />
<path d="M117.1424 47.1773
L117.0819 47.1168
" />
<path d="M117.0819 47.1168
L116.9610 47.0563
" />
<path d="M116.9610 47.0563
L116.7191 47.0563
" />
<path d="M116.7191 47.0563
L116.5981 47.1168
" />
<path d="M116.5981 47.1168
L116.5376 47.1773
" />
<path d="M116.5376 47.1773
L116.4772 47.2982
" />
</g><text x="107.9500" y="42.2105"
textLength="2.3803" font-size="1.6933" lengthAdjust="spacingAndGlyphs"
text-anchor="middle" opacity="0">J1</text>
<g class="stroked-text"><desc>J1</desc>
<path d="M107.5267 40.8850
L107.5267 41.7922
" />
<path d="M107.5267 41.7922
L107.4662 41.9736
" />
<path d="M107.4662 41.9736
L107.3453 42.0946
" />
<path d="M107.3453 42.0946
L107.1638 42.1550
" />
<path d="M107.1638 42.1550
L107.0429 42.1550
" />
<path d="M108.7967 42.1550
L108.0710 42.1550
" />
<path d="M108.4338 42.1550
L108.4338 40.8850
" />
<path d="M108.4338 40.8850
L108.3129 41.0665
" />
<path d="M108.3129 41.0665
L108.1919 41.1874
" />
<path d="M108.1919 41.1874
L108.0710 41.2479
" />
</g><text x="107.9500" y="44.6348"
textLength="5.1622" font-size="1.6933" lengthAdjust="spacingAndGlyphs"
text-anchor="middle" opacity="0">6P6C</text>
<g class="stroked-text"><desc>6P6C</desc>
<path d="M106.3171 43.3093
L106.0752 43.3093
" />
<path d="M106.0752 43.3093
L105.9543 43.3698
" />
<path d="M105.9543 43.3698
L105.8938 43.4303
" />
<path d="M105.8938 43.4303
L105.7728 43.6117
" />
<path d="M105.7728 43.6117
L105.7124 43.8536
" />
<path d="M105.7124 43.8536
L105.7124 44.3374
" />
<path d="M105.7124 44.3374
L105.7728 44.4584
" />
<path d="M105.7728 44.4584
L105.8333 44.5189
" />
<path d="M105.8333 44.5189
L105.9543 44.5793
" />
<path d="M105.9543 44.5793
L106.1962 44.5793
" />
<path d="M106.1962 44.5793
L106.3171 44.5189
" />
<path d="M106.3171 44.5189
L106.3776 44.4584
" />
<path d="M106.3776 44.4584
L106.4381 44.3374
" />
<path d="M106.4381 44.3374
L106.4381 44.0350
" />
<path d="M106.4381 44.0350
L106.3776 43.9141
" />
<path d="M106.3776 43.9141
L106.3171 43.8536
" />
<path d="M106.3171 43.8536
L106.1962 43.7931
" />
<path d="M106.1962 43.7931
L105.9543 43.7931
" />
<path d="M105.9543 43.7931
L105.8333 43.8536
" />
<path d="M105.8333 43.8536
L105.7728 43.9141
" />
<path d="M105.7728 43.9141
L105.7124 44.0350
" />
<path d="M106.9823 44.5793
L106.9823 43.3093
" />
<path d="M106.9823 43.3093
L107.4661 43.3093
" />
<path d="M107.4661 43.3093
L107.5871 43.3698
" />
<path d="M107.5871 43.3698
L107.6476 43.4303
" />
<path d="M107.6476 43.4303
L107.7080 43.5512
" />
<path d="M107.7080 43.5512
L107.7080 43.7327
" />
<path d="M107.7080 43.7327
L107.6476 43.8536
" />
<path d="M107.6476 43.8536
L107.5871 43.9141
" />
<path d="M107.5871 43.9141
L107.4661 43.9746
" />
<path d="M107.4661 43.9746
L106.9823 43.9746
" />
<path d="M108.7966 43.3093
L108.5547 43.3093
" />
<path d="M108.5547 43.3093
L108.4338 43.3698
" />
<path d="M108.4338 43.3698
L108.3733 43.4303
" />
<path d="M108.3733 43.4303
L108.2523 43.6117
" />
<path d="M108.2523 43.6117
L108.1919 43.8536
" />
<path d="M108.1919 43.8536
L108.1919 44.3374
" />
<path d="M108.1919 44.3374
L108.2523 44.4584
" />
<path d="M108.2523 44.4584
L108.3128 44.5189
" />
<path d="M108.3128 44.5189
L108.4338 44.5793
" />
<path d="M108.4338 44.5793
L108.6757 44.5793
" />
<path d="M108.6757 44.5793
L108.7966 44.5189
" />
<path d="M108.7966 44.5189
L108.8571 44.4584
" />
<path d="M108.8571 44.4584
L108.9176 44.3374
" />
<path d="M108.9176 44.3374
L108.9176 44.0350
" />
<path d="M108.9176 44.0350
L108.8571 43.9141
" />
<path d="M108.8571 43.9141
L108.7966 43.8536
" />
<path d="M108.7966 43.8536
L108.6757 43.7931
" />
<path d="M108.6757 43.7931
L108.4338 43.7931
" />
<path d="M108.4338 43.7931
L108.3128 43.8536
" />
<path d="M108.3128 43.8536
L108.2523 43.9141
" />
<path d="M108.2523 43.9141
L108.1919 44.0350
" />
<path d="M110.1875 44.4584
L110.1271 44.5189
" />
<path d="M110.1271 44.5189
L109.9456 44.5793
" />
<path d="M109.9456 44.5793
L109.8247 44.5793
" />
<path d="M109.8247 44.5793
L109.6433 44.5189
" />
<path d="M109.6433 44.5189
L109.5223 44.3979
" />
<path d="M109.5223 44.3979
L109.4618 44.2769
" />
<path d="M109.4618 44.2769
L109.4014 44.0350
" />
<path d="M109.4014 44.0350
L109.4014 43.8536
" />
<path d="M109.4014 43.8536
L109.4618 43.6117
" />
<path d="M109.4618 43.6117
L109.5223 43.4908
" />
<path d="M109.5223 43.4908
L109.6433 43.3698
" />
<path d="M109.6433 43.3698
L109.8247 43.3093
" />
<path d="M109.8247 43.3093
L109.9456 43.3093
" />
<path d="M109.9456 43.3093
L110.1271 43.3698
" />
<path d="M110.1271 43.3698
L110.1875 43.4303
" />
</g></g>
<g style="fill:none; 
stroke:#000000; stroke-width:0.1524; stroke-opacity:1; 
stroke-linecap:round; stroke-linejoin:round;">
<text x="85.0900" y="75.8507"
textLength="3.7108" font-size="1.6933" lengthAdjust="spacingAndGlyphs"
text-anchor="start" opacity="0">SCL</text>
<g class="stroked-text"><desc>SCL</desc>
<path d="M85.4321 75.6268
L85.6135 75.6872
" />
<path d="M85.6135 75.6872
L85.9159 75.6872
" />
<path d="M85.9159 75.6872
L86.0368 75.6268
" />
<path d="M86.0368 75.6268
L86.0973 75.5663
" />
<path d="M86.0973 75.5663
L86.1578 75.4453
" />
<path d="M86.1578 75.4453
L86.1578 75.3244
" />
<path d="M86.1578 75.3244
L86.0973 75.2034
" />
<path d="M86.0973 75.2034
L86.0368 75.1429
" />
<path d="M86.0368 75.1429
L85.9159 75.0825
" />
<path d="M85.9159 75.0825
L85.6740 75.0220
" />
<path d="M85.6740 75.0220
L85.5530 74.9615
" />
<path d="M85.5530 74.9615
L85.4925 74.9010
" />
<path d="M85.4925 74.9010
L85.4321 74.7801
" />
<path d="M85.4321 74.7801
L85.4321 74.6591
" />
<path d="M85.4321 74.6591
L85.4925 74.5382
" />
<path d="M85.4925 74.5382
L85.5530 74.4777
" />
<path d="M85.5530 74.4777
L85.6740 74.4172
" />
<path d="M85.6740 74.4172
L85.9763 74.4172
" />
<path d="M85.9763 74.4172
L86.1578 74.4777
" />
<path d="M87.4277 75.5663
L87.3673 75.6268
" />
<path d="M87.3673 75.6268
L87.1858 75.6872
" />
<path d="M87.1858 75.6872
L87.0649 75.6872
" />
<path d="M87.0649 75.6872
L86.8835 75.6268
" />
<path d="M86.8835 75.6268
L86.7625 75.5058
" />
<path d="M86.7625 75.5058
L86.7020 75.3848
" />
<path d="M86.7020 75.3848
L86.6416 75.1429
" />
<path d="M86.6416 75.1429
L86.6416 74.9615
" />
<path d="M86.6416 74.9615
L86.7020 74.7196
" />
<path d="M86.7020 74.7196
L86.7625 74.5987
" />
<path d="M86.7625 74.5987
L86.8835 74.4777
" />
<path d="M86.8835 74.4777
L87.0649 74.4172
" />
<path d="M87.0649 74.4172
L87.1858 74.4172
" />
<path d="M87.1858 74.4172
L87.3673 74.4777
" />
<path d="M87.3673 74.4777
L87.4277 74.5382
" />
<path d="M88.5768 75.6872
L87.9720 75.6872
" />
<path d="M87.9720 75.6872
L87.9720 74.4172
" />
</g></g>
<g style="fill:none; 
stroke:#000000; stroke-width:0.1524; stroke-opacity:1; 
stroke-linecap:round; stroke-linejoin:round;">
<text x="85.0900" y="70.7707"
textLength="3.7713" font-size="1.6933" lengthAdjust="spacingAndGlyphs"
text-anchor="start" opacity="0">SDA</text>
<g class="stroked-text"><desc>SDA</desc>
<path d="M85.4321 70.5468
L85.6135 70.6072
" />
<path d="M85.6135 70.6072
L85.9159 70.6072
" />
<path d="M85.9159 70.6072
L86.0368 70.5468
" />
<path d="M86.0368 70.5468
L86.0973 70.4863
" />
<path d="M86.0973 70.4863
L86.1578 70.3653
" />
<path d="M86.1578 70.3653
L86.1578 70.2444
" />
<path d="M86.1578 70.2444
L86.0973 70.1234
" />
<path d="M86.0973 70.1234
L86.0368 70.0629
" />
<path d="M86.0368 70.0629
L85.9159 70.0025
" />
<path d="M85.9159 70.0025
L85.6740 69.9420
" />
<path d="M85.6740 69.9420
L85.5530 69.8815
" />
<path d="M85.5530 69.8815
L85.4925 69.8210
" />
<path d="M85.4925 69.8210
L85.4321 69.7001
" />
<path d="M85.4321 69.7001
L85.4321 69.5791
" />
<path d="M85.4321 69.5791
L85.4925 69.4582
" />
<path d="M85.4925 69.4582
L85.5530 69.3977
" />
<path d="M85.5530 69.3977
L85.6740 69.3372
" />
<path d="M85.6740 69.3372
L85.9763 69.3372
" />
<path d="M85.9763 69.3372
L86.1578 69.3977
" />
<path d="M86.7020 70.6072
L86.7020 69.3372
" />
<path d="M86.7020 69.3372
L87.0044 69.3372
" />
<path d="M87.0044 69.3372
L87.1858 69.3977
" />
<path d="M87.1858 69.3977
L87.3068 69.5187
" />
<path d="M87.3068 69.5187
L87.3673 69.6396
" />
<path d="M87.3673 69.6396
L87.4277 69.8815
" />
<path d="M87.4277 69.8815
L87.4277 70.0629
" />
<path d="M87.4277 70.0629
L87.3673 70.3048
" />
<path d="M87.3673 70.3048
L87.3068 70.4258
" />
<path d="M87.3068 70.4258
L87.1858 70.5468
" />
<path d="M87.1858 70.5468
L87.0044 70.6072
" />
<path d="M87.0044 70.6072
L86.7020 70.6072
" />
<path d="M87.9116 70.2444
L88.5163 70.2444
" />
<path d="M87.7906 70.6072
L88.2139 69.3372
" />
<path d="M88.2139 69.3372
L88.6373 70.6072
" />
</g></g>
<g style="fill:none; 
stroke:#000000; stroke-width:0.2500; stroke-opacity:1; 
stroke-linecap:round; stroke-linejoin:round;">
<path d="M83.8200 86.3600
L82.5500 86.3600
" />
<path d="M83.8200 86.3600
L83.8200 83.8200
" />
<path d="M92.7100 83.8200
L92.7100 87.6300
" />
<path d="M83.8200 100.3300
L92.7100 100.3300
" />
<path d="M83.8200 102.8700
L82.5500 102.8700
" />
<path d="M83.8200 100.3300
L82.5500 100.3300
" />
<path d="M83.8200 83.8200
L82.5500 83.8200
" />
<path d="M83.8200 83.8200
L92.7100 83.8200
" />
<path d="M83.8200 78.7400
L92.7100 78.7400
" />
<path d="M83.8200 100.3300
L83.8200 102.8700
" />
<path d="M83.8200 105.4100
L92.7100 105.4100
" />
<path d="M92.7100 105.4100
L92.7100 109.2200
" />
<path d="M83.8200 107.9500
L83.8200 105.4100
" />
<path d="M140.9700 50.8000
L140.9700 105.4100
" />
<path d="M83.8200 105.4100
L82.5500 105.4100
" />
</g>
<g style="fill:none; 
stroke:#000000; stroke-width:0.1524; stroke-opacity:1; 
stroke-linecap:round; stroke-linejoin:round;">
<path d="M83.8200 107.9500
L82.5500 107.9500
" />
<path d="M82.5500 76.2000
L83.8200 76.2000
" />
<path d="M83.8200 73.6600
L83.8200 76.2000
" />
<path d="M83.8200 73.6600
L82.5500 73.6600
" />
<path d="M83.8200 68.5800
L82.5500 68.5800
" />
</g>
<g style="fill:none; 
stroke:#000000; stroke-width:0.2500; stroke-opacity:1; 
stroke-linecap:round; stroke-linejoin:round;">
<path d="M92.7100 60.9600
L92.7100 67.3100
" />
</g>
<g style="fill:none; 
stroke:#000000; stroke-width:0.1524; stroke-opacity:1; 
stroke-linecap:round; stroke-linejoin:round;">
<path d="M82.5500 71.1200
L83.8200 71.1200
" />
<path d="M83.8200 68.5800
L83.8200 71.1200
" />
<path d="M118.1100 60.9600
L138.4300 60.9600
" />
<path d="M127.0000 71.1200
L127.0000 55.8800
" />
</g>
<g style="fill:none; 
stroke:#000000; stroke-width:0.2500; stroke-opacity:1; 
stroke-linecap:round; stroke-linejoin:round;">
<path d="M124.4600 48.2600
L147.3200 48.2600
" />
<path d="M133.3500 58.4200
L147.3200 58.4200
" />
</g>
<g style="fill:none; 
stroke:#000000; stroke-width:0.1524; stroke-opacity:1; 
stroke-linecap:round; stroke-linejoin:round;">
<path d="M127.0000 55.8800
L147.3200 55.8800
" />
<path d="M129.5400 53.3400
L147.3200 53.3400
" />
<path d="M138.4300 60.9600
L147.3200 60.9600
" />
</g>
<g style="fill:none; 
stroke:#000000; stroke-width:0.2500; stroke-opacity:1; 
stroke-linecap:round; stroke-linejoin:round;">
<path d="M140.9700 50.8000
L147.3200 50.8000
" />
<path d="M92.7100 67.3100
L92.7100 78.7400
" />
</g>
<g style="fill:none; 
stroke:#000000; stroke-width:0.1524; stroke-opacity:1; 
stroke-linecap:round; stroke-linejoin:round;">
<path d="M83.8200 71.1200
L127.0000 71.1200
" />
</g>
<g style="fill:none; 
stroke:#000000; stroke-width:0.2500; stroke-opacity:1; 
stroke-linecap:round; stroke-linejoin:round;">
<path d="M92.7100 67.3100
L124.4600 67.3100
" />
</g>
<g style="fill:none; 
stroke:#000000; stroke-width:0.1524; stroke-opacity:1; 
stroke-linecap:round; stroke-linejoin:round;">
<path d="M83.8200 76.2000
L129.5400 76.2000
" />
</g>
<g style="fill:none; 
stroke:#000000; stroke-width:0.2500; stroke-opacity:1; 
stroke-linecap:round; stroke-linejoin:round;">
<path d="M92.7100 83.8200
L133.3500 83.8200
" />
<path d="M118.1100 50.8000
L140.9700 50.8000
" />
<path d="M83.8200 78.7400
L83.8200 81.2800
" />
<path d="M118.1100 58.4200
L133.3500 58.4200
" />
<path d="M118.1100 48.2600
L124.4600 48.2600
" />
</g>
<g style="fill:none; 
stroke:#000000; stroke-width:0.1524; stroke-opacity:1; 
stroke-linecap:round; stroke-linejoin:round;">
<path d="M118.1100 55.8800
L127.0000 55.8800
" />
<path d="M118.1100 53.3400
L129.5400 53.3400
" />
</g>
<g style="fill:none; 
stroke:#000000; stroke-width:0.2500; stroke-opacity:1; 
stroke-linecap:round; stroke-linejoin:round;">
<path d="M92.7100 100.3300
L138.4300 100.3300
" />
<path d="M92.7100 105.4100
L140.9700 105.4100
" />
<path d="M138.4300 100.3300
L138.4300 60.9600
" />
<path d="M124.4600 67.3100
L124.4600 48.2600
" />
<path d="M133.3500 58.4200
L133.3500 83.8200
" />
</g>
<g style="fill:none; 
stroke:#000000; stroke-width:0.1524; stroke-opacity:1; 
stroke-linecap:round; stroke-linejoin:round;">
<path d="M129.5400 76.2000
L129.5400 53.3400
" />
</g>
<g style="fill:none; 
stroke:#000000; stroke-width:0.2500; stroke-opacity:1; 
stroke-linecap:round; stroke-linejoin:round;">
<path d="M83.8200 81.2800
L82.5500 81.2800
" />
<path d="M83.8200 78.7400
L82.5500 78.7400
" />
</g>
<g style="fill:none; 
stroke:#000000; stroke-width:0.1524; stroke-opacity:1; 
stroke-linecap:round; stroke-linejoin:round;">
<text x="121.2207" y="120.5230"
textLength="17.3783" font-size="1.6933" lengthAdjust="spacingAndGlyphs"
text-anchor="middle" opacity="0">©H3-H5N6 2024</text>
<g class="stroked-text"><desc>©H3-H5N6 2024</desc>
<path d="M113.9636 119.4999
L113.8427 119.4394
" />
<path d="M113.8427 119.4394
L113.6008 119.4394
" />
<path d="M113.6008 119.4394
L113.4798 119.4999
" />
<path d="M113.4798 119.4999
L113.3589 119.6209
" />
<path d="M113.3589 119.6209
L113.2984 119.7418
" />
<path d="M113.2984 119.7418
L113.2984 119.9837
" />
<path d="M113.2984 119.9837
L113.3589 120.1047
" />
<path d="M113.3589 120.1047
L113.4798 120.2256
" />
<path d="M113.4798 120.2256
L113.6008 120.2861
" />
<path d="M113.6008 120.2861
L113.8427 120.2861
" />
<path d="M113.8427 120.2861
L113.9636 120.2256
" />
<path d="M113.7217 119.0161
L113.4193 119.0766
" />
<path d="M113.4193 119.0766
L113.1170 119.2580
" />
<path d="M113.1170 119.2580
L112.9355 119.5604
" />
<path d="M112.9355 119.5604
L112.8751 119.8628
" />
<path d="M112.8751 119.8628
L112.9355 120.1651
" />
<path d="M112.9355 120.1651
L113.1170 120.4675
" />
<path d="M113.1170 120.4675
L113.4193 120.6490
" />
<path d="M113.4193 120.6490
L113.7217 120.7094
" />
<path d="M113.7217 120.7094
L114.0241 120.6490
" />
<path d="M114.0241 120.6490
L114.3265 120.4675
" />
<path d="M114.3265 120.4675
L114.5079 120.1651
" />
<path d="M114.5079 120.1651
L114.5684 119.8628
" />
<path d="M114.5684 119.8628
L114.5079 119.5604
" />
<path d="M114.5079 119.5604
L114.3265 119.2580
" />
<path d="M114.3265 119.2580
L114.0241 119.0766
" />
<path d="M114.0241 119.0766
L113.7217 119.0161
" />
<path d="M115.1126 120.4675
L115.1126 119.1975
" />
<path d="M115.1126 119.8023
L115.8383 119.8023
" />
<path d="M115.8383 120.4675
L115.8383 119.1975
" />
<path d="M116.3222 119.1975
L117.1084 119.1975
" />
<path d="M117.1084 119.1975
L116.6850 119.6813
" />
<path d="M116.6850 119.6813
L116.8665 119.6813
" />
<path d="M116.8665 119.6813
L116.9874 119.7418
" />
<path d="M116.9874 119.7418
L117.0479 119.8023
" />
<path d="M117.0479 119.8023
L117.1084 119.9232
" />
<path d="M117.1084 119.9232
L117.1084 120.2256
" />
<path d="M117.1084 120.2256
L117.0479 120.3466
" />
<path d="M117.0479 120.3466
L116.9874 120.4071
" />
<path d="M116.9874 120.4071
L116.8665 120.4675
" />
<path d="M116.8665 120.4675
L116.5036 120.4675
" />
<path d="M116.5036 120.4675
L116.3827 120.4071
" />
<path d="M116.3827 120.4071
L116.3222 120.3466
" />
<path d="M117.6526 119.9837
L118.6203 119.9837
" />
<path d="M119.2250 120.4675
L119.2250 119.1975
" />
<path d="M119.2250 119.8023
L119.9507 119.8023
" />
<path d="M119.9507 120.4675
L119.9507 119.1975
" />
<path d="M121.1603 119.1975
L120.5555 119.1975
" />
<path d="M120.5555 119.1975
L120.4951 119.8023
" />
<path d="M120.4951 119.8023
L120.5555 119.7418
" />
<path d="M120.5555 119.7418
L120.6765 119.6813
" />
<path d="M120.6765 119.6813
L120.9789 119.6813
" />
<path d="M120.9789 119.6813
L121.0998 119.7418
" />
<path d="M121.0998 119.7418
L121.1603 119.8023
" />
<path d="M121.1603 119.8023
L121.2208 119.9232
" />
<path d="M121.2208 119.9232
L121.2208 120.2256
" />
<path d="M121.2208 120.2256
L121.1603 120.3466
" />
<path d="M121.1603 120.3466
L121.0998 120.4071
" />
<path d="M121.0998 120.4071
L120.9789 120.4675
" />
<path d="M120.9789 120.4675
L120.6765 120.4675
" />
<path d="M120.6765 120.4675
L120.5555 120.4071
" />
<path d="M120.5555 120.4071
L120.4951 120.3466
" />
<path d="M121.7650 120.4675
L121.7650 119.1975
" />
<path d="M121.7650 119.1975
L122.4907 120.4675
" />
<path d="M122.4907 120.4675
L122.4907 119.1975
" />
<path d="M123.6398 119.1975
L123.3979 119.1975
" />
<path d="M123.3979 119.1975
L123.2770 119.2580
" />
<path d="M123.2770 119.2580
L123.2165 119.3185
" />
<path d="M123.2165 119.3185
L123.0955 119.4999
" />
<path d="M123.0955 119.4999
L123.0351 119.7418
" />
<path d="M123.0351 119.7418
L123.0351 120.2256
" />
<path d="M123.0351 120.2256
L123.0955 120.3466
" />
<path d="M123.0955 120.3466
L123.1560 120.4071
" />
<path d="M123.1560 120.4071
L123.2770 120.4675
" />
<path d="M123.2770 120.4675
L123.5189 120.4675
" />
<path d="M123.5189 120.4675
L123.6398 120.4071
" />
<path d="M123.6398 120.4071
L123.7003 120.3466
" />
<path d="M123.7003 120.3466
L123.7608 120.2256
" />
<path d="M123.7608 120.2256
L123.7608 119.9232
" />
<path d="M123.7608 119.9232
L123.7003 119.8023
" />
<path d="M123.7003 119.8023
L123.6398 119.7418
" />
<path d="M123.6398 119.7418
L123.5189 119.6813
" />
<path d="M123.5189 119.6813
L123.2770 119.6813
" />
<path d="M123.2770 119.6813
L123.1560 119.7418
" />
<path d="M123.1560 119.7418
L123.0955 119.8023
" />
<path d="M123.0955 119.8023
L123.0351 119.9232
" />
<path d="M125.2122 119.3185
L125.2726 119.2580
" />
<path d="M125.2726 119.2580
L125.3936 119.1975
" />
<path d="M125.3936 119.1975
L125.6960 119.1975
" />
<path d="M125.6960 119.1975
L125.8169 119.2580
" />
<path d="M125.8169 119.2580
L125.8774 119.3185
" />
<path d="M125.8774 119.3185
L125.9379 119.4394
" />
<path d="M125.9379 119.4394
L125.9379 119.5604
" />
<path d="M125.9379 119.5604
L125.8774 119.7418
" />
<path d="M125.8774 119.7418
L125.1517 120.4675
" />
<path d="M125.1517 120.4675
L125.9379 120.4675
" />
<path d="M126.7240 119.1975
L126.8450 119.1975
" />
<path d="M126.8450 119.1975
L126.9659 119.2580
" />
<path d="M126.9659 119.2580
L127.0264 119.3185
" />
<path d="M127.0264 119.3185
L127.0869 119.4394
" />
<path d="M127.0869 119.4394
L127.1474 119.6813
" />
<path d="M127.1474 119.6813
L127.1474 119.9837
" />
<path d="M127.1474 119.9837
L127.0869 120.2256
" />
<path d="M127.0869 120.2256
L127.0264 120.3466
" />
<path d="M127.0264 120.3466
L126.9659 120.4071
" />
<path d="M126.9659 120.4071
L126.8450 120.4675
" />
<path d="M126.8450 120.4675
L126.7240 120.4675
" />
<path d="M126.7240 120.4675
L126.6031 120.4071
" />
<path d="M126.6031 120.4071
L126.5426 120.3466
" />
<path d="M126.5426 120.3466
L126.4821 120.2256
" />
<path d="M126.4821 120.2256
L126.4217 119.9837
" />
<path d="M126.4217 119.9837
L126.4217 119.6813
" />
<path d="M126.4217 119.6813
L126.4821 119.4394
" />
<path d="M126.4821 119.4394
L126.5426 119.3185
" />
<path d="M126.5426 119.3185
L126.6031 119.2580
" />
<path d="M126.6031 119.2580
L126.7240 119.1975
" />
<path d="M127.6312 119.3185
L127.6916 119.2580
" />
<path d="M127.6916 119.2580
L127.8126 119.1975
" />
<path d="M127.8126 119.1975
L128.1150 119.1975
" />
<path d="M128.1150 119.1975
L128.2359 119.2580
" />
<path d="M128.2359 119.2580
L128.2964 119.3185
" />
<path d="M128.2964 119.3185
L128.3569 119.4394
" />
<path d="M128.3569 119.4394
L128.3569 119.5604
" />
<path d="M128.3569 119.5604
L128.2964 119.7418
" />
<path d="M128.2964 119.7418
L127.5707 120.4675
" />
<path d="M127.5707 120.4675
L128.3569 120.4675
" />
<path d="M129.4454 119.6209
L129.4454 120.4675
" />
<path d="M129.1430 119.1371
L128.8407 120.0442
" />
<path d="M128.8407 120.0442
L129.6268 120.0442
" />
</g><text x="124.0026" y="117.7290"
textLength="22.9421" font-size="1.6933" lengthAdjust="spacingAndGlyphs"
text-anchor="middle" opacity="0">I²C-RJ12-Adapter v1.0</text>
<g class="stroked-text"><desc>I²C-RJ12-Adapter v1.0</desc>
<path d="M112.9355 117.6735
L112.9355 116.4035
" />
<path d="M113.4799 116.1011
L113.6008 116.0407
" />
<path d="M113.6008 116.0407
L113.7822 116.0407
" />
<path d="M113.7822 116.0407
L113.9032 116.1011
" />
<path d="M113.9032 116.1011
L113.9637 116.2221
" />
<path d="M113.9637 116.2221
L113.9637 116.3431
" />
<path d="M113.9637 116.3431
L113.9032 116.4640
" />
<path d="M113.9032 116.4640
L113.4799 116.8873
" />
<path d="M113.4799 116.8873
L113.9637 116.8873
" />
<path d="M115.2336 117.5526
L115.1732 117.6131
" />
<path d="M115.1732 117.6131
L114.9917 117.6735
" />
<path d="M114.9917 117.6735
L114.8708 117.6735
" />
<path d="M114.8708 117.6735
L114.6894 117.6131
" />
<path d="M114.6894 117.6131
L114.5684 117.4921
" />
<path d="M114.5684 117.4921
L114.5079 117.3711
" />
<path d="M114.5079 117.3711
L114.4475 117.1292
" />
<path d="M114.4475 117.1292
L114.4475 116.9478
" />
<path d="M114.4475 116.9478
L114.5079 116.7059
" />
<path d="M114.5079 116.7059
L114.5684 116.5850
" />
<path d="M114.5684 116.5850
L114.6894 116.4640
" />
<path d="M114.6894 116.4640
L114.8708 116.4035
" />
<path d="M114.8708 116.4035
L114.9917 116.4035
" />
<path d="M114.9917 116.4035
L115.1732 116.4640
" />
<path d="M115.1732 116.4640
L115.2336 116.5245
" />
<path d="M115.7779 117.1897
L116.7456 117.1897
" />
<path d="M118.0760 117.6735
L117.6527 117.0688
" />
<path d="M117.3503 117.6735
L117.3503 116.4035
" />
<path d="M117.3503 116.4035
L117.8341 116.4035
" />
<path d="M117.8341 116.4035
L117.9551 116.4640
" />
<path d="M117.9551 116.4640
L118.0156 116.5245
" />
<path d="M118.0156 116.5245
L118.0760 116.6454
" />
<path d="M118.0760 116.6454
L118.0760 116.8269
" />
<path d="M118.0760 116.8269
L118.0156 116.9478
" />
<path d="M118.0156 116.9478
L117.9551 117.0083
" />
<path d="M117.9551 117.0083
L117.8341 117.0688
" />
<path d="M117.8341 117.0688
L117.3503 117.0688
" />
<path d="M118.9832 116.4035
L118.9832 117.3107
" />
<path d="M118.9832 117.3107
L118.9227 117.4921
" />
<path d="M118.9227 117.4921
L118.8018 117.6131
" />
<path d="M118.8018 117.6131
L118.6203 117.6735
" />
<path d="M118.6203 117.6735
L118.4994 117.6735
" />
<path d="M120.2532 117.6735
L119.5275 117.6735
" />
<path d="M119.8903 117.6735
L119.8903 116.4035
" />
<path d="M119.8903 116.4035
L119.7694 116.5850
" />
<path d="M119.7694 116.5850
L119.6484 116.7059
" />
<path d="M119.6484 116.7059
L119.5275 116.7664
" />
<path d="M120.7370 116.5245
L120.7974 116.4640
" />
<path d="M120.7974 116.4640
L120.9184 116.4035
" />
<path d="M120.9184 116.4035
L121.2208 116.4035
" />
<path d="M121.2208 116.4035
L121.3417 116.4640
" />
<path d="M121.3417 116.4640
L121.4022 116.5245
" />
<path d="M121.4022 116.5245
L121.4627 116.6454
" />
<path d="M121.4627 116.6454
L121.4627 116.7664
" />
<path d="M121.4627 116.7664
L121.4022 116.9478
" />
<path d="M121.4022 116.9478
L120.6765 117.6735
" />
<path d="M120.6765 117.6735
L121.4627 117.6735
" />
<path d="M122.0069 117.1897
L122.9746 117.1897
" />
<path d="M123.5189 117.3107
L124.1236 117.3107
" />
<path d="M123.3979 117.6735
L123.8212 116.4035
" />
<path d="M123.8212 116.4035
L124.2446 117.6735
" />
<path d="M125.2122 117.6735
L125.2122 116.4035
" />
<path d="M125.2122 117.6131
L125.0913 117.6735
" />
<path d="M125.0913 117.6735
L124.8494 117.6735
" />
<path d="M124.8494 117.6735
L124.7284 117.6131
" />
<path d="M124.7284 117.6131
L124.6679 117.5526
" />
<path d="M124.6679 117.5526
L124.6075 117.4316
" />
<path d="M124.6075 117.4316
L124.6075 117.0688
" />
<path d="M124.6075 117.0688
L124.6679 116.9478
" />
<path d="M124.6679 116.9478
L124.7284 116.8873
" />
<path d="M124.7284 116.8873
L124.8494 116.8269
" />
<path d="M124.8494 116.8269
L125.0913 116.8269
" />
<path d="M125.0913 116.8269
L125.2122 116.8873
" />
<path d="M126.3612 117.6735
L126.3612 117.0083
" />
<path d="M126.3612 117.0083
L126.3007 116.8873
" />
<path d="M126.3007 116.8873
L126.1798 116.8269
" />
<path d="M126.1798 116.8269
L125.9379 116.8269
" />
<path d="M125.9379 116.8269
L125.8169 116.8873
" />
<path d="M126.3612 117.6131
L126.2403 117.6735
" />
<path d="M126.2403 117.6735
L125.9379 117.6735
" />
<path d="M125.9379 117.6735
L125.8169 117.6131
" />
<path d="M125.8169 117.6131
L125.7565 117.4921
" />
<path d="M125.7565 117.4921
L125.7565 117.3711
" />
<path d="M125.7565 117.3711
L125.8169 117.2502
" />
<path d="M125.8169 117.2502
L125.9379 117.1897
" />
<path d="M125.9379 117.1897
L126.2403 117.1897
" />
<path d="M126.2403 117.1897
L126.3612 117.1292
" />
<path d="M126.9659 116.8269
L126.9659 118.0969
" />
<path d="M126.9659 116.8873
L127.0869 116.8269
" />
<path d="M127.0869 116.8269
L127.3288 116.8269
" />
<path d="M127.3288 116.8269
L127.4497 116.8873
" />
<path d="M127.4497 116.8873
L127.5102 116.9478
" />
<path d="M127.5102 116.9478
L127.5707 117.0688
" />
<path d="M127.5707 117.0688
L127.5707 117.4316
" />
<path d="M127.5707 117.4316
L127.5102 117.5526
" />
<path d="M127.5102 117.5526
L127.4497 117.6131
" />
<path d="M127.4497 117.6131
L127.3288 117.6735
" />
<path d="M127.3288 117.6735
L127.0869 117.6735
" />
<path d="M127.0869 117.6735
L126.9659 117.6131
" />
<path d="M127.9335 116.8269
L128.4173 116.8269
" />
<path d="M128.1149 116.4035
L128.1149 117.4921
" />
<path d="M128.1149 117.4921
L128.1754 117.6131
" />
<path d="M128.1754 117.6131
L128.2964 117.6735
" />
<path d="M128.2964 117.6735
L128.4173 117.6735
" />
<path d="M129.3244 117.6131
L129.2035 117.6735
" />
<path d="M129.2035 117.6735
L128.9616 117.6735
" />
<path d="M128.9616 117.6735
L128.8406 117.6131
" />
<path d="M128.8406 117.6131
L128.7802 117.4921
" />
<path d="M128.7802 117.4921
L128.7802 117.0083
" />
<path d="M128.7802 117.0083
L128.8406 116.8873
" />
<path d="M128.8406 116.8873
L128.9616 116.8269
" />
<path d="M128.9616 116.8269
L129.2035 116.8269
" />
<path d="M129.2035 116.8269
L129.3244 116.8873
" />
<path d="M129.3244 116.8873
L129.3849 117.0083
" />
<path d="M129.3849 117.0083
L129.3849 117.1292
" />
<path d="M129.3849 117.1292
L128.7802 117.2502
" />
<path d="M129.9292 117.6735
L129.9292 116.8269
" />
<path d="M129.9292 117.0688
L129.9897 116.9478
" />
<path d="M129.9897 116.9478
L130.0502 116.8873
" />
<path d="M130.0502 116.8873
L130.1711 116.8269
" />
<path d="M130.1711 116.8269
L130.2921 116.8269
" />
<path d="M131.5621 116.8269
L131.8645 117.6735
" />
<path d="M131.8645 117.6735
L132.1668 116.8269
" />
<path d="M133.3159 117.6735
L132.5902 117.6735
" />
<path d="M132.9530 117.6735
L132.9530 116.4035
" />
<path d="M132.9530 116.4035
L132.8321 116.5850
" />
<path d="M132.8321 116.5850
L132.7111 116.7059
" />
<path d="M132.7111 116.7059
L132.5902 116.7664
" />
<path d="M133.8601 117.5526
L133.9206 117.6131
" />
<path d="M133.9206 117.6131
L133.8601 117.6735
" />
<path d="M133.8601 117.6735
L133.7997 117.6131
" />
<path d="M133.7997 117.6131
L133.8601 117.5526
" />
<path d="M133.8601 117.5526
L133.8601 117.6735
" />
<path d="M134.7068 116.4035
L134.8278 116.4035
" />
<path d="M134.8278 116.4035
L134.9487 116.4640
" />
<path d="M134.9487 116.4640
L135.0092 116.5245
" />
<path d="M135.0092 116.5245
L135.0697 116.6454
" />
<path d="M135.0697 116.6454
L135.1302 116.8873
" />
<path d="M135.1302 116.8873
L135.1302 117.1897
" />
<path d="M135.1302 117.1897
L135.0697 117.4316
" />
<path d="M135.0697 117.4316
L135.0092 117.5526
" />
<path d="M135.0092 117.5526
L134.9487 117.6131
" />
<path d="M134.9487 117.6131
L134.8278 117.6735
" />
<path d="M134.8278 117.6735
L134.7068 117.6735
" />
<path d="M134.7068 117.6735
L134.5859 117.6131
" />
<path d="M134.5859 117.6131
L134.5254 117.5526
" />
<path d="M134.5254 117.5526
L134.4649 117.4316
" />
<path d="M134.4649 117.4316
L134.4045 117.1897
" />
<path d="M134.4045 117.1897
L134.4045 116.8873
" />
<path d="M134.4045 116.8873
L134.4649 116.6454
" />
<path d="M134.4649 116.6454
L134.5254 116.5245
" />
<path d="M134.5254 116.5245
L134.5859 116.4640
" />
<path d="M134.5859 116.4640
L134.7068 116.4035
" />
</g></g>
<g style="fill:#000000; fill-opacity:1.0000; 
stroke:#000000; stroke-width:0.1524; stroke-opacity:1; 
stroke-linecap:round; stroke-linejoin:round;">
<circle cx="127.0000" cy="55.8800" r="0.4572" /> 
<circle cx="124.4600" cy="48.2600" r="0.4572" /> 
<circle cx="138.4300" cy="60.9600" r="0.4572" /> 
<circle cx="140.9700" cy="50.8000" r="0.4572" /> 
<circle cx="133.3500" cy="58.4200" r="0.4572" /> 
<circle cx="129.5400" cy="53.3400" r="0.4572" /> 
<circle cx="83.8200" cy="83.8200" r="0.4572" /> 
<circle cx="83.8200" cy="78.7400" r="0.4572" /> 
<circle cx="92.7100" cy="83.8200" r="0.4572" /> 
<circle cx="92.7100" cy="105.4100" r="0.4572" /> 
<circle cx="92.7100" cy="100.3300" r="0.4572" /> 
<circle cx="83.8200" cy="100.3300" r="0.4572" /> 
<circle cx="83.8200" cy="105.4100" r="0.4572" /> 
<circle cx="83.8200" cy="76.2000" r="0.4572" /> 
<circle cx="83.8200" cy="71.1200" r="0.4572" /> 
<circle cx="92.7100" cy="67.3100" r="0.4572" /> 
</g> 
</svg>
