<?xml version="1.0" standalone="no"?>
 <!DOCTYPE svg PUBLIC "-//W3C//DTD SVG 1.1//EN" 
 "http://www.w3.org/Graphics/SVG/1.1/DTD/svg11.dtd"> 
<svg
  xmlns:svg="http://www.w3.org/2000/svg"
  xmlns="http://www.w3.org/2000/svg"
  xmlns:xlink="http://www.w3.org/1999/xlink"
  version="1.1"
  width="46.2280mm" height="53.3400mm" viewBox="0.0000 0.0000 46.2280 53.3400">
<title>SVG Image created as RJ12-I2C-12V-Adapter.kicad_pcb_F.svg date 2024/04/05 23:36:23 </title>
  <desc>Image generated by PCBNEW </desc>
<g style="fill:#000000; fill-opacity:1.0000;stroke:#000000; stroke-opacity:1.0000;
stroke-linecap:round; stroke-linejoin:round;"
 transform="translate(0 0) scale(1 1)">
</g>
<g style="fill:#840084; fill-opacity:1.0000; stroke:none;">
<circle cx="25.4600" cy="37.3400" r="1.6250" /> 
</g>
<g style="fill:#840084; fill-opacity:1.0000; stroke:none;">
<circle cx="35.6200" cy="37.3400" r="1.6250" /> 
<path style="fill:#840084; fill-opacity:1.0000; stroke:none;fill-rule:evenodd;"
d="M 26.6100,29.2100
26.6100,27.6900
28.1300,27.6900
28.1300,29.2100
Z" /> 
</g>
<g style="fill:#840084; fill-opacity:1.0000; stroke:none;">
<circle cx="28.6400" cy="30.9900" r="0.7600" /> 
</g>
<g style="fill:#840084; fill-opacity:1.0000; stroke:none;">
<circle cx="29.9100" cy="28.4500" r="0.7600" /> 
</g>
<g style="fill:#840084; fill-opacity:1.0000; stroke:none;">
<circle cx="31.1800" cy="30.9900" r="0.7600" /> 
</g>
<g style="fill:#840084; fill-opacity:1.0000; stroke:none;">
<circle cx="32.4500" cy="28.4500" r="0.7600" /> 
</g>
<g style="fill:#840084; fill-opacity:1.0000; stroke:none;">
<circle cx="33.7200" cy="30.9900" r="0.7600" /> 
<path style="fill:#840084; fill-opacity:1.0000; stroke:none;fill-rule:evenodd;"
d="M 17.6700,8.2200
15.4700,8.2200
15.4700,0.7200
17.6700,0.7200
Z" /> 
</g>
<g style="fill:#840084; fill-opacity:1.0000; stroke:none;">
<circle cx="19.7450" cy="41.3000" r="1.6000" /> 
</g>
<g style="fill:#840084; fill-opacity:1.0000; stroke:none;">
<circle cx="35.6250" cy="8.4300" r="1.6250" /> 
</g>
<g style="fill:#840084; fill-opacity:1.0000; stroke:none;">
<circle cx="25.4650" cy="8.4300" r="1.6250" /> 
<path style="fill:#840084; fill-opacity:1.0000; stroke:none;fill-rule:evenodd;"
d="M 34.4750,16.5600
34.4750,18.0800
32.9550,18.0800
32.9550,16.5600
Z" /> 
</g>
<g style="fill:#840084; fill-opacity:1.0000; stroke:none;">
<circle cx="32.4450" cy="14.7800" r="0.7600" /> 
</g>
<g style="fill:#840084; fill-opacity:1.0000; stroke:none;">
<circle cx="31.1750" cy="17.3200" r="0.7600" /> 
</g>
<g style="fill:#840084; fill-opacity:1.0000; stroke:none;">
<circle cx="29.9050" cy="14.7800" r="0.7600" /> 
</g>
<g style="fill:#840084; fill-opacity:1.0000; stroke:none;">
<circle cx="28.6350" cy="17.3200" r="0.7600" /> 
</g>
<g style="fill:#840084; fill-opacity:1.0000; stroke:none;">
<circle cx="27.3650" cy="14.7800" r="0.7600" /> 
<path style="fill:#840084; fill-opacity:1.0000; stroke:none;fill-rule:evenodd;"
d="M 21.6070,8.2200
19.4070,8.2200
19.4070,0.7200
21.6070,0.7200
Z" /> 
<path style="fill:#840084; fill-opacity:1.0000; stroke:none;fill-rule:evenodd;"
d="M 15.7200,35.1650
15.7200,33.4650
17.4200,33.4650
17.4200,35.1650
Z" /> 
</g>
<g style="fill:#840084; fill-opacity:1.0000; stroke:none;">
<circle cx="14.0300" cy="34.3150" r="0.8500" /> 
<circle cx="16.5700" cy="31.7750" r="0.8500" /> 
<circle cx="14.0300" cy="31.7750" r="0.8500" /> 
<path style="fill:#840084; fill-opacity:1.0000; stroke:none;fill-rule:evenodd;"
d="M 15.7200,26.2850
15.7200,24.5850
17.4200,24.5850
17.4200,26.2850
Z" /> 
<circle cx="14.0300" cy="25.4350" r="0.8500" /> 
<circle cx="16.5700" cy="22.8950" r="0.8500" /> 
<circle cx="14.0300" cy="22.8950" r="0.8500" /> 
<circle cx="16.5700" cy="20.3550" r="0.8500" /> 
<circle cx="14.0300" cy="20.3550" r="0.8500" /> 
<circle cx="16.5700" cy="17.8150" r="0.8500" /> 
<circle cx="14.0300" cy="17.8150" r="0.8500" /> 
</g>
<g style="fill:none; 
stroke:#008484; stroke-width:0.1500; stroke-opacity:1; 
stroke-linecap:round; stroke-linejoin:round;">
<text x="18.4750" y="34.8250"
textLength="3.2976" font-size="1.3333" lengthAdjust="spacingAndGlyphs"
text-anchor="start" opacity="0">GND</text>
<g class="stroked-text"><desc>GND</desc>
<path d="M19.3356 33.8274
L19.2403 33.7798
" />
<path d="M19.2403 33.7798
L19.0975 33.7798
" />
<path d="M19.0975 33.7798
L18.9546 33.8274
" />
<path d="M18.9546 33.8274
L18.8594 33.9227
" />
<path d="M18.8594 33.9227
L18.8118 34.0179
" />
<path d="M18.8118 34.0179
L18.7642 34.2084
" />
<path d="M18.7642 34.2084
L18.7642 34.3512
" />
<path d="M18.7642 34.3512
L18.8118 34.5417
" />
<path d="M18.8118 34.5417
L18.8594 34.6370
" />
<path d="M18.8594 34.6370
L18.9546 34.7322
" />
<path d="M18.9546 34.7322
L19.0975 34.7798
" />
<path d="M19.0975 34.7798
L19.1927 34.7798
" />
<path d="M19.1927 34.7798
L19.3356 34.7322
" />
<path d="M19.3356 34.7322
L19.3832 34.6846
" />
<path d="M19.3832 34.6846
L19.3832 34.3512
" />
<path d="M19.3832 34.3512
L19.1927 34.3512
" />
<path d="M19.8118 34.7798
L19.8118 33.7798
" />
<path d="M19.8118 33.7798
L20.3832 34.7798
" />
<path d="M20.3832 34.7798
L20.3832 33.7798
" />
<path d="M20.8594 34.7798
L20.8594 33.7798
" />
<path d="M20.8594 33.7798
L21.0975 33.7798
" />
<path d="M21.0975 33.7798
L21.2403 33.8274
" />
<path d="M21.2403 33.8274
L21.3356 33.9227
" />
<path d="M21.3356 33.9227
L21.3832 34.0179
" />
<path d="M21.3832 34.0179
L21.4308 34.2084
" />
<path d="M21.4308 34.2084
L21.4308 34.3512
" />
<path d="M21.4308 34.3512
L21.3832 34.5417
" />
<path d="M21.3832 34.5417
L21.3356 34.6370
" />
<path d="M21.3356 34.6370
L21.2403 34.7322
" />
<path d="M21.2403 34.7322
L21.0975 34.7798
" />
<path d="M21.0975 34.7798
L20.8594 34.7798
" />
</g><text x="18.4850" y="25.9350"
textLength="3.2976" font-size="1.3333" lengthAdjust="spacingAndGlyphs"
text-anchor="start" opacity="0">GND</text>
<g class="stroked-text"><desc>GND</desc>
<path d="M19.3456 24.9374
L19.2503 24.8898
" />
<path d="M19.2503 24.8898
L19.1075 24.8898
" />
<path d="M19.1075 24.8898
L18.9646 24.9374
" />
<path d="M18.9646 24.9374
L18.8694 25.0327
" />
<path d="M18.8694 25.0327
L18.8218 25.1279
" />
<path d="M18.8218 25.1279
L18.7742 25.3184
" />
<path d="M18.7742 25.3184
L18.7742 25.4612
" />
<path d="M18.7742 25.4612
L18.8218 25.6517
" />
<path d="M18.8218 25.6517
L18.8694 25.7470
" />
<path d="M18.8694 25.7470
L18.9646 25.8422
" />
<path d="M18.9646 25.8422
L19.1075 25.8898
" />
<path d="M19.1075 25.8898
L19.2027 25.8898
" />
<path d="M19.2027 25.8898
L19.3456 25.8422
" />
<path d="M19.3456 25.8422
L19.3932 25.7946
" />
<path d="M19.3932 25.7946
L19.3932 25.4612
" />
<path d="M19.3932 25.4612
L19.2027 25.4612
" />
<path d="M19.8218 25.8898
L19.8218 24.8898
" />
<path d="M19.8218 24.8898
L20.3932 25.8898
" />
<path d="M20.3932 25.8898
L20.3932 24.8898
" />
<path d="M20.8694 25.8898
L20.8694 24.8898
" />
<path d="M20.8694 24.8898
L21.1075 24.8898
" />
<path d="M21.1075 24.8898
L21.2503 24.9374
" />
<path d="M21.2503 24.9374
L21.3456 25.0327
" />
<path d="M21.3456 25.0327
L21.3932 25.1279
" />
<path d="M21.3932 25.1279
L21.4408 25.3184
" />
<path d="M21.4408 25.3184
L21.4408 25.4612
" />
<path d="M21.4408 25.4612
L21.3932 25.6517
" />
<path d="M21.3932 25.6517
L21.3456 25.7470
" />
<path d="M21.3456 25.7470
L21.2503 25.8422
" />
<path d="M21.2503 25.8422
L21.1075 25.8898
" />
<path d="M21.1075 25.8898
L20.8694 25.8898
" />
</g><text x="18.4850" y="23.3950"
textLength="3.2976" font-size="1.3333" lengthAdjust="spacingAndGlyphs"
text-anchor="start" opacity="0">+5V</text>
<g class="stroked-text"><desc>+5V</desc>
<path d="M18.8218 22.9689
L19.5837 22.9689
" />
<path d="M19.2027 23.3498
L19.2027 22.5879
" />
<path d="M20.5361 22.3498
L20.0599 22.3498
" />
<path d="M20.0599 22.3498
L20.0123 22.8260
" />
<path d="M20.0123 22.8260
L20.0599 22.7784
" />
<path d="M20.0599 22.7784
L20.1551 22.7308
" />
<path d="M20.1551 22.7308
L20.3932 22.7308
" />
<path d="M20.3932 22.7308
L20.4884 22.7784
" />
<path d="M20.4884 22.7784
L20.5361 22.8260
" />
<path d="M20.5361 22.8260
L20.5837 22.9212
" />
<path d="M20.5837 22.9212
L20.5837 23.1593
" />
<path d="M20.5837 23.1593
L20.5361 23.2546
" />
<path d="M20.5361 23.2546
L20.4884 23.3022
" />
<path d="M20.4884 23.3022
L20.3932 23.3498
" />
<path d="M20.3932 23.3498
L20.1551 23.3498
" />
<path d="M20.1551 23.3498
L20.0599 23.3022
" />
<path d="M20.0599 23.3022
L20.0123 23.2546
" />
<path d="M20.8694 22.3498
L21.2027 23.3498
" />
<path d="M21.2027 23.3498
L21.5361 22.3498
" />
</g><text x="18.4750" y="32.2750"
textLength="4.2500" font-size="1.3333" lengthAdjust="spacingAndGlyphs"
text-anchor="start" opacity="0">+12V</text>
<g class="stroked-text"><desc>+12V</desc>
<path d="M18.8118 31.8489
L19.5737 31.8489
" />
<path d="M19.1927 32.2298
L19.1927 31.4679
" />
<path d="M20.5737 32.2298
L20.0023 32.2298
" />
<path d="M20.2880 32.2298
L20.2880 31.2298
" />
<path d="M20.2880 31.2298
L20.1927 31.3727
" />
<path d="M20.1927 31.3727
L20.0975 31.4679
" />
<path d="M20.0975 31.4679
L20.0023 31.5155
" />
<path d="M20.9546 31.3251
L21.0023 31.2774
" />
<path d="M21.0023 31.2774
L21.0975 31.2298
" />
<path d="M21.0975 31.2298
L21.3356 31.2298
" />
<path d="M21.3356 31.2298
L21.4308 31.2774
" />
<path d="M21.4308 31.2774
L21.4784 31.3251
" />
<path d="M21.4784 31.3251
L21.5261 31.4203
" />
<path d="M21.5261 31.4203
L21.5261 31.5155
" />
<path d="M21.5261 31.5155
L21.4784 31.6584
" />
<path d="M21.4784 31.6584
L20.9070 32.2298
" />
<path d="M20.9070 32.2298
L21.5261 32.2298
" />
<path d="M21.8118 31.2298
L22.1451 32.2298
" />
<path d="M22.1451 32.2298
L22.4784 31.2298
" />
</g><text x="18.4850" y="18.3150"
textLength="3.0595" font-size="1.3333" lengthAdjust="spacingAndGlyphs"
text-anchor="start" opacity="0">SDA</text>
<g class="stroked-text"><desc>SDA</desc>
<path d="M18.7742 18.2222
L18.9170 18.2698
" />
<path d="M18.9170 18.2698
L19.1551 18.2698
" />
<path d="M19.1551 18.2698
L19.2503 18.2222
" />
<path d="M19.2503 18.2222
L19.2980 18.1746
" />
<path d="M19.2980 18.1746
L19.3456 18.0793
" />
<path d="M19.3456 18.0793
L19.3456 17.9841
" />
<path d="M19.3456 17.9841
L19.2980 17.8889
" />
<path d="M19.2980 17.8889
L19.2503 17.8412
" />
<path d="M19.2503 17.8412
L19.1551 17.7936
" />
<path d="M19.1551 17.7936
L18.9646 17.7460
" />
<path d="M18.9646 17.7460
L18.8694 17.6984
" />
<path d="M18.8694 17.6984
L18.8218 17.6508
" />
<path d="M18.8218 17.6508
L18.7742 17.5555
" />
<path d="M18.7742 17.5555
L18.7742 17.4603
" />
<path d="M18.7742 17.4603
L18.8218 17.3651
" />
<path d="M18.8218 17.3651
L18.8694 17.3174
" />
<path d="M18.8694 17.3174
L18.9646 17.2698
" />
<path d="M18.9646 17.2698
L19.2027 17.2698
" />
<path d="M19.2027 17.2698
L19.3456 17.3174
" />
<path d="M19.7742 18.2698
L19.7742 17.2698
" />
<path d="M19.7742 17.2698
L20.0123 17.2698
" />
<path d="M20.0123 17.2698
L20.1551 17.3174
" />
<path d="M20.1551 17.3174
L20.2503 17.4127
" />
<path d="M20.2503 17.4127
L20.2980 17.5079
" />
<path d="M20.2980 17.5079
L20.3456 17.6984
" />
<path d="M20.3456 17.6984
L20.3456 17.8412
" />
<path d="M20.3456 17.8412
L20.2980 18.0317
" />
<path d="M20.2980 18.0317
L20.2503 18.1270
" />
<path d="M20.2503 18.1270
L20.1551 18.2222
" />
<path d="M20.1551 18.2222
L20.0123 18.2698
" />
<path d="M20.0123 18.2698
L19.7742 18.2698
" />
<path d="M20.7265 17.9841
L21.2027 17.9841
" />
<path d="M20.6313 18.2698
L20.9646 17.2698
" />
<path d="M20.9646 17.2698
L21.2980 18.2698
" />
</g><text x="18.4850" y="20.8550"
textLength="3.0119" font-size="1.3333" lengthAdjust="spacingAndGlyphs"
text-anchor="start" opacity="0">SCL</text>
<g class="stroked-text"><desc>SCL</desc>
<path d="M18.7742 20.7622
L18.9170 20.8098
" />
<path d="M18.9170 20.8098
L19.1551 20.8098
" />
<path d="M19.1551 20.8098
L19.2503 20.7622
" />
<path d="M19.2503 20.7622
L19.2980 20.7146
" />
<path d="M19.2980 20.7146
L19.3456 20.6193
" />
<path d="M19.3456 20.6193
L19.3456 20.5241
" />
<path d="M19.3456 20.5241
L19.2980 20.4289
" />
<path d="M19.2980 20.4289
L19.2503 20.3812
" />
<path d="M19.2503 20.3812
L19.1551 20.3336
" />
<path d="M19.1551 20.3336
L18.9646 20.2860
" />
<path d="M18.9646 20.2860
L18.8694 20.2384
" />
<path d="M18.8694 20.2384
L18.8218 20.1908
" />
<path d="M18.8218 20.1908
L18.7742 20.0955
" />
<path d="M18.7742 20.0955
L18.7742 20.0003
" />
<path d="M18.7742 20.0003
L18.8218 19.9051
" />
<path d="M18.8218 19.9051
L18.8694 19.8574
" />
<path d="M18.8694 19.8574
L18.9646 19.8098
" />
<path d="M18.9646 19.8098
L19.2027 19.8098
" />
<path d="M19.2027 19.8098
L19.3456 19.8574
" />
<path d="M20.3456 20.7146
L20.2980 20.7622
" />
<path d="M20.2980 20.7622
L20.1551 20.8098
" />
<path d="M20.1551 20.8098
L20.0599 20.8098
" />
<path d="M20.0599 20.8098
L19.9170 20.7622
" />
<path d="M19.9170 20.7622
L19.8218 20.6670
" />
<path d="M19.8218 20.6670
L19.7742 20.5717
" />
<path d="M19.7742 20.5717
L19.7265 20.3812
" />
<path d="M19.7265 20.3812
L19.7265 20.2384
" />
<path d="M19.7265 20.2384
L19.7742 20.0479
" />
<path d="M19.7742 20.0479
L19.8218 19.9527
" />
<path d="M19.8218 19.9527
L19.9170 19.8574
" />
<path d="M19.9170 19.8574
L20.0599 19.8098
" />
<path d="M20.0599 19.8098
L20.1551 19.8098
" />
<path d="M20.1551 19.8098
L20.2980 19.8574
" />
<path d="M20.2980 19.8574
L20.3456 19.9051
" />
<path d="M21.2503 20.8098
L20.7742 20.8098
" />
<path d="M20.7742 20.8098
L20.7742 19.8098
" />
</g><text x="13.3950" y="37.4900"
textLength="4.8214" font-size="1.3333" lengthAdjust="spacingAndGlyphs"
text-anchor="start" opacity="0">Relais</text>
<g class="stroked-text"><desc>Relais</desc>
<path d="M14.3032 37.3598
L13.9699 36.8836
" />
<path d="M13.7318 37.3598
L13.7318 36.3598
" />
<path d="M13.7318 36.3598
L14.1127 36.3598
" />
<path d="M14.1127 36.3598
L14.2080 36.4074
" />
<path d="M14.2080 36.4074
L14.2556 36.4551
" />
<path d="M14.2556 36.4551
L14.3032 36.5503
" />
<path d="M14.3032 36.5503
L14.3032 36.6932
" />
<path d="M14.3032 36.6932
L14.2556 36.7884
" />
<path d="M14.2556 36.7884
L14.2080 36.8360
" />
<path d="M14.2080 36.8360
L14.1127 36.8836
" />
<path d="M14.1127 36.8836
L13.7318 36.8836
" />
<path d="M15.1127 37.3122
L15.0175 37.3598
" />
<path d="M15.0175 37.3598
L14.8270 37.3598
" />
<path d="M14.8270 37.3598
L14.7318 37.3122
" />
<path d="M14.7318 37.3122
L14.6842 37.2170
" />
<path d="M14.6842 37.2170
L14.6842 36.8360
" />
<path d="M14.6842 36.8360
L14.7318 36.7408
" />
<path d="M14.7318 36.7408
L14.8270 36.6932
" />
<path d="M14.8270 36.6932
L15.0175 36.6932
" />
<path d="M15.0175 36.6932
L15.1127 36.7408
" />
<path d="M15.1127 36.7408
L15.1603 36.8360
" />
<path d="M15.1603 36.8360
L15.1603 36.9312
" />
<path d="M15.1603 36.9312
L14.6842 37.0265
" />
<path d="M15.7318 37.3598
L15.6365 37.3122
" />
<path d="M15.6365 37.3122
L15.5889 37.2170
" />
<path d="M15.5889 37.2170
L15.5889 36.3598
" />
<path d="M16.5413 37.3598
L16.5413 36.8360
" />
<path d="M16.5413 36.8360
L16.4937 36.7408
" />
<path d="M16.4937 36.7408
L16.3984 36.6932
" />
<path d="M16.3984 36.6932
L16.2080 36.6932
" />
<path d="M16.2080 36.6932
L16.1127 36.7408
" />
<path d="M16.5413 37.3122
L16.4461 37.3598
" />
<path d="M16.4461 37.3598
L16.2080 37.3598
" />
<path d="M16.2080 37.3598
L16.1127 37.3122
" />
<path d="M16.1127 37.3122
L16.0651 37.2170
" />
<path d="M16.0651 37.2170
L16.0651 37.1217
" />
<path d="M16.0651 37.1217
L16.1127 37.0265
" />
<path d="M16.1127 37.0265
L16.2080 36.9789
" />
<path d="M16.2080 36.9789
L16.4461 36.9789
" />
<path d="M16.4461 36.9789
L16.5413 36.9312
" />
<path d="M17.0175 37.3598
L17.0175 36.6932
" />
<path d="M17.0175 36.3598
L16.9699 36.4074
" />
<path d="M16.9699 36.4074
L17.0175 36.4551
" />
<path d="M17.0175 36.4551
L17.0651 36.4074
" />
<path d="M17.0651 36.4074
L17.0175 36.3598
" />
<path d="M17.0175 36.3598
L17.0175 36.4551
" />
<path d="M17.4461 37.3122
L17.5413 37.3598
" />
<path d="M17.5413 37.3598
L17.7318 37.3598
" />
<path d="M17.7318 37.3598
L17.8270 37.3122
" />
<path d="M17.8270 37.3122
L17.8746 37.2170
" />
<path d="M17.8746 37.2170
L17.8746 37.1693
" />
<path d="M17.8746 37.1693
L17.8270 37.0741
" />
<path d="M17.8270 37.0741
L17.7318 37.0265
" />
<path d="M17.7318 37.0265
L17.5889 37.0265
" />
<path d="M17.5889 37.0265
L17.4937 36.9789
" />
<path d="M17.4937 36.9789
L17.4461 36.8836
" />
<path d="M17.4461 36.8836
L17.4461 36.8360
" />
<path d="M17.4461 36.8360
L17.4937 36.7408
" />
<path d="M17.4937 36.7408
L17.5889 36.6932
" />
<path d="M17.5889 36.6932
L17.7318 36.6932
" />
<path d="M17.7318 36.6932
L17.8270 36.7408
" />
</g><g transform="rotate(-90.000000 16.5700 8.9150)">
<text x="16.5700" y="9.4150"
textLength="4.2500" font-size="1.3333" lengthAdjust="spacingAndGlyphs"
text-anchor="end" opacity="0">+12V</text>
</g>
<g class="stroked-text"><desc>+12V</desc>
<path d="M16.6439 12.7756
L16.6439 12.0137
" />
<path d="M17.0248 12.3946
L16.2629 12.3946
" />
<path d="M17.0248 11.0137
L17.0248 11.5851
" />
<path d="M17.0248 11.2994
L16.0248 11.2994
" />
<path d="M16.0248 11.2994
L16.1677 11.3946
" />
<path d="M16.1677 11.3946
L16.2629 11.4899
" />
<path d="M16.2629 11.4899
L16.3105 11.5851
" />
<path d="M16.1201 10.6327
L16.0724 10.5851
" />
<path d="M16.0724 10.5851
L16.0248 10.4899
" />
<path d="M16.0248 10.4899
L16.0248 10.2518
" />
<path d="M16.0248 10.2518
L16.0724 10.1565
" />
<path d="M16.0724 10.1565
L16.1201 10.1089
" />
<path d="M16.1201 10.1089
L16.2153 10.0613
" />
<path d="M16.2153 10.0613
L16.3105 10.0613
" />
<path d="M16.3105 10.0613
L16.4534 10.1089
" />
<path d="M16.4534 10.1089
L17.0248 10.6803
" />
<path d="M17.0248 10.6803
L17.0248 10.0613
" />
<path d="M16.0248 9.7756
L17.0248 9.4423
" />
<path d="M17.0248 9.4423
L16.0248 9.1089
" />
</g></g>
<g style="fill:none; 
stroke:#008484; stroke-width:0.2000; stroke-opacity:1; 
stroke-linecap:round; stroke-linejoin:round;">
<text x="30.5400" y="23.3850"
textLength="13.9238" font-size="1.3333" lengthAdjust="spacingAndGlyphs"
text-anchor="middle" opacity="0">©H3-H5N6 2024</text>
<g class="stroked-text"><desc>©H3-H5N6 2024</desc>
<path d="M24.8257 22.5753
L24.7305 22.5277
" />
<path d="M24.7305 22.5277
L24.5400 22.5277
" />
<path d="M24.5400 22.5277
L24.4448 22.5753
" />
<path d="M24.4448 22.5753
L24.3495 22.6706
" />
<path d="M24.3495 22.6706
L24.3019 22.7658
" />
<path d="M24.3019 22.7658
L24.3019 22.9563
" />
<path d="M24.3019 22.9563
L24.3495 23.0515
" />
<path d="M24.3495 23.0515
L24.4448 23.1467
" />
<path d="M24.4448 23.1467
L24.5400 23.1944
" />
<path d="M24.5400 23.1944
L24.7305 23.1944
" />
<path d="M24.7305 23.1944
L24.8257 23.1467
" />
<path d="M24.6352 22.1944
L24.3971 22.2420
" />
<path d="M24.3971 22.2420
L24.1590 22.3848
" />
<path d="M24.1590 22.3848
L24.0162 22.6229
" />
<path d="M24.0162 22.6229
L23.9686 22.8610
" />
<path d="M23.9686 22.8610
L24.0162 23.0991
" />
<path d="M24.0162 23.0991
L24.1590 23.3372
" />
<path d="M24.1590 23.3372
L24.3971 23.4801
" />
<path d="M24.3971 23.4801
L24.6352 23.5277
" />
<path d="M24.6352 23.5277
L24.8733 23.4801
" />
<path d="M24.8733 23.4801
L25.1114 23.3372
" />
<path d="M25.1114 23.3372
L25.2543 23.0991
" />
<path d="M25.2543 23.0991
L25.3019 22.8610
" />
<path d="M25.3019 22.8610
L25.2543 22.6229
" />
<path d="M25.2543 22.6229
L25.1114 22.3848
" />
<path d="M25.1114 22.3848
L24.8733 22.2420
" />
<path d="M24.8733 22.2420
L24.6352 22.1944
" />
<path d="M25.7305 23.3372
L25.7305 22.3372
" />
<path d="M25.7305 22.8134
L26.3019 22.8134
" />
<path d="M26.3019 23.3372
L26.3019 22.3372
" />
<path d="M26.6829 22.3372
L27.3019 22.3372
" />
<path d="M27.3019 22.3372
L26.9686 22.7182
" />
<path d="M26.9686 22.7182
L27.1114 22.7182
" />
<path d="M27.1114 22.7182
L27.2067 22.7658
" />
<path d="M27.2067 22.7658
L27.2543 22.8134
" />
<path d="M27.2543 22.8134
L27.3019 22.9086
" />
<path d="M27.3019 22.9086
L27.3019 23.1467
" />
<path d="M27.3019 23.1467
L27.2543 23.2420
" />
<path d="M27.2543 23.2420
L27.2067 23.2896
" />
<path d="M27.2067 23.2896
L27.1114 23.3372
" />
<path d="M27.1114 23.3372
L26.8257 23.3372
" />
<path d="M26.8257 23.3372
L26.7305 23.2896
" />
<path d="M26.7305 23.2896
L26.6829 23.2420
" />
<path d="M27.7305 22.9563
L28.4924 22.9563
" />
<path d="M28.9686 23.3372
L28.9686 22.3372
" />
<path d="M28.9686 22.8134
L29.5400 22.8134
" />
<path d="M29.5400 23.3372
L29.5400 22.3372
" />
<path d="M30.4924 22.3372
L30.0162 22.3372
" />
<path d="M30.0162 22.3372
L29.9686 22.8134
" />
<path d="M29.9686 22.8134
L30.0162 22.7658
" />
<path d="M30.0162 22.7658
L30.1114 22.7182
" />
<path d="M30.1114 22.7182
L30.3495 22.7182
" />
<path d="M30.3495 22.7182
L30.4448 22.7658
" />
<path d="M30.4448 22.7658
L30.4924 22.8134
" />
<path d="M30.4924 22.8134
L30.5400 22.9086
" />
<path d="M30.5400 22.9086
L30.5400 23.1467
" />
<path d="M30.5400 23.1467
L30.4924 23.2420
" />
<path d="M30.4924 23.2420
L30.4448 23.2896
" />
<path d="M30.4448 23.2896
L30.3495 23.3372
" />
<path d="M30.3495 23.3372
L30.1114 23.3372
" />
<path d="M30.1114 23.3372
L30.0162 23.2896
" />
<path d="M30.0162 23.2896
L29.9686 23.2420
" />
<path d="M30.9686 23.3372
L30.9686 22.3372
" />
<path d="M30.9686 22.3372
L31.5400 23.3372
" />
<path d="M31.5400 23.3372
L31.5400 22.3372
" />
<path d="M32.4448 22.3372
L32.2543 22.3372
" />
<path d="M32.2543 22.3372
L32.1590 22.3848
" />
<path d="M32.1590 22.3848
L32.1114 22.4325
" />
<path d="M32.1114 22.4325
L32.0162 22.5753
" />
<path d="M32.0162 22.5753
L31.9686 22.7658
" />
<path d="M31.9686 22.7658
L31.9686 23.1467
" />
<path d="M31.9686 23.1467
L32.0162 23.2420
" />
<path d="M32.0162 23.2420
L32.0638 23.2896
" />
<path d="M32.0638 23.2896
L32.1590 23.3372
" />
<path d="M32.1590 23.3372
L32.3495 23.3372
" />
<path d="M32.3495 23.3372
L32.4448 23.2896
" />
<path d="M32.4448 23.2896
L32.4924 23.2420
" />
<path d="M32.4924 23.2420
L32.5400 23.1467
" />
<path d="M32.5400 23.1467
L32.5400 22.9086
" />
<path d="M32.5400 22.9086
L32.4924 22.8134
" />
<path d="M32.4924 22.8134
L32.4448 22.7658
" />
<path d="M32.4448 22.7658
L32.3495 22.7182
" />
<path d="M32.3495 22.7182
L32.1590 22.7182
" />
<path d="M32.1590 22.7182
L32.0638 22.7658
" />
<path d="M32.0638 22.7658
L32.0162 22.8134
" />
<path d="M32.0162 22.8134
L31.9686 22.9086
" />
<path d="M33.6829 22.4325
L33.7305 22.3848
" />
<path d="M33.7305 22.3848
L33.8257 22.3372
" />
<path d="M33.8257 22.3372
L34.0638 22.3372
" />
<path d="M34.0638 22.3372
L34.1590 22.3848
" />
<path d="M34.1590 22.3848
L34.2067 22.4325
" />
<path d="M34.2067 22.4325
L34.2543 22.5277
" />
<path d="M34.2543 22.5277
L34.2543 22.6229
" />
<path d="M34.2543 22.6229
L34.2067 22.7658
" />
<path d="M34.2067 22.7658
L33.6352 23.3372
" />
<path d="M33.6352 23.3372
L34.2543 23.3372
" />
<path d="M34.8733 22.3372
L34.9686 22.3372
" />
<path d="M34.9686 22.3372
L35.0638 22.3848
" />
<path d="M35.0638 22.3848
L35.1114 22.4325
" />
<path d="M35.1114 22.4325
L35.1590 22.5277
" />
<path d="M35.1590 22.5277
L35.2067 22.7182
" />
<path d="M35.2067 22.7182
L35.2067 22.9563
" />
<path d="M35.2067 22.9563
L35.1590 23.1467
" />
<path d="M35.1590 23.1467
L35.1114 23.2420
" />
<path d="M35.1114 23.2420
L35.0638 23.2896
" />
<path d="M35.0638 23.2896
L34.9686 23.3372
" />
<path d="M34.9686 23.3372
L34.8733 23.3372
" />
<path d="M34.8733 23.3372
L34.7781 23.2896
" />
<path d="M34.7781 23.2896
L34.7305 23.2420
" />
<path d="M34.7305 23.2420
L34.6829 23.1467
" />
<path d="M34.6829 23.1467
L34.6352 22.9563
" />
<path d="M34.6352 22.9563
L34.6352 22.7182
" />
<path d="M34.6352 22.7182
L34.6829 22.5277
" />
<path d="M34.6829 22.5277
L34.7305 22.4325
" />
<path d="M34.7305 22.4325
L34.7781 22.3848
" />
<path d="M34.7781 22.3848
L34.8733 22.3372
" />
<path d="M35.5876 22.4325
L35.6352 22.3848
" />
<path d="M35.6352 22.3848
L35.7305 22.3372
" />
<path d="M35.7305 22.3372
L35.9686 22.3372
" />
<path d="M35.9686 22.3372
L36.0638 22.3848
" />
<path d="M36.0638 22.3848
L36.1114 22.4325
" />
<path d="M36.1114 22.4325
L36.1590 22.5277
" />
<path d="M36.1590 22.5277
L36.1590 22.6229
" />
<path d="M36.1590 22.6229
L36.1114 22.7658
" />
<path d="M36.1114 22.7658
L35.5400 23.3372
" />
<path d="M35.5400 23.3372
L36.1590 23.3372
" />
<path d="M37.0162 22.6706
L37.0162 23.3372
" />
<path d="M36.7781 22.2896
L36.5400 23.0039
" />
<path d="M36.5400 23.0039
L37.1590 23.0039
" />
</g></g>
<g style="fill:none; 
stroke:#008484; stroke-width:0.1500; stroke-opacity:1; 
stroke-linecap:round; stroke-linejoin:round;">
<g transform="rotate(-90.000000 20.3800 8.9150)">
<text x="20.3800" y="9.4150"
textLength="3.2976" font-size="1.3333" lengthAdjust="spacingAndGlyphs"
text-anchor="end" opacity="0">GND</text>
</g>
<g class="stroked-text"><desc>GND</desc>
<path d="M19.8824 11.2994
L19.8348 11.3946
" />
<path d="M19.8348 11.3946
L19.8348 11.5375
" />
<path d="M19.8348 11.5375
L19.8824 11.6803
" />
<path d="M19.8824 11.6803
L19.9777 11.7756
" />
<path d="M19.9777 11.7756
L20.0729 11.8232
" />
<path d="M20.0729 11.8232
L20.2634 11.8708
" />
<path d="M20.2634 11.8708
L20.4062 11.8708
" />
<path d="M20.4062 11.8708
L20.5967 11.8232
" />
<path d="M20.5967 11.8232
L20.6920 11.7756
" />
<path d="M20.6920 11.7756
L20.7872 11.6803
" />
<path d="M20.7872 11.6803
L20.8348 11.5375
" />
<path d="M20.8348 11.5375
L20.8348 11.4423
" />
<path d="M20.8348 11.4423
L20.7872 11.2994
" />
<path d="M20.7872 11.2994
L20.7396 11.2518
" />
<path d="M20.7396 11.2518
L20.4062 11.2518
" />
<path d="M20.4062 11.2518
L20.4062 11.4423
" />
<path d="M20.8348 10.8232
L19.8348 10.8232
" />
<path d="M19.8348 10.8232
L20.8348 10.2518
" />
<path d="M20.8348 10.2518
L19.8348 10.2518
" />
<path d="M20.8348 9.7756
L19.8348 9.7756
" />
<path d="M19.8348 9.7756
L19.8348 9.5375
" />
<path d="M19.8348 9.5375
L19.8824 9.3946
" />
<path d="M19.8824 9.3946
L19.9777 9.2994
" />
<path d="M19.9777 9.2994
L20.0729 9.2518
" />
<path d="M20.0729 9.2518
L20.2634 9.2042
" />
<path d="M20.2634 9.2042
L20.4062 9.2042
" />
<path d="M20.4062 9.2042
L20.5967 9.2518
" />
<path d="M20.5967 9.2518
L20.6920 9.2994
" />
<path d="M20.6920 9.2994
L20.7872 9.3946
" />
<path d="M20.7872 9.3946
L20.8348 9.5375
" />
<path d="M20.8348 9.5375
L20.8348 9.7756
" />
</g><text x="15.3000" y="15.7650"
textLength="2.4881" font-size="1.3333" lengthAdjust="spacingAndGlyphs"
text-anchor="middle" opacity="0">I²C</text>
<g class="stroked-text"><desc>I²C</desc>
<path d="M14.4190 15.7198
L14.4190 14.7198
" />
<path d="M14.8476 14.4817
L14.9429 14.4341
" />
<path d="M14.9429 14.4341
L15.0857 14.4341
" />
<path d="M15.0857 14.4341
L15.1810 14.4817
" />
<path d="M15.1810 14.4817
L15.2286 14.5770
" />
<path d="M15.2286 14.5770
L15.2286 14.6722
" />
<path d="M15.2286 14.6722
L15.1810 14.7674
" />
<path d="M15.1810 14.7674
L14.8476 15.1008
" />
<path d="M14.8476 15.1008
L15.2286 15.1008
" />
<path d="M16.2286 15.6246
L16.1810 15.6722
" />
<path d="M16.1810 15.6722
L16.0381 15.7198
" />
<path d="M16.0381 15.7198
L15.9429 15.7198
" />
<path d="M15.9429 15.7198
L15.8000 15.6722
" />
<path d="M15.8000 15.6722
L15.7048 15.5770
" />
<path d="M15.7048 15.5770
L15.6571 15.4817
" />
<path d="M15.6571 15.4817
L15.6095 15.2912
" />
<path d="M15.6095 15.2912
L15.6095 15.1484
" />
<path d="M15.6095 15.1484
L15.6571 14.9579
" />
<path d="M15.6571 14.9579
L15.7048 14.8627
" />
<path d="M15.7048 14.8627
L15.8000 14.7674
" />
<path d="M15.8000 14.7674
L15.9429 14.7198
" />
<path d="M15.9429 14.7198
L16.0381 14.7198
" />
<path d="M16.0381 14.7198
L16.1810 14.7674
" />
<path d="M16.1810 14.7674
L16.2286 14.8151
" />
</g></g>
<g style="fill:none; 
stroke:#008484; stroke-width:0.1200; stroke-opacity:1; 
stroke-linecap:round; stroke-linejoin:round;">
<path d="M23.4700 29.2200
L23.4700 27.6900
" />
<path d="M23.9400 27.2200
L37.1400 27.2200
" />
</g>
<g style="fill:none; 
stroke:#008484; stroke-width:0.1000; stroke-opacity:1; 
stroke-linecap:round; stroke-linejoin:round;">
<path d="M23.9400 36.1700
L23.9400 36.2400
" />
</g>
<g style="fill:none; 
stroke:#008484; stroke-width:0.1200; stroke-opacity:1; 
stroke-linecap:round; stroke-linejoin:round;">
<path d="M23.9400 36.2400
L23.9400 27.2200
" />
<path d="M23.9400 45.2200
L23.9400 41.1500
" />
<path d="M26.1000 45.2200
L23.9400 45.2200
" />
<path d="M37.1400 27.2200
L37.1400 36.2400
" />
</g>
<g style="fill:none; 
stroke:#008484; stroke-width:0.1000; stroke-opacity:1; 
stroke-linecap:round; stroke-linejoin:round;">
<path d="M37.1400 45.1000
L37.1400 45.2200
" />
<path d="M37.1400 45.2100
L37.1400 45.2200
" />
</g>
<g style="fill:none; 
stroke:#008484; stroke-width:0.1200; stroke-opacity:1; 
stroke-linecap:round; stroke-linejoin:round;">
<path d="M37.1400 45.2200
L34.9900 45.2200
" />
<path d="M37.1400 45.2200
L37.1400 41.1500
" />
<path d="M15.2700 0.5200
L17.8700 0.5200
" />
<path d="M15.2700 8.4200
L15.2700 0.5200
" />
<path d="M17.8700 0.5200
L17.8700 8.4200
" />
<path d="M17.8700 8.4200
L15.2700 8.4200
" />
<path d="M23.9450 0.5500
L23.9450 4.6200
" />
<path d="M23.9450 0.5500
L26.0950 0.5500
" />
</g>
<g style="fill:none; 
stroke:#008484; stroke-width:0.1000; stroke-opacity:1; 
stroke-linecap:round; stroke-linejoin:round;">
<path d="M23.9450 0.5600
L23.9450 0.5500
" />
<path d="M23.9450 0.6700
L23.9450 0.5500
" />
</g>
<g style="fill:none; 
stroke:#008484; stroke-width:0.1200; stroke-opacity:1; 
stroke-linecap:round; stroke-linejoin:round;">
<path d="M23.9450 18.5500
L23.9450 9.5300
" />
<path d="M34.9850 0.5500
L37.1450 0.5500
" />
<path d="M37.1450 0.5500
L37.1450 4.6200
" />
<path d="M37.1450 9.5300
L37.1450 18.5500
" />
</g>
<g style="fill:none; 
stroke:#008484; stroke-width:0.1000; stroke-opacity:1; 
stroke-linecap:round; stroke-linejoin:round;">
<path d="M37.1450 9.6000
L37.1450 9.5300
" />
</g>
<g style="fill:none; 
stroke:#008484; stroke-width:0.1200; stroke-opacity:1; 
stroke-linecap:round; stroke-linejoin:round;">
<path d="M37.1450 18.5500
L23.9450 18.5500
" />
<path d="M37.6150 16.5500
L37.6150 18.0800
" />
<path d="M19.2070 0.5200
L21.8070 0.5200
" />
<path d="M19.2070 8.4200
L19.2070 0.5200
" />
<path d="M21.8070 0.5200
L21.8070 8.4200
" />
<path d="M21.8070 8.4200
L19.2070 8.4200
" />
</g>
<g style="fill:none; 
stroke:#C2C2C2; stroke-width:0.1500; stroke-opacity:1; 
stroke-linecap:round; stroke-linejoin:round;">
<text x="27.0475" y="52.0800"
textLength="7.0119" font-size="1.3333" lengthAdjust="spacingAndGlyphs"
text-anchor="middle" opacity="0">29.8 mm</text>
<g class="stroked-text"><desc>29.8 mm</desc>
<path d="M23.8570 51.1301
L23.9046 51.0824
" />
<path d="M23.9046 51.0824
L23.9999 51.0348
" />
<path d="M23.9999 51.0348
L24.2380 51.0348
" />
<path d="M24.2380 51.0348
L24.3332 51.0824
" />
<path d="M24.3332 51.0824
L24.3808 51.1301
" />
<path d="M24.3808 51.1301
L24.4285 51.2253
" />
<path d="M24.4285 51.2253
L24.4285 51.3205
" />
<path d="M24.4285 51.3205
L24.3808 51.4634
" />
<path d="M24.3808 51.4634
L23.8094 52.0348
" />
<path d="M23.8094 52.0348
L24.4285 52.0348
" />
<path d="M24.9046 52.0348
L25.0951 52.0348
" />
<path d="M25.0951 52.0348
L25.1904 51.9872
" />
<path d="M25.1904 51.9872
L25.2380 51.9396
" />
<path d="M25.2380 51.9396
L25.3332 51.7967
" />
<path d="M25.3332 51.7967
L25.3808 51.6062
" />
<path d="M25.3808 51.6062
L25.3808 51.2253
" />
<path d="M25.3808 51.2253
L25.3332 51.1301
" />
<path d="M25.3332 51.1301
L25.2856 51.0824
" />
<path d="M25.2856 51.0824
L25.1904 51.0348
" />
<path d="M25.1904 51.0348
L24.9999 51.0348
" />
<path d="M24.9999 51.0348
L24.9046 51.0824
" />
<path d="M24.9046 51.0824
L24.8570 51.1301
" />
<path d="M24.8570 51.1301
L24.8094 51.2253
" />
<path d="M24.8094 51.2253
L24.8094 51.4634
" />
<path d="M24.8094 51.4634
L24.8570 51.5586
" />
<path d="M24.8570 51.5586
L24.9046 51.6062
" />
<path d="M24.9046 51.6062
L24.9999 51.6539
" />
<path d="M24.9999 51.6539
L25.1904 51.6539
" />
<path d="M25.1904 51.6539
L25.2856 51.6062
" />
<path d="M25.2856 51.6062
L25.3332 51.5586
" />
<path d="M25.3332 51.5586
L25.3808 51.4634
" />
<path d="M25.8094 51.9396
L25.8570 51.9872
" />
<path d="M25.8570 51.9872
L25.8094 52.0348
" />
<path d="M25.8094 52.0348
L25.7618 51.9872
" />
<path d="M25.7618 51.9872
L25.8094 51.9396
" />
<path d="M25.8094 51.9396
L25.8094 52.0348
" />
<path d="M26.4285 51.4634
L26.3332 51.4158
" />
<path d="M26.3332 51.4158
L26.2856 51.3682
" />
<path d="M26.2856 51.3682
L26.2380 51.2729
" />
<path d="M26.2380 51.2729
L26.2380 51.2253
" />
<path d="M26.2380 51.2253
L26.2856 51.1301
" />
<path d="M26.2856 51.1301
L26.3332 51.0824
" />
<path d="M26.3332 51.0824
L26.4285 51.0348
" />
<path d="M26.4285 51.0348
L26.6189 51.0348
" />
<path d="M26.6189 51.0348
L26.7142 51.0824
" />
<path d="M26.7142 51.0824
L26.7618 51.1301
" />
<path d="M26.7618 51.1301
L26.8094 51.2253
" />
<path d="M26.8094 51.2253
L26.8094 51.2729
" />
<path d="M26.8094 51.2729
L26.7618 51.3682
" />
<path d="M26.7618 51.3682
L26.7142 51.4158
" />
<path d="M26.7142 51.4158
L26.6189 51.4634
" />
<path d="M26.6189 51.4634
L26.4285 51.4634
" />
<path d="M26.4285 51.4634
L26.3332 51.5110
" />
<path d="M26.3332 51.5110
L26.2856 51.5586
" />
<path d="M26.2856 51.5586
L26.2380 51.6539
" />
<path d="M26.2380 51.6539
L26.2380 51.8443
" />
<path d="M26.2380 51.8443
L26.2856 51.9396
" />
<path d="M26.2856 51.9396
L26.3332 51.9872
" />
<path d="M26.3332 51.9872
L26.4285 52.0348
" />
<path d="M26.4285 52.0348
L26.6189 52.0348
" />
<path d="M26.6189 52.0348
L26.7142 51.9872
" />
<path d="M26.7142 51.9872
L26.7618 51.9396
" />
<path d="M26.7618 51.9396
L26.8094 51.8443
" />
<path d="M26.8094 51.8443
L26.8094 51.6539
" />
<path d="M26.8094 51.6539
L26.7618 51.5586
" />
<path d="M26.7618 51.5586
L26.7142 51.5110
" />
<path d="M26.7142 51.5110
L26.6189 51.4634
" />
<path d="M27.9999 52.0348
L27.9999 51.3682
" />
<path d="M27.9999 51.4634
L28.0475 51.4158
" />
<path d="M28.0475 51.4158
L28.1427 51.3682
" />
<path d="M28.1427 51.3682
L28.2856 51.3682
" />
<path d="M28.2856 51.3682
L28.3808 51.4158
" />
<path d="M28.3808 51.4158
L28.4285 51.5110
" />
<path d="M28.4285 51.5110
L28.4285 52.0348
" />
<path d="M28.4285 51.5110
L28.4761 51.4158
" />
<path d="M28.4761 51.4158
L28.5713 51.3682
" />
<path d="M28.5713 51.3682
L28.7142 51.3682
" />
<path d="M28.7142 51.3682
L28.8094 51.4158
" />
<path d="M28.8094 51.4158
L28.8570 51.5110
" />
<path d="M28.8570 51.5110
L28.8570 52.0348
" />
<path d="M29.3332 52.0348
L29.3332 51.3682
" />
<path d="M29.3332 51.4634
L29.3808 51.4158
" />
<path d="M29.3808 51.4158
L29.4761 51.3682
" />
<path d="M29.4761 51.3682
L29.6189 51.3682
" />
<path d="M29.6189 51.3682
L29.7142 51.4158
" />
<path d="M29.7142 51.4158
L29.7618 51.5110
" />
<path d="M29.7618 51.5110
L29.7618 52.0348
" />
<path d="M29.7618 51.5110
L29.8094 51.4158
" />
<path d="M29.8094 51.4158
L29.9046 51.3682
" />
<path d="M29.9046 51.3682
L30.0475 51.3682
" />
<path d="M30.0475 51.3682
L30.1427 51.4158
" />
<path d="M30.1427 51.4158
L30.1904 51.5110
" />
<path d="M30.1904 51.5110
L30.1904 52.0348
" />
</g></g>
<g style="fill:none; 
stroke:#C2C2C2; stroke-width:0.0500; stroke-opacity:1; 
stroke-linecap:round; stroke-linejoin:round;">
<path d="M12.1250 46.2450
L12.1250 53.3164
" />
<path d="M41.9700 46.2450
L41.9700 53.3164
" />
<path d="M12.1250 52.7300
L41.9700 52.7300
" />
<path d="M12.1250 52.7300
L41.9700 52.7300
" />
<path d="M12.1250 52.7300
L13.2515 52.1436
" />
<path d="M12.1250 52.7300
L13.2515 53.3164
" />
<path d="M41.9700 52.7300
L40.8435 53.3164
" />
<path d="M41.9700 52.7300
L40.8435 52.1436
" />
</g>
<g style="fill:none; 
stroke:#C2C2C2; stroke-width:0.1500; stroke-opacity:1; 
stroke-linecap:round; stroke-linejoin:round;">
<g transform="rotate(-90.000000 6.5300 8.9150)">
<text x="6.5300" y="9.4150"
textLength="7.9643" font-size="1.3333" lengthAdjust="spacingAndGlyphs"
text-anchor="middle" opacity="0">17.78 mm</text>
</g>
<g class="stroked-text"><desc>17.78 mm</desc>
<path d="M6.9848 12.0102
L6.9848 12.5817
" />
<path d="M6.9848 12.2960
L5.9848 12.2960
" />
<path d="M5.9848 12.2960
L6.1277 12.3912
" />
<path d="M6.1277 12.3912
L6.2229 12.4864
" />
<path d="M6.2229 12.4864
L6.2705 12.5817
" />
<path d="M5.9848 11.6769
L5.9848 11.0102
" />
<path d="M5.9848 11.0102
L6.9848 11.4388
" />
<path d="M6.8896 10.6293
L6.9372 10.5817
" />
<path d="M6.9372 10.5817
L6.9848 10.6293
" />
<path d="M6.9848 10.6293
L6.9372 10.6769
" />
<path d="M6.9372 10.6769
L6.8896 10.6293
" />
<path d="M6.8896 10.6293
L6.9848 10.6293
" />
<path d="M5.9848 10.2483
L5.9848 9.5817
" />
<path d="M5.9848 9.5817
L6.9848 10.0102
" />
<path d="M6.4134 9.0579
L6.3658 9.1531
" />
<path d="M6.3658 9.1531
L6.3182 9.2007
" />
<path d="M6.3182 9.2007
L6.2229 9.2483
" />
<path d="M6.2229 9.2483
L6.1753 9.2483
" />
<path d="M6.1753 9.2483
L6.0801 9.2007
" />
<path d="M6.0801 9.2007
L6.0324 9.1531
" />
<path d="M6.0324 9.1531
L5.9848 9.0579
" />
<path d="M5.9848 9.0579
L5.9848 8.8674
" />
<path d="M5.9848 8.8674
L6.0324 8.7721
" />
<path d="M6.0324 8.7721
L6.0801 8.7245
" />
<path d="M6.0801 8.7245
L6.1753 8.6769
" />
<path d="M6.1753 8.6769
L6.2229 8.6769
" />
<path d="M6.2229 8.6769
L6.3182 8.7245
" />
<path d="M6.3182 8.7245
L6.3658 8.7721
" />
<path d="M6.3658 8.7721
L6.4134 8.8674
" />
<path d="M6.4134 8.8674
L6.4134 9.0579
" />
<path d="M6.4134 9.0579
L6.4610 9.1531
" />
<path d="M6.4610 9.1531
L6.5086 9.2007
" />
<path d="M6.5086 9.2007
L6.6039 9.2483
" />
<path d="M6.6039 9.2483
L6.7943 9.2483
" />
<path d="M6.7943 9.2483
L6.8896 9.2007
" />
<path d="M6.8896 9.2007
L6.9372 9.1531
" />
<path d="M6.9372 9.1531
L6.9848 9.0579
" />
<path d="M6.9848 9.0579
L6.9848 8.8674
" />
<path d="M6.9848 8.8674
L6.9372 8.7721
" />
<path d="M6.9372 8.7721
L6.8896 8.7245
" />
<path d="M6.8896 8.7245
L6.7943 8.6769
" />
<path d="M6.7943 8.6769
L6.6039 8.6769
" />
<path d="M6.6039 8.6769
L6.5086 8.7245
" />
<path d="M6.5086 8.7245
L6.4610 8.7721
" />
<path d="M6.4610 8.7721
L6.4134 8.8674
" />
<path d="M6.9848 7.4864
L6.3182 7.4864
" />
<path d="M6.4134 7.4864
L6.3658 7.4388
" />
<path d="M6.3658 7.4388
L6.3182 7.3436
" />
<path d="M6.3182 7.3436
L6.3182 7.2007
" />
<path d="M6.3182 7.2007
L6.3658 7.1055
" />
<path d="M6.3658 7.1055
L6.4610 7.0579
" />
<path d="M6.4610 7.0579
L6.9848 7.0579
" />
<path d="M6.4610 7.0579
L6.3658 7.0102
" />
<path d="M6.3658 7.0102
L6.3182 6.9150
" />
<path d="M6.3182 6.9150
L6.3182 6.7721
" />
<path d="M6.3182 6.7721
L6.3658 6.6769
" />
<path d="M6.3658 6.6769
L6.4610 6.6293
" />
<path d="M6.4610 6.6293
L6.9848 6.6293
" />
<path d="M6.9848 6.1531
L6.3182 6.1531
" />
<path d="M6.4134 6.1531
L6.3658 6.1055
" />
<path d="M6.3658 6.1055
L6.3182 6.0102
" />
<path d="M6.3182 6.0102
L6.3182 5.8674
" />
<path d="M6.3182 5.8674
L6.3658 5.7721
" />
<path d="M6.3658 5.7721
L6.4610 5.7245
" />
<path d="M6.4610 5.7245
L6.9848 5.7245
" />
<path d="M6.4610 5.7245
L6.3658 5.6769
" />
<path d="M6.3658 5.6769
L6.3182 5.5817
" />
<path d="M6.3182 5.5817
L6.3182 5.4388
" />
<path d="M6.3182 5.4388
L6.3658 5.3436
" />
<path d="M6.3658 5.3436
L6.4610 5.2960
" />
<path d="M6.4610 5.2960
L6.9848 5.2960
" />
</g></g>
<g style="fill:none; 
stroke:#C2C2C2; stroke-width:0.0500; stroke-opacity:1; 
stroke-linecap:round; stroke-linejoin:round;">
<path d="M13.5300 17.8050
L7.0936 17.8050
" />
<path d="M13.5300 0.0250
L7.0936 0.0250
" />
<path d="M7.6800 17.8050
L7.6800 0.0250
" />
<path d="M7.6800 17.8050
L7.6800 0.0250
" />
<path d="M7.6800 17.8050
L7.0936 16.6785
" />
<path d="M7.6800 17.8050
L8.2664 16.6785
" />
<path d="M7.6800 0.0250
L8.2664 1.1515
" />
<path d="M7.6800 0.0250
L7.0936 1.1515
" />
</g>
<g style="fill:none; 
stroke:#C2C2C2; stroke-width:0.1250; stroke-opacity:1; 
stroke-linecap:round; stroke-linejoin:round;">
<text x="11.0500" y="7.2150"
textLength="5.9845" font-size="1.3333" lengthAdjust="spacingAndGlyphs"
text-anchor="middle" opacity="0">2.5 mm</text>
<g class="stroked-text"><desc>2.5 mm</desc>
<path d="M8.3357 6.2664
L8.3833 6.2187
" />
<path d="M8.3833 6.2187
L8.4786 6.1711
" />
<path d="M8.4786 6.1711
L8.7167 6.1711
" />
<path d="M8.7167 6.1711
L8.8119 6.2187
" />
<path d="M8.8119 6.2187
L8.8595 6.2664
" />
<path d="M8.8595 6.2664
L8.9071 6.3616
" />
<path d="M8.9071 6.3616
L8.9071 6.4568
" />
<path d="M8.9071 6.4568
L8.8595 6.5997
" />
<path d="M8.8595 6.5997
L8.2881 7.1711
" />
<path d="M8.2881 7.1711
L8.9071 7.1711
" />
<path d="M9.3357 7.0759
L9.3833 7.1235
" />
<path d="M9.3833 7.1235
L9.3357 7.1711
" />
<path d="M9.3357 7.1711
L9.2881 7.1235
" />
<path d="M9.2881 7.1235
L9.3357 7.0759
" />
<path d="M9.3357 7.0759
L9.3357 7.1711
" />
<path d="M10.2881 6.1711
L9.8119 6.1711
" />
<path d="M9.8119 6.1711
L9.7643 6.6473
" />
<path d="M9.7643 6.6473
L9.8119 6.5997
" />
<path d="M9.8119 6.5997
L9.9071 6.5521
" />
<path d="M9.9071 6.5521
L10.1452 6.5521
" />
<path d="M10.1452 6.5521
L10.2405 6.5997
" />
<path d="M10.2405 6.5997
L10.2881 6.6473
" />
<path d="M10.2881 6.6473
L10.3357 6.7425
" />
<path d="M10.3357 6.7425
L10.3357 6.9806
" />
<path d="M10.3357 6.9806
L10.2881 7.0759
" />
<path d="M10.2881 7.0759
L10.2405 7.1235
" />
<path d="M10.2405 7.1235
L10.1452 7.1711
" />
<path d="M10.1452 7.1711
L9.9071 7.1711
" />
<path d="M9.9071 7.1711
L9.8119 7.1235
" />
<path d="M9.8119 7.1235
L9.7643 7.0759
" />
<path d="M11.5262 7.1711
L11.5262 6.5045
" />
<path d="M11.5262 6.5997
L11.5738 6.5521
" />
<path d="M11.5738 6.5521
L11.6690 6.5045
" />
<path d="M11.6690 6.5045
L11.8119 6.5045
" />
<path d="M11.8119 6.5045
L11.9071 6.5521
" />
<path d="M11.9071 6.5521
L11.9548 6.6473
" />
<path d="M11.9548 6.6473
L11.9548 7.1711
" />
<path d="M11.9548 6.6473
L12.0024 6.5521
" />
<path d="M12.0024 6.5521
L12.0976 6.5045
" />
<path d="M12.0976 6.5045
L12.2405 6.5045
" />
<path d="M12.2405 6.5045
L12.3357 6.5521
" />
<path d="M12.3357 6.5521
L12.3833 6.6473
" />
<path d="M12.3833 6.6473
L12.3833 7.1711
" />
<path d="M12.8595 7.1711
L12.8595 6.5045
" />
<path d="M12.8595 6.5997
L12.9071 6.5521
" />
<path d="M12.9071 6.5521
L13.0024 6.5045
" />
<path d="M13.0024 6.5045
L13.1452 6.5045
" />
<path d="M13.1452 6.5045
L13.2405 6.5521
" />
<path d="M13.2405 6.5521
L13.2881 6.6473
" />
<path d="M13.2881 6.6473
L13.2881 7.1711
" />
<path d="M13.2881 6.6473
L13.3357 6.5521
" />
<path d="M13.3357 6.5521
L13.4310 6.5045
" />
<path d="M13.4310 6.5045
L13.5738 6.5045
" />
<path d="M13.5738 6.5045
L13.6690 6.5521
" />
<path d="M13.6690 6.5521
L13.7167 6.6473
" />
<path d="M13.7167 6.6473
L13.7167 7.1711
" />
</g></g>
<g style="fill:none; 
stroke:#C2C2C2; stroke-width:0.0500; stroke-opacity:1; 
stroke-linecap:round; stroke-linejoin:round;">
<path d="M12.1250 10.3200
L12.1250 7.6936
" />
<path d="M14.6650 10.3200
L14.6650 7.6936
" />
<path d="M12.1250 8.2800
L14.6650 8.2800
" />
<path d="M12.1250 8.2800
L14.6650 8.2800
" />
<path d="M12.1250 8.2800
L13.2515 7.6936
" />
<path d="M12.1250 8.2800
L13.2515 8.8664
" />
<path d="M14.6650 8.2800
L13.5385 8.8664
" />
<path d="M14.6650 8.2800
L13.5385 7.6936
" />
</g>
<g style="fill:none; 
stroke:#C2C2C2; stroke-width:0.1500; stroke-opacity:1; 
stroke-linecap:round; stroke-linejoin:round;">
<g transform="rotate(-90.000000 42.7250 22.8850)">
<text x="42.7250" y="23.3850"
textLength="7.0119" font-size="1.3333" lengthAdjust="spacingAndGlyphs"
text-anchor="middle" opacity="0">45.7 mm</text>
</g>
<g class="stroked-text"><desc>45.7 mm</desc>
<path d="M42.5132 25.5993
L43.1798 25.5993
" />
<path d="M42.1322 25.8374
L42.8465 26.0755
" />
<path d="M42.8465 26.0755
L42.8465 25.4564
" />
<path d="M42.1798 24.5993
L42.1798 25.0755
" />
<path d="M42.1798 25.0755
L42.6560 25.1231
" />
<path d="M42.6560 25.1231
L42.6084 25.0755
" />
<path d="M42.6084 25.0755
L42.5608 24.9802
" />
<path d="M42.5608 24.9802
L42.5608 24.7421
" />
<path d="M42.5608 24.7421
L42.6084 24.6469
" />
<path d="M42.6084 24.6469
L42.6560 24.5993
" />
<path d="M42.6560 24.5993
L42.7512 24.5517
" />
<path d="M42.7512 24.5517
L42.9893 24.5517
" />
<path d="M42.9893 24.5517
L43.0846 24.5993
" />
<path d="M43.0846 24.5993
L43.1322 24.6469
" />
<path d="M43.1322 24.6469
L43.1798 24.7421
" />
<path d="M43.1798 24.7421
L43.1798 24.9802
" />
<path d="M43.1798 24.9802
L43.1322 25.0755
" />
<path d="M43.1322 25.0755
L43.0846 25.1231
" />
<path d="M43.0846 24.1231
L43.1322 24.0755
" />
<path d="M43.1322 24.0755
L43.1798 24.1231
" />
<path d="M43.1798 24.1231
L43.1322 24.1707
" />
<path d="M43.1322 24.1707
L43.0846 24.1231
" />
<path d="M43.0846 24.1231
L43.1798 24.1231
" />
<path d="M42.1798 23.7421
L42.1798 23.0755
" />
<path d="M42.1798 23.0755
L43.1798 23.5040
" />
<path d="M43.1798 21.9326
L42.5132 21.9326
" />
<path d="M42.6084 21.9326
L42.5608 21.8850
" />
<path d="M42.5608 21.8850
L42.5132 21.7898
" />
<path d="M42.5132 21.7898
L42.5132 21.6469
" />
<path d="M42.5132 21.6469
L42.5608 21.5517
" />
<path d="M42.5608 21.5517
L42.6560 21.5040
" />
<path d="M42.6560 21.5040
L43.1798 21.5040
" />
<path d="M42.6560 21.5040
L42.5608 21.4564
" />
<path d="M42.5608 21.4564
L42.5132 21.3612
" />
<path d="M42.5132 21.3612
L42.5132 21.2183
" />
<path d="M42.5132 21.2183
L42.5608 21.1231
" />
<path d="M42.5608 21.1231
L42.6560 21.0755
" />
<path d="M42.6560 21.0755
L43.1798 21.0755
" />
<path d="M43.1798 20.5993
L42.5132 20.5993
" />
<path d="M42.6084 20.5993
L42.5608 20.5517
" />
<path d="M42.5608 20.5517
L42.5132 20.4564
" />
<path d="M42.5132 20.4564
L42.5132 20.3136
" />
<path d="M42.5132 20.3136
L42.5608 20.2183
" />
<path d="M42.5608 20.2183
L42.6560 20.1707
" />
<path d="M42.6560 20.1707
L43.1798 20.1707
" />
<path d="M42.6560 20.1707
L42.5608 20.1231
" />
<path d="M42.5608 20.1231
L42.5132 20.0279
" />
<path d="M42.5132 20.0279
L42.5132 19.8850
" />
<path d="M42.5132 19.8850
L42.5608 19.7898
" />
<path d="M42.5608 19.7898
L42.6560 19.7421
" />
<path d="M42.6560 19.7421
L43.1798 19.7421
" />
</g></g>
<g style="fill:none; 
stroke:#C2C2C2; stroke-width:0.0500; stroke-opacity:1; 
stroke-linecap:round; stroke-linejoin:round;">
<path d="M38.0250 45.7450
L44.4614 45.7450
" />
<path d="M38.0250 0.0250
L44.4614 0.0250
" />
<path d="M43.8750 45.7450
L43.8750 0.0250
" />
<path d="M43.8750 45.7450
L43.8750 0.0250
" />
<path d="M43.8750 45.7450
L43.2886 44.6185
" />
<path d="M43.8750 45.7450
L44.4614 44.6185
" />
<path d="M43.8750 0.0250
L44.4614 1.1515
" />
<path d="M43.8750 0.0250
L43.2886 1.1515
" />
</g>
<g style="fill:none; 
stroke:#C2C2C2; stroke-width:0.1500; stroke-opacity:1; 
stroke-linecap:round; stroke-linejoin:round;">
<text x="13.0775" y="28.4650"
textLength="6.0595" font-size="1.3333" lengthAdjust="spacingAndGlyphs"
text-anchor="middle" opacity="0">1.9 mm</text>
<g class="stroked-text"><desc>1.9 mm</desc>
<path d="M10.9346 28.4198
L10.3632 28.4198
" />
<path d="M10.6489 28.4198
L10.6489 27.4198
" />
<path d="M10.6489 27.4198
L10.5537 27.5627
" />
<path d="M10.5537 27.5627
L10.4585 27.6579
" />
<path d="M10.4585 27.6579
L10.3632 27.7055
" />
<path d="M11.3632 28.3246
L11.4108 28.3722
" />
<path d="M11.4108 28.3722
L11.3632 28.4198
" />
<path d="M11.3632 28.4198
L11.3156 28.3722
" />
<path d="M11.3156 28.3722
L11.3632 28.3246
" />
<path d="M11.3632 28.3246
L11.3632 28.4198
" />
<path d="M11.8870 28.4198
L12.0775 28.4198
" />
<path d="M12.0775 28.4198
L12.1727 28.3722
" />
<path d="M12.1727 28.3722
L12.2204 28.3246
" />
<path d="M12.2204 28.3246
L12.3156 28.1817
" />
<path d="M12.3156 28.1817
L12.3632 27.9912
" />
<path d="M12.3632 27.9912
L12.3632 27.6103
" />
<path d="M12.3632 27.6103
L12.3156 27.5151
" />
<path d="M12.3156 27.5151
L12.2680 27.4674
" />
<path d="M12.2680 27.4674
L12.1727 27.4198
" />
<path d="M12.1727 27.4198
L11.9823 27.4198
" />
<path d="M11.9823 27.4198
L11.8870 27.4674
" />
<path d="M11.8870 27.4674
L11.8394 27.5151
" />
<path d="M11.8394 27.5151
L11.7918 27.6103
" />
<path d="M11.7918 27.6103
L11.7918 27.8484
" />
<path d="M11.7918 27.8484
L11.8394 27.9436
" />
<path d="M11.8394 27.9436
L11.8870 27.9912
" />
<path d="M11.8870 27.9912
L11.9823 28.0389
" />
<path d="M11.9823 28.0389
L12.1727 28.0389
" />
<path d="M12.1727 28.0389
L12.2680 27.9912
" />
<path d="M12.2680 27.9912
L12.3156 27.9436
" />
<path d="M12.3156 27.9436
L12.3632 27.8484
" />
<path d="M13.5537 28.4198
L13.5537 27.7532
" />
<path d="M13.5537 27.8484
L13.6013 27.8008
" />
<path d="M13.6013 27.8008
L13.6965 27.7532
" />
<path d="M13.6965 27.7532
L13.8394 27.7532
" />
<path d="M13.8394 27.7532
L13.9346 27.8008
" />
<path d="M13.9346 27.8008
L13.9823 27.8960
" />
<path d="M13.9823 27.8960
L13.9823 28.4198
" />
<path d="M13.9823 27.8960
L14.0299 27.8008
" />
<path d="M14.0299 27.8008
L14.1251 27.7532
" />
<path d="M14.1251 27.7532
L14.2680 27.7532
" />
<path d="M14.2680 27.7532
L14.3632 27.8008
" />
<path d="M14.3632 27.8008
L14.4108 27.8960
" />
<path d="M14.4108 27.8960
L14.4108 28.4198
" />
<path d="M14.8870 28.4198
L14.8870 27.7532
" />
<path d="M14.8870 27.8484
L14.9346 27.8008
" />
<path d="M14.9346 27.8008
L15.0299 27.7532
" />
<path d="M15.0299 27.7532
L15.1727 27.7532
" />
<path d="M15.1727 27.7532
L15.2680 27.8008
" />
<path d="M15.2680 27.8008
L15.3156 27.8960
" />
<path d="M15.3156 27.8960
L15.3156 28.4198
" />
<path d="M15.3156 27.8960
L15.3632 27.8008
" />
<path d="M15.3632 27.8008
L15.4585 27.7532
" />
<path d="M15.4585 27.7532
L15.6013 27.7532
" />
<path d="M15.6013 27.7532
L15.6965 27.8008
" />
<path d="M15.6965 27.8008
L15.7442 27.8960
" />
<path d="M15.7442 27.8960
L15.7442 28.4198
" />
</g></g>
<g style="fill:none; 
stroke:#C2C2C2; stroke-width:0.0500; stroke-opacity:1; 
stroke-linecap:round; stroke-linejoin:round;">
<path d="M14.0300 25.9250
L14.0300 28.5514
" />
<path d="M12.1250 25.9250
L12.1250 28.5514
" />
<path d="M14.0300 27.9650
L12.9035 28.5514
" />
<path d="M14.0300 27.9650
L12.9035 27.3786
" />
<path d="M12.1250 27.9650
L13.2515 27.3786
" />
<path d="M12.1250 27.9650
L13.2515 28.5514
" />
</g>
<g style="fill:none; 
stroke:#C2C2C2; stroke-width:0.1200; stroke-opacity:1; 
stroke-linecap:round; stroke-linejoin:round;">
<path d="M20.3800 48.2850
L34.3500 48.2850
" />
<path d="M20.3800 51.0790
L20.3800 48.2850
" />
<path d="M34.3500 51.0790
L20.3800 51.0790
" />
<path d="M34.3500 51.0790
L34.3500 48.2850
" />
</g>
<g style="fill:none; 
stroke:#C2C2C2; stroke-width:0.0500; stroke-opacity:1; 
stroke-linecap:round; stroke-linejoin:round;">
<path d="M23.3300 26.7200
L37.7500 26.7200
" />
<path d="M23.3300 45.7200
L23.3300 26.7200
" />
<path d="M37.7500 26.7200
L37.7500 45.7200
" />
<path d="M37.7500 45.7200
L23.3300 45.7200
" />
<path d="M14.9700 8.7200
L14.9700 0.2200
" />
<path d="M14.9700 8.7200
L18.1700 8.7200
" />
<path d="M18.1700 0.2200
L14.9700 0.2200
" />
<path d="M18.1700 0.2200
L18.1700 8.7200
" />
<circle cx="19.7450" cy="41.3000" r="3.4500" /> 
</g>
<g style="fill:none; 
stroke:#C2C2C2; stroke-width:0.1200; stroke-opacity:1; 
stroke-linecap:round; stroke-linejoin:round;">
<path d="M0.0600 34.3150
L0.0600 20.3450
" />
<path d="M2.8540 20.3450
L0.0600 20.3450
" />
<path d="M2.8540 20.3450
L2.8540 34.3150
" />
<path d="M2.8540 34.3150
L0.0600 34.3150
" />
</g>
<g style="fill:none; 
stroke:#C2C2C2; stroke-width:0.0500; stroke-opacity:1; 
stroke-linecap:round; stroke-linejoin:round;">
<path d="M23.3350 0.0500
L37.7550 0.0500
" />
<path d="M23.3350 19.0500
L23.3350 0.0500
" />
<path d="M37.7550 0.0500
L37.7550 19.0500
" />
<path d="M37.7550 19.0500
L23.3350 19.0500
" />
<path d="M18.9070 8.7200
L18.9070 0.2200
" />
<path d="M18.9070 8.7200
L22.1070 8.7200
" />
<path d="M22.1070 0.2200
L18.9070 0.2200
" />
<path d="M22.1070 0.2200
L22.1070 8.7200
" />
</g>
<g style="fill:none; 
stroke:#C2C200; stroke-width:0.0500; stroke-opacity:1; 
stroke-linecap:round; stroke-linejoin:round;">
<path d="M12.1250 10.8200
L14.6650 10.8200
" />
<path d="M15.3000 45.7450
L28.0000 45.7450
" />
<path d="M12.1250 45.7450
L15.3000 45.7450
" />
<path d="M38.1600 0.0250
L38.1600 45.7450
" />
<path d="M14.6650 0.0250
L22.9200 0.0250
" />
<path d="M14.6650 10.8200
L14.6650 0.0250
" />
<path d="M22.9200 0.0250
L38.1600 0.0250
" />
<path d="M12.1250 45.7450
L12.1250 10.8200
" />
<path d="M38.1600 45.7450
L28.0000 45.7450
" />
</g> 
</svg>
